0
SECTION
2
HEADER
9
$INSUNITS
70
4
9
$ACADVER
1
AC1014
9
$HANDSEED
5
FFFF
0
ENDSEC
0
SECTION
2
TABLES
0
TABLE
2
VPORT
5
8
100
AcDbSymbolTable
0
ENDTAB
0
TABLE
2
LTYPE
5
5
100
AcDbSymbolTable
0
LTYPE
5
14
100
AcDbSymbolTableRecord
100
AcDbLinetypeTableRecord
2
BYBLOCK
70
0
0
LTYPE
5
15
100
AcDbSymbolTableRecord
100
AcDbLinetypeTableRecord
2
BYLAYER
70
0
0
ENDTAB
0
TABLE
2
LAYER
5
2
100
AcDbSymbolTable
70
2
0
LAYER
5
50
100
AcDbSymbolTableRecord
100
AcDbLayerTableRecord
2
0
70
0
6
CONTINUOUS
0
ENDTAB
0
TABLE
2
STYLE
5
3
100
AcDbSymbolTable
70
1
0
STYLE
5
11
100
AcDbSymbolTableRecord
100
AcDbTextStyleTableRecord
2
STANDARD
70
0
0
ENDTAB
0
TABLE
2
VIEW
5
6
100
AcDbSymbolTable
70
0
0
ENDTAB
0
TABLE
2
UCS
5
7
100
AcDbSymbolTable
70
0
0
ENDTAB
0
TABLE
2
APPID
5
9
100
AcDbSymbolTable
70
2
0
APPID
5
12
100
AcDbSymbolTableRecord
100
AcDbRegAppTableRecord
2
ACAD
70
0
0
ENDTAB
0
TABLE
2
DIMSTYLE
5
A
100
AcDbSymbolTable
70
1
0
ENDTAB
0
TABLE
2
BLOCK_RECORD
5
1
100
AcDbSymbolTable
70
1
0
BLOCK_RECORD
5
1F
100
AcDbSymbolTableRecord
100
AcDbBlockTableRecord
2
*MODEL_SPACE
0
BLOCK_RECORD
5
1B
100
AcDbSymbolTableRecord
100
AcDbBlockTableRecord
2
*PAPER_SPACE
0
ENDTAB
0
ENDSEC
0
SECTION
2
BLOCKS
0
BLOCK
5
20
100
AcDbEntity
100
AcDbBlockBegin
2
*MODEL_SPACE
0
ENDBLK
5
21
100
AcDbEntity
100
AcDbBlockEnd
0
BLOCK
5
1C
100
AcDbEntity
100
AcDbBlockBegin
2
*PAPER_SPACE
0
ENDBLK
5
1D
100
AcDbEntity
100
AcDbBlockEnd
0
ENDSEC
0
SECTION
2
ENTITIES
0
LWPOLYLINE
5
100
100
AcDbEntity
8
0
100
AcDbPolyline
90
48
70
1
43
0.0
10
609.59999999999991
20
298.80000000000007
10
1.0949574580365604e-13
20
298.80000000000007
10
1.0921572944682464e-13
20
285.40000000000066
10
6.000000000000111
20
285.40000000000066
10
6.0000000000001119
20
234.60000000000051
10
6.6266436782313854e-14
20
234.60000000000051
10
2.2835358505610158e-14
20
209.20000000000044
10
6.000000000000024
20
209.20000000000044
10
6.0000000000000249
20
158.40000000000032
10
-1.942890293094035e-14
20
158.40000000000032
10
-6.3545012435604278e-14
20
133.00000000000026
10
5.9999999999999805
20
133.00000000000026
10
5.9999999999999387
20
82.200000000000131
10
-6.1825544683813455e-14
20
82.200000000000131
10
-1.055164623918125e-13
20
56.800000000000068
10
5.9999999999999396
20
56.800000000000068
10
5.9999999999998561
20
5.9999999999999432
10
50.799999999999876
20
5.9999999999999396
10
50.799999999999876
20
-2.8199664825478907e-15
10
76.199999999999932
20
-4.2299497238218426e-15
10
76.199999999999932
20
5.9999999999999387
10
126.99999999999989
20
5.9999999999999361
10
126.99999999999989
20
-7.0499162063697377e-15
10
152.39999999999986
20
-8.4598994476436853e-15
10
152.39999999999986
20
5.9999999999999343
10
203.19999999999987
20
5.9999999999999325
10
203.19999999999987
20
-1.1279865930191584e-14
10
228.59999999999988
20
-1.547983963234856e-13
10
228.59999999999988
20
5.9999999999997886
10
380.99999999999977
20
5.9999999999997797
10
380.99999999999977
20
-1.6325829577112924e-13
10
406.39999999999981
20
-1.646682790124032e-13
10
406.39999999999981
20
5.9999999999997788
10
457.19999999999976
20
5.9999999999997753
10
457.19999999999976
20
-1.6748824549495111e-13
10
482.5999999999998
20
-1.6889822873622506e-13
10
482.5999999999998
20
5.9999999999997744
10
533.39999999999975
20
5.9999999999997708
10
533.39999999999975
20
-1.7171819521877294e-13
10
558.79999999999984
20
-1.7312817846004692e-13
10
558.79999999999984
20
5.99999999999977
10
603.5999999999998
20
5.9999999999997673
10
603.60000000000002
20
18.741634172878474
10
609.60000000000002
20
18.741634172878474
10
609.60000000000002
20
44.141634172878469
10
603.60000000000002
20
44.141634172878469
10
603.60000000000002
20
69.541634172878474
10
609.60000000000002
20
69.541634172878474
0
ENDSEC
0
SECTION
2
OBJECTS
0
DICTIONARY
5
C
100
AcDbDictionary
3
ACAD_GROUP
350
D
3
ACAD_MLINESTYLE
350
17
0
DICTIONARY
5
D
100
AcDbDictionary
0
DICTIONARY
5
1A
330
C
100
AcDbDictionary
0
DICTIONARY
5
17
100
AcDbDictionary
0
ENDSEC
0
EOF
