0
SECTION
2
HEADER
9
$INSUNITS
70
4
9
$ACADVER
1
AC1014
9
$HANDSEED
5
FFFF
0
ENDSEC
0
SECTION
2
TABLES
0
TABLE
2
VPORT
5
8
100
AcDbSymbolTable
0
ENDTAB
0
TABLE
2
LTYPE
5
5
100
AcDbSymbolTable
0
LTYPE
5
14
100
AcDbSymbolTableRecord
100
AcDbLinetypeTableRecord
2
BYBLOCK
70
0
0
LTYPE
5
15
100
AcDbSymbolTableRecord
100
AcDbLinetypeTableRecord
2
BYLAYER
70
0
0
ENDTAB
0
TABLE
2
LAYER
5
2
100
AcDbSymbolTable
70
2
0
LAYER
5
50
100
AcDbSymbolTableRecord
100
AcDbLayerTableRecord
2
0
70
0
6
CONTINUOUS
0
ENDTAB
0
TABLE
2
STYLE
5
3
100
AcDbSymbolTable
70
1
0
STYLE
5
11
100
AcDbSymbolTableRecord
100
AcDbTextStyleTableRecord
2
STANDARD
70
0
0
ENDTAB
0
TABLE
2
VIEW
5
6
100
AcDbSymbolTable
70
0
0
ENDTAB
0
TABLE
2
UCS
5
7
100
AcDbSymbolTable
70
0
0
ENDTAB
0
TABLE
2
APPID
5
9
100
AcDbSymbolTable
70
2
0
APPID
5
12
100
AcDbSymbolTableRecord
100
AcDbRegAppTableRecord
2
ACAD
70
0
0
ENDTAB
0
TABLE
2
DIMSTYLE
5
A
100
AcDbSymbolTable
70
1
0
ENDTAB
0
TABLE
2
BLOCK_RECORD
5
1
100
AcDbSymbolTable
70
1
0
BLOCK_RECORD
5
1F
100
AcDbSymbolTableRecord
100
AcDbBlockTableRecord
2
*MODEL_SPACE
0
BLOCK_RECORD
5
1B
100
AcDbSymbolTableRecord
100
AcDbBlockTableRecord
2
*PAPER_SPACE
0
ENDTAB
0
ENDSEC
0
SECTION
2
BLOCKS
0
BLOCK
5
20
100
AcDbEntity
100
AcDbBlockBegin
2
*MODEL_SPACE
0
ENDBLK
5
21
100
AcDbEntity
100
AcDbBlockEnd
0
BLOCK
5
1C
100
AcDbEntity
100
AcDbBlockBegin
2
*PAPER_SPACE
0
ENDBLK
5
1D
100
AcDbEntity
100
AcDbBlockEnd
0
ENDSEC
0
SECTION
2
ENTITIES
0
LWPOLYLINE
5
100
100
AcDbEntity
8
0
100
AcDbPolyline
90
114
70
1
43
0.0
10
814.02923159599311
20
-454.1757472515103
10
596.62125942483942
20
143.14772570898612
10
590.98310372606318
20
141.09560478499014
10
582.29579181448025
20
164.96379724314292
10
587.9339475132565
20
167.01591816713889
10
579.24663560167357
20
190.88411062529167
10
573.60847990289733
20
188.8319897012957
10
569.25058422088603
20
200.80520925521867
10
527.15235500335677
20
185.48270635604877
10
525.10023407936069
20
191.12086205482495
10
501.23204162120794
20
182.43355014324197
10
503.28416254520391
20
176.79539444446578
10
455.54777762889842
20
159.42077062129988
10
453.49565670490244
20
165.05892632007607
10
429.6274642467497
20
156.37161440849314
10
431.67958517074567
20
150.73345870971693
10
383.94320025444011
20
133.35883488655102
10
381.89107933044409
20
138.99699058532724
10
358.02288687229134
20
130.30967867374432
10
360.07500779628737
20
124.6715229749681
10
216.86585304737079
20
72.547651505470441
10
214.81373212337485
20
78.185807204246629
10
190.94553966522204
20
69.498495292663534
10
192.99766058921801
20
63.860339593887346
10
145.26127567291246
20
46.485715770721455
10
143.20915474891652
20
52.123871469497651
10
119.34096229076376
20
43.436559557914698
10
121.39308321475971
20
37.79840385913851
10
73.656698298454216
20
20.423780035972634
10
71.604577374458259
20
26.061935734748825
10
47.736384916305433
20
17.374623823165855
10
49.788505840301383
20
11.73646812438966
10
7.6902766227720623
20
-3.5860347747802699
10
25.0649004459381
20
-51.322419691085898
10
19.426744747161813
20
-53.374540615081884
10
28.114056658744829
20
-77.242733073234703
10
33.752212357521074
20
-75.190612149238731
10
51.126836180687071
20
-122.92699706554437
10
45.488680481910784
20
-124.97911798954036
10
54.1759923934938
20
-148.84731044769319
10
59.814148092270088
20
-146.79518952369719
10
77.18877191543605
20
-194.53157444000283
10
71.550616216659805
20
-196.5836953639988
10
80.237928128242828
20
-220.45188782215163
10
85.876083827019102
20
-218.39976689815563
10
103.25070765018506
20
-266.1361518144613
10
97.612551951408818
20
-268.18827273845727
10
106.29986386299178
20
-292.05646519661013
10
111.93801956176804
20
-290.00434427261416
10
120.62533147335105
20
-313.87253673076697
10
114.98717577457477
20
-315.92465765476294
10
123.67448768615779
20
-339.7928501129158
10
129.31264338493406
20
-337.74072918891983
10
194.70689682960517
20
-517.4099574565879
10
189.0687411308289
20
-519.46207838058388
10
197.75605304241182
20
-543.33027083873674
10
203.39420874118812
20
-541.27814991474077
10
212.08152065277105
20
-565.14634237289351
10
206.44336495399477
20
-567.1984632968896
10
215.13067686557775
20
-591.06665575504246
10
220.768832564354
20
-589.01453483104649
10
238.14345638751996
20
-636.7509197473521
10
232.50530068874366
20
-638.80304067134807
10
241.19261260032658
20
-662.67123312950105
10
246.8307682991028
20
-660.61911220550496
10
264.20539212226873
20
-708.35549712181069
10
258.56723642349243
20
-710.40761804580666
10
267.25454833507541
20
-734.27581050395941
10
272.89270403385171
20
-732.22368957996332
10
290.26732785701762
20
-779.96007449626916
10
284.62917215824132
20
-782.01219542026524
10
293.3164840698243
20
-805.88038787841799
10
298.9546397686006
20
-803.82826695442191
10
316.32926359176645
20
-851.56465187072763
10
358.42749280929576
20
-836.24214897155764
10
360.47961373329173
20
-841.88030467033389
10
384.34780619144453
20
-833.19299275875096
10
382.29568526744856
20
-827.55483705997472
10
430.03207018375406
20
-810.18021323680887
10
432.08419110775003
20
-815.818368935585
10
455.95238356590278
20
-807.13105702400208
10
453.90026264190681
20
-801.49290132522594
10
501.63664755821236
20
-784.11827750205998
10
503.68876848220839
20
-789.75643320083623
10
527.55696094036114
20
-781.0691212892533
10
525.50484001636516
20
-775.43096559047717
10
668.71399476528177
20
-723.3070941209794
10
670.76611568927774
20
-728.94524981975565
10
718.50250060558335
20
-711.57062599658957
10
716.45037968158726
20
-705.93247029781332
10
740.31857213974013
20
-697.24515838623063
10
742.37069306373598
20
-702.88331408500676
10
790.10707798004159
20
-685.50869026184091
10
788.05495705604562
20
-679.87053456306467
10
811.92314951419826
20
-671.18322265148186
10
813.97527043819423
20
-676.82137835025799
10
861.71165535449995
20
-659.44675452709191
10
859.6595344305041
20
-653.80859882831578
10
883.52772688865684
20
-645.12128691673286
10
874.84041497707381
20
-621.25309445858011
10
869.20225927829756
20
-623.30521538257608
10
860.51494736671452
20
-599.43702292442322
10
866.15310306549077
20
-597.38490200042725
10
857.46579115390784
20
-573.51670954227438
10
851.82763545513149
20
-575.56883046627047
10
843.14032354354867
20
-551.70063800811749
10
848.77847924232492
20
-549.64851708412152
10
840.09116733074188
20
-525.78032462596866
10
834.45301163196575
20
-527.83244554996463
10
825.76569972038271
20
-503.96425309181183
10
831.40385541915907
20
-501.91213216781591
10
822.71654350757603
20
-478.04393970966305
10
817.07838780879979
20
-480.09606063365891
10
808.39107589721675
20
-456.22786817550616
0
ENDSEC
0
SECTION
2
OBJECTS
0
DICTIONARY
5
C
100
AcDbDictionary
3
ACAD_GROUP
350
D
3
ACAD_MLINESTYLE
350
17
0
DICTIONARY
5
D
100
AcDbDictionary
0
DICTIONARY
5
1A
330
C
100
AcDbDictionary
0
DICTIONARY
5
17
100
AcDbDictionary
0
ENDSEC
0
EOF
