0
SECTION
2
HEADER
9
$INSUNITS
70
4
9
$ACADVER
1
AC1014
9
$HANDSEED
5
FFFF
0
ENDSEC
0
SECTION
2
TABLES
0
TABLE
2
VPORT
5
8
100
AcDbSymbolTable
0
ENDTAB
0
TABLE
2
LTYPE
5
5
100
AcDbSymbolTable
0
LTYPE
5
14
100
AcDbSymbolTableRecord
100
AcDbLinetypeTableRecord
2
BYBLOCK
70
0
0
LTYPE
5
15
100
AcDbSymbolTableRecord
100
AcDbLinetypeTableRecord
2
BYLAYER
70
0
0
ENDTAB
0
TABLE
2
LAYER
5
2
100
AcDbSymbolTable
70
2
0
LAYER
5
50
100
AcDbSymbolTableRecord
100
AcDbLayerTableRecord
2
0
70
0
6
CONTINUOUS
0
ENDTAB
0
TABLE
2
STYLE
5
3
100
AcDbSymbolTable
70
1
0
STYLE
5
11
100
AcDbSymbolTableRecord
100
AcDbTextStyleTableRecord
2
STANDARD
70
0
0
ENDTAB
0
TABLE
2
VIEW
5
6
100
AcDbSymbolTable
70
0
0
ENDTAB
0
TABLE
2
UCS
5
7
100
AcDbSymbolTable
70
0
0
ENDTAB
0
TABLE
2
APPID
5
9
100
AcDbSymbolTable
70
2
0
APPID
5
12
100
AcDbSymbolTableRecord
100
AcDbRegAppTableRecord
2
ACAD
70
0
0
ENDTAB
0
TABLE
2
DIMSTYLE
5
A
100
AcDbSymbolTable
70
1
0
ENDTAB
0
TABLE
2
BLOCK_RECORD
5
1
100
AcDbSymbolTable
70
1
0
BLOCK_RECORD
5
1F
100
AcDbSymbolTableRecord
100
AcDbBlockTableRecord
2
*MODEL_SPACE
0
BLOCK_RECORD
5
1B
100
AcDbSymbolTableRecord
100
AcDbBlockTableRecord
2
*PAPER_SPACE
0
ENDTAB
0
ENDSEC
0
SECTION
2
BLOCKS
0
BLOCK
5
20
100
AcDbEntity
100
AcDbBlockBegin
2
*MODEL_SPACE
0
ENDBLK
5
21
100
AcDbEntity
100
AcDbBlockEnd
0
BLOCK
5
1C
100
AcDbEntity
100
AcDbBlockBegin
2
*PAPER_SPACE
0
ENDBLK
5
1D
100
AcDbEntity
100
AcDbBlockEnd
0
ENDSEC
0
SECTION
2
ENTITIES
0
LINE
5
100
100
AcDbEntity
8
0
100
AcDbLine
10
-609.58797100829986
20
381.00000000000017
30
7.1054273576010019e-13
11
-609.58797100829986
21
355.60000000000014
31
7.1054273576010019e-13
0
LINE
5
101
100
AcDbEntity
8
0
100
AcDbLine
10
-609.58797100829986
20
355.60000000000014
30
7.1054273576010019e-13
11
-603.58821105680283
21
355.60000000000014
31
7.1054273576010019e-13
0
LINE
5
102
100
AcDbEntity
8
0
100
AcDbLine
10
-603.58821105680283
20
355.60000000000014
30
7.1054273576010019e-13
11
-603.58821105680283
21
342.90000000000015
31
-1.4210854715202004e-13
0
LINE
5
103
100
AcDbEntity
8
0
100
AcDbLine
10
-603.58821105680283
20
342.90000000000015
30
-1.4210854715202004e-13
11
-603.59999999999945
21
342.90000000000015
31
-1.4210854715202004e-13
0
LINE
5
104
100
AcDbEntity
8
0
100
AcDbLine
10
-603.59999999999945
20
342.90000000000015
30
-1.4210854715202004e-13
11
-603.59999999999923
21
330.2000000000001
31
5.6843418860808015e-13
0
LINE
5
105
100
AcDbEntity
8
0
100
AcDbLine
10
-603.59999999999923
20
330.2000000000001
30
5.6843418860808015e-13
11
-609.58800915527252
21
330.2000000000001
31
5.6843418860808015e-13
0
LINE
5
106
100
AcDbEntity
8
0
100
AcDbLine
10
-609.58800915527252
20
330.2000000000001
30
5.6843418860808015e-13
11
-609.58800915527252
21
304.80000000000018
31
5.6843418860808015e-13
0
LINE
5
107
100
AcDbEntity
8
0
100
AcDbLine
10
-609.58800915527252
20
304.80000000000018
30
5.6843418860808015e-13
11
-603.59999999999923
21
304.80000000000018
31
5.6843418860808015e-13
0
LINE
5
108
100
AcDbEntity
8
0
100
AcDbLine
10
-603.59999999999923
20
304.80000000000018
30
5.6843418860808015e-13
11
-603.59999999999945
21
278.60001373291038
31
-1.4210854715202004e-13
0
LINE
5
109
100
AcDbEntity
8
0
100
AcDbLine
10
-603.59999999999889
20
278.60000000000025
30
-1.4210854715202004e-13
11
-507.99999999999955
21
278.60000000000019
31
-1.4210854715202004e-13
0
LINE
5
110
100
AcDbEntity
8
0
100
AcDbLine
10
-507.99999999999955
20
278.60000000000019
30
-1.4210854715202004e-13
11
-507.99999999999955
21
285.40000000000015
31
-1.4210854715202004e-13
0
ARC
5
111
100
AcDbEntity
8
0
100
AcDbCircle
10
-457.19999999999959
20
285.40000000000015
30
0
40
50.799999999999983
210
0
220
-0
230
1
100
AcDbArc
50
90
51
180
0
LINE
5
112
100
AcDbEntity
8
0
100
AcDbLine
10
-457.19999999999959
20
336.2000000000001
30
0
11
-152.39999999999952
21
336.20000000000005
31
0
0
ARC
5
113
100
AcDbEntity
8
0
100
AcDbCircle
10
-152.39999999999955
20
285.40000000000003
30
0
40
50.799999999999997
210
0
220
0
230
1
100
AcDbArc
50
0
51
89.999999999999972
0
LINE
5
114
100
AcDbEntity
8
0
100
AcDbLine
10
-101.59999999999955
20
285.39999999999998
30
0
11
-101.59999999999954
21
278.60000000000008
31
0
0
LINE
5
115
100
AcDbEntity
8
0
100
AcDbLine
10
-101.59999999999954
20
278.60000000000008
30
0
11
-5.9999999999993081
21
278.60000000000008
31
0
0
LINE
5
116
100
AcDbEntity
8
0
100
AcDbLine
10
-5.9999999999993081
20
278.60000000000008
30
0
11
-5.9999999999996634
21
304.80000000000001
31
5.6843418860808015e-13
0
LINE
5
117
100
AcDbEntity
8
0
100
AcDbLine
10
-5.9999999999996634
20
304.80000000000001
30
5.6843418860808015e-13
11
3.5104158628512461e-13
21
304.80000000000001
31
5.6843418860808015e-13
0
LINE
5
118
100
AcDbEntity
8
0
100
AcDbLine
10
3.5104158628512461e-13
20
304.80000000000001
30
5.6843418860808015e-13
11
3.5104158628512461e-13
21
330.19999999999993
31
5.6843418860808015e-13
0
LINE
5
119
100
AcDbEntity
8
0
100
AcDbLine
10
3.5104158628512461e-13
20
330.19999999999993
30
5.6843418860808015e-13
11
-5.9999999999996634
21
330.19999999999993
31
5.6843418860808015e-13
0
LINE
5
120
100
AcDbEntity
8
0
100
AcDbLine
10
-5.9999999999996634
20
330.19999999999993
30
5.6843418860808015e-13
11
-5.9999999999994502
21
355.60000000000002
31
0
0
LINE
5
121
100
AcDbEntity
8
0
100
AcDbLine
10
-5.9999999999994502
20
355.60000000000002
30
0
11
3.5215180930974987e-13
21
355.60000000000002
31
0
0
LINE
5
122
100
AcDbEntity
8
0
100
AcDbLine
10
3.5215180930974987e-13
20
355.60000000000002
30
0
11
-6.8128102209850642e-06
21
381
31
0
0
LINE
5
123
100
AcDbEntity
8
0
100
AcDbLine
10
-6.8128102209850642e-06
20
381
30
0
11
-5.9999999999994502
21
381
31
0
0
LINE
5
124
100
AcDbEntity
8
0
100
AcDbLine
10
-5.9999999999994502
20
381
30
0
11
-5.9999999999994502
21
406.39999999999998
31
0
0
LINE
5
125
100
AcDbEntity
8
0
100
AcDbLine
10
-5.9999999999994502
20
406.39999999999998
30
0
11
3.6547448560525175e-13
21
406.39999999999998
31
0
0
LINE
5
126
100
AcDbEntity
8
0
100
AcDbLine
10
3.6547448560525175e-13
20
406.39999999999998
30
0
11
-6.8128102209850642e-06
21
431.80000000000001
31
0
0
LINE
5
127
100
AcDbEntity
8
0
100
AcDbLine
10
-6.8128102209850642e-06
20
431.80000000000001
30
0
11
-5.9999999999994502
21
431.80000000000001
31
0
0
LINE
5
128
100
AcDbEntity
8
0
100
AcDbLine
10
-5.9999999999994502
20
431.80000000000001
30
0
11
-5.9999999999994502
21
457.19999999999999
31
0
0
LINE
5
129
100
AcDbEntity
8
0
100
AcDbLine
10
-5.9999999999994502
20
457.19999999999999
30
0
11
-6.8128102213125805e-06
21
457.19999999999999
31
0
0
LINE
5
130
100
AcDbEntity
8
0
100
AcDbLine
10
-6.8128102213125805e-06
20
457.19999999999999
30
0
11
5.6420440701315477e-13
21
558
31
0
0
LINE
5
131
100
AcDbEntity
8
0
100
AcDbLine
10
5.6420440701315477e-13
20
558
30
0
11
-50.800006103514903
21
558.00000000000011
31
2.3841863594498136e-07
0
LINE
5
132
100
AcDbEntity
8
0
100
AcDbLine
10
-50.800006103514903
20
558.00000000000011
30
2.3841863594498136e-07
11
-50.800006103514903
21
552.00000000000011
31
2.3841863594498136e-07
0
LINE
5
133
100
AcDbEntity
8
0
100
AcDbLine
10
-50.800006103514903
20
552.00000000000011
30
2.3841863594498136e-07
11
-76.200006103514966
21
552.00000000000011
31
2.3841863594498136e-07
0
LINE
5
134
100
AcDbEntity
8
0
100
AcDbLine
10
-76.200006103514966
20
552.00000000000011
30
2.3841863594498136e-07
11
-76.200006103514966
21
558.00000000000011
31
2.3841863594498136e-07
0
LINE
5
135
100
AcDbEntity
8
0
100
AcDbLine
10
-76.200006103514966
20
558.00000000000011
30
2.3841863594498136e-07
11
-127.00000610351488
21
558.00000000000011
31
2.3841863594498136e-07
0
LINE
5
136
100
AcDbEntity
8
0
100
AcDbLine
10
-127.00000610351488
20
558.00000000000011
30
2.3841863594498136e-07
11
-127.00000610351488
21
552.00000000000011
31
2.3841849383643421e-07
0
LINE
5
137
100
AcDbEntity
8
0
100
AcDbLine
10
-127.00000610351488
20
552.00000000000011
30
2.3841849383643421e-07
11
-152.40000610351487
21
552.00000000000023
31
2.3841849383643421e-07
0
LINE
5
138
100
AcDbEntity
8
0
100
AcDbLine
10
-152.40000610351487
20
552.00000000000023
30
2.3841849383643421e-07
11
-152.40000610351487
21
558.00000000000023
31
2.3841863594498136e-07
0
LINE
5
139
100
AcDbEntity
8
0
100
AcDbLine
10
-152.40000610351487
20
558.00000000000023
30
2.3841863594498136e-07
11
-203.20000610351491
21
558.00000000000023
31
2.3841849383643421e-07
0
LINE
5
140
100
AcDbEntity
8
0
100
AcDbLine
10
-203.20000610351491
20
558.00000000000023
30
2.3841849383643421e-07
11
-203.20000610351491
21
552.00000000000023
31
2.3841849383643421e-07
0
LINE
5
141
100
AcDbEntity
8
0
100
AcDbLine
10
-203.20000610351491
20
552.00000000000023
30
2.3841849383643421e-07
11
-228.60000610351491
21
552.00000000000023
31
2.3841835172788706e-07
0
LINE
5
142
100
AcDbEntity
8
0
100
AcDbLine
10
-228.60000610351491
20
552.00000000000023
30
2.3841835172788706e-07
11
-228.60000610351491
21
558.00000000000023
31
2.3841835172788706e-07
0
LINE
5
143
100
AcDbEntity
8
0
100
AcDbLine
10
-228.60000610351491
20
558.00000000000023
30
2.3841835172788706e-07
11
-381.00000610351481
21
558.00000000000023
31
2.3841835172788706e-07
0
LINE
5
144
100
AcDbEntity
8
0
100
AcDbLine
10
-381.00000610351481
20
558.00000000000023
30
2.3841835172788706e-07
11
-381.00000610351481
21
552.00000000000023
31
2.3841835172788706e-07
0
LINE
5
145
100
AcDbEntity
8
0
100
AcDbLine
10
-381.00000610351481
20
552.00000000000023
30
2.3841835172788706e-07
11
-406.40000610351478
21
552.00000000000023
31
2.3841835172788706e-07
0
LINE
5
146
100
AcDbEntity
8
0
100
AcDbLine
10
-406.40000610351478
20
552.00000000000023
30
2.3841835172788706e-07
11
-406.40000610351478
21
558.00000000000023
31
2.3841835172788706e-07
0
LINE
5
147
100
AcDbEntity
8
0
100
AcDbLine
10
-406.40000610351478
20
558.00000000000023
30
2.3841835172788706e-07
11
-457.20000610351474
21
558.00000000000023
31
2.3841835172788706e-07
0
LINE
5
148
100
AcDbEntity
8
0
100
AcDbLine
10
-457.20000610351474
20
558.00000000000023
30
2.3841835172788706e-07
11
-457.20000610351474
21
552.00000000000023
31
2.384182096193399e-07
0
LINE
5
149
100
AcDbEntity
8
0
100
AcDbLine
10
-457.20000610351474
20
552.00000000000023
30
2.384182096193399e-07
11
-482.60000610351477
21
552.00000000000023
31
2.3841806751079275e-07
0
LINE
5
150
100
AcDbEntity
8
0
100
AcDbLine
10
-482.60000610351477
20
552.00000000000023
30
2.3841806751079275e-07
11
-482.60000610351477
21
558.00000000000023
31
2.3841806751079275e-07
0
LINE
5
151
100
AcDbEntity
8
0
100
AcDbLine
10
-482.60000610351477
20
558.00000000000023
30
2.3841806751079275e-07
11
-533.40000610351478
21
558.00000000000023
31
2.3841806751079275e-07
0
LINE
5
152
100
AcDbEntity
8
0
100
AcDbLine
10
-533.40000610351478
20
558.00000000000023
30
2.3841806751079275e-07
11
-533.40000610351478
21
552.00000000000023
31
2.3841806751079275e-07
0
LINE
5
153
100
AcDbEntity
8
0
100
AcDbLine
10
-533.40000610351478
20
552.00000000000023
30
2.3841806751079275e-07
11
-558.80000610351476
21
552.00000000000023
31
2.3841806751079275e-07
0
LINE
5
154
100
AcDbEntity
8
0
100
AcDbLine
10
-558.80000610351476
20
552.00000000000023
30
2.3841806751079275e-07
11
-558.80000610351476
21
558.00000000000023
31
2.3841806751079275e-07
0
LINE
5
155
100
AcDbEntity
8
0
100
AcDbLine
10
-558.80000610351476
20
558.00000000000023
30
2.3841806751079275e-07
11
-609.5879999999994
21
558.00000000000023
31
-1.4210854715202004e-13
0
LINE
5
156
100
AcDbEntity
8
0
100
AcDbLine
10
-609.5879999999994
20
558.00000000000023
30
-1.4210854715202004e-13
11
-609.58799999999917
21
457.20000000000016
31
8.5265128291212022e-13
0
LINE
5
157
100
AcDbEntity
8
0
100
AcDbLine
10
-609.58799999999917
20
457.20000000000016
30
8.5265128291212022e-13
11
-603.58821105680283
21
457.20000112652792
31
-1.4210854715202004e-13
0
LINE
5
158
100
AcDbEntity
8
0
100
AcDbLine
10
-603.58821105680283
20
457.20000112652792
30
-1.4210854715202004e-13
11
-603.58821105680283
21
431.80000000000013
31
8.5265128291212022e-13
0
LINE
5
159
100
AcDbEntity
8
0
100
AcDbLine
10
-603.58821105680283
20
431.80000000000013
30
8.5265128291212022e-13
11
-609.58800915527252
21
431.80000000000013
31
8.5265128291212022e-13
0
LINE
5
160
100
AcDbEntity
8
0
100
AcDbLine
10
-609.58800915527252
20
431.80000000000013
30
8.5265128291212022e-13
11
-609.58800915527252
21
406.40000000000015
31
7.1054273576010019e-13
0
LINE
5
161
100
AcDbEntity
8
0
100
AcDbLine
10
-609.58800915527252
20
406.40000000000015
30
7.1054273576010019e-13
11
-603.58821105680283
21
406.40000000000015
31
7.1054273576010019e-13
0
LINE
5
162
100
AcDbEntity
8
0
100
AcDbLine
10
-603.58821105680283
20
406.40000000000015
30
7.1054273576010019e-13
11
-603.58821105680283
21
381.00000000000017
31
7.1054273576010019e-13
0
LINE
5
163
100
AcDbEntity
8
0
100
AcDbLine
10
-603.58821105680283
20
381.00000000000017
30
7.1054273576010019e-13
11
-609.58797100829986
21
381.00000000000017
31
7.1054273576010019e-13
0
ENDSEC
0
SECTION
2
OBJECTS
0
DICTIONARY
5
C
100
AcDbDictionary
3
ACAD_GROUP
350
D
3
ACAD_MLINESTYLE
350
17
0
DICTIONARY
5
D
100
AcDbDictionary
0
DICTIONARY
5
1A
330
C
100
AcDbDictionary
0
DICTIONARY
5
17
100
AcDbDictionary
0
ENDSEC
0
EOF
