0
SECTION
2
HEADER
9
$INSUNITS
70
4
9
$ACADVER
1
AC1014
9
$HANDSEED
5
FFFF
0
ENDSEC
0
SECTION
2
TABLES
0
TABLE
2
VPORT
5
8
100
AcDbSymbolTable
0
ENDTAB
0
TABLE
2
LTYPE
5
5
100
AcDbSymbolTable
0
LTYPE
5
14
100
AcDbSymbolTableRecord
100
AcDbLinetypeTableRecord
2
BYBLOCK
70
0
0
LTYPE
5
15
100
AcDbSymbolTableRecord
100
AcDbLinetypeTableRecord
2
BYLAYER
70
0
0
ENDTAB
0
TABLE
2
LAYER
5
2
100
AcDbSymbolTable
70
2
0
LAYER
5
50
100
AcDbSymbolTableRecord
100
AcDbLayerTableRecord
2
0
70
0
6
CONTINUOUS
0
ENDTAB
0
TABLE
2
STYLE
5
3
100
AcDbSymbolTable
70
1
0
STYLE
5
11
100
AcDbSymbolTableRecord
100
AcDbTextStyleTableRecord
2
STANDARD
70
0
0
ENDTAB
0
TABLE
2
VIEW
5
6
100
AcDbSymbolTable
70
0
0
ENDTAB
0
TABLE
2
UCS
5
7
100
AcDbSymbolTable
70
0
0
ENDTAB
0
TABLE
2
APPID
5
9
100
AcDbSymbolTable
70
2
0
APPID
5
12
100
AcDbSymbolTableRecord
100
AcDbRegAppTableRecord
2
ACAD
70
0
0
ENDTAB
0
TABLE
2
DIMSTYLE
5
A
100
AcDbSymbolTable
70
1
0
ENDTAB
0
TABLE
2
BLOCK_RECORD
5
1
100
AcDbSymbolTable
70
1
0
BLOCK_RECORD
5
1F
100
AcDbSymbolTableRecord
100
AcDbBlockTableRecord
2
*MODEL_SPACE
0
BLOCK_RECORD
5
1B
100
AcDbSymbolTableRecord
100
AcDbBlockTableRecord
2
*PAPER_SPACE
0
ENDTAB
0
ENDSEC
0
SECTION
2
BLOCKS
0
BLOCK
5
20
100
AcDbEntity
100
AcDbBlockBegin
2
*MODEL_SPACE
0
ENDBLK
5
21
100
AcDbEntity
100
AcDbBlockEnd
0
BLOCK
5
1C
100
AcDbEntity
100
AcDbBlockBegin
2
*PAPER_SPACE
0
ENDBLK
5
1D
100
AcDbEntity
100
AcDbBlockEnd
0
ENDSEC
0
SECTION
2
ENTITIES
0
LINE
5
100
100
AcDbEntity
8
0
100
AcDbLine
10
-278.60000000000008
20
5.9999999999998135
30
-3.6621094354760686e-05
11
-278.59997558593756
21
5.9999999999998135
31
-3.6621094354760686e-05
0
LINE
5
101
100
AcDbEntity
8
0
100
AcDbLine
10
-278.59997558593756
20
5.9999999999998135
30
-3.6621094354760686e-05
11
-278.59997558593756
21
-1.8709711181556078e-13
31
-3.662109435254024e-05
0
LINE
5
102
100
AcDbEntity
8
0
100
AcDbLine
10
-278.59997558593756
20
-1.8709711181556078e-13
30
-3.662109435254024e-05
11
-254
21
1.7927648631074093e-13
31
-3.6621094814393018e-05
0
LINE
5
103
100
AcDbEntity
8
0
100
AcDbLine
10
-254
20
1.7927648631074093e-13
30
-3.6621094814393018e-05
11
-254
21
6.0000000000001794
31
-3.6621094816613464e-05
0
LINE
5
104
100
AcDbEntity
8
0
100
AcDbLine
10
-254
20
6.0000000000001794
30
-3.6621094816613464e-05
11
-228.59999999999999
21
6.0000000000001794
31
-3.6621094816613464e-05
0
LINE
5
105
100
AcDbEntity
8
0
100
AcDbLine
10
-228.59999999999999
20
6.0000000000001794
30
-3.6621094816613464e-05
11
-228.59999999999999
21
1.7927648631074093e-13
31
-3.6621094814393018e-05
0
LINE
5
106
100
AcDbEntity
8
0
100
AcDbLine
10
-228.59999999999999
20
1.7927648631074093e-13
30
-3.6621094814393018e-05
11
-203.19999999999999
21
1.7927648631074093e-13
31
-3.6621094756661421e-05
0
LINE
5
107
100
AcDbEntity
8
0
100
AcDbLine
10
-203.19999999999999
20
1.7927648631074093e-13
30
-3.6621094756661421e-05
11
-203.19999999999999
21
6.0000000000001794
31
-3.6621094758881867e-05
0
LINE
5
108
100
AcDbEntity
8
0
100
AcDbLine
10
-203.19999999999999
20
6.0000000000001794
30
-3.6621094758881867e-05
11
-177.80000000000001
21
6.0000000000001794
31
-3.6621094758881867e-05
0
LINE
5
109
100
AcDbEntity
8
0
100
AcDbLine
10
-177.80000000000001
20
6.0000000000001794
30
-3.6621094758881867e-05
11
-177.80000000000001
21
1.7927648631074093e-13
31
-3.6621094756661421e-05
0
LINE
5
110
100
AcDbEntity
8
0
100
AcDbLine
10
-177.80000000000001
20
1.7927648631074093e-13
30
-3.6621094756661421e-05
11
-152.40000000000001
21
1.7927648631074093e-13
31
-3.6621094698929824e-05
0
LINE
5
111
100
AcDbEntity
8
0
100
AcDbLine
10
-152.40000000000001
20
1.7927648631074093e-13
30
-3.6621094698929824e-05
11
-152.40000000000001
21
6.0000000000001794
31
-3.662109470115027e-05
0
LINE
5
112
100
AcDbEntity
8
0
100
AcDbLine
10
-152.40000000000001
20
6.0000000000001794
30
-3.662109470115027e-05
11
-127
21
6.0000000000001794
31
-3.6621094643418672e-05
0
LINE
5
113
100
AcDbEntity
8
0
100
AcDbLine
10
-127
20
6.0000000000001794
30
-3.6621094643418672e-05
11
-127
21
1.7927648631074088e-13
31
-3.6621094641198226e-05
0
LINE
5
114
100
AcDbEntity
8
0
100
AcDbLine
10
-127
20
1.7927648631074088e-13
30
-3.6621094641198226e-05
11
-101.59999999999999
21
1.7927648631074088e-13
31
-3.6621094583466629e-05
0
LINE
5
115
100
AcDbEntity
8
0
100
AcDbLine
10
-101.59999999999999
20
1.7927648631074088e-13
30
-3.6621094583466629e-05
11
-101.59999999999999
21
6.0000000000001794
31
-3.6621094585687075e-05
0
LINE
5
116
100
AcDbEntity
8
0
100
AcDbLine
10
-101.59999999999999
20
6.0000000000001794
30
-3.6621094585687075e-05
11
-76.200000000000003
21
6.0000000000001794
31
-3.6621094527955478e-05
0
LINE
5
117
100
AcDbEntity
8
0
100
AcDbLine
10
-76.200000000000003
20
6.0000000000001794
30
-3.6621094527955478e-05
11
-76.200000000000003
21
1.7927648631074085e-13
31
-3.6621094525735032e-05
0
LINE
5
118
100
AcDbEntity
8
0
100
AcDbLine
10
-76.200000000000003
20
1.7927648631074085e-13
30
-3.6621094525735032e-05
11
-50.799999999999997
21
1.7927648631074085e-13
31
-3.6621094468003434e-05
0
LINE
5
119
100
AcDbEntity
8
0
100
AcDbLine
10
-50.799999999999997
20
1.7927648631074085e-13
30
-3.6621094468003434e-05
11
-50.799999999999997
21
6.0000000000001794
31
-3.6621094470223881e-05
0
LINE
5
120
100
AcDbEntity
8
0
100
AcDbLine
10
-50.799999999999997
20
6.0000000000001794
30
-3.6621094470223881e-05
11
-25.399999999999999
21
6.0000000000001794
31
-3.6621094412492283e-05
0
LINE
5
121
100
AcDbEntity
8
0
100
AcDbLine
10
-25.399999999999999
20
6.0000000000001794
30
-3.6621094412492283e-05
11
-25.399999999999999
21
1.7927648631074085e-13
31
-3.6621094410271837e-05
0
LINE
5
122
100
AcDbEntity
8
0
100
AcDbLine
10
-25.399999999999999
20
1.7927648631074085e-13
30
-3.6621094410271837e-05
11
-2.6021293836062694e-22
21
1.7927648631074083e-13
31
-3.662109435254024e-05
0
LINE
5
123
100
AcDbEntity
8
0
100
AcDbLine
10
-2.6021293836062694e-22
20
1.7927648631074083e-13
30
-3.662109435254024e-05
11
-2.6021292834209345e-22
21
50.80000000000004
31
-3.6621094368083362e-05
0
LINE
5
124
100
AcDbEntity
8
0
100
AcDbLine
10
-2.6021292834209345e-22
20
50.80000000000004
30
-3.6621094368083362e-05
11
-6.0000000000000009
21
50.80000000000004
31
-3.6621094368083362e-05
0
LINE
5
125
100
AcDbEntity
8
0
100
AcDbLine
10
-6.0000000000000009
20
50.80000000000004
30
-3.6621094368083362e-05
11
-6.0000000000000009
21
76.200000000000102
31
-3.6621094375854923e-05
0
LINE
5
126
100
AcDbEntity
8
0
100
AcDbLine
10
-6.0000000000000009
20
76.200000000000102
30
-3.6621094375854923e-05
11
-2.6021292333282669e-22
21
76.200000000000102
31
-3.6621094375854923e-05
0
LINE
5
127
100
AcDbEntity
8
0
100
AcDbLine
10
-2.6021292333282669e-22
20
76.200000000000102
30
-3.6621094375854923e-05
11
-2.602129133142932e-22
21
127.00000000000004
31
-3.6621094391398046e-05
0
LINE
5
128
100
AcDbEntity
8
0
100
AcDbLine
10
-2.602129133142932e-22
20
127.00000000000004
30
-3.6621094391398046e-05
11
-6.0000000000000009
21
127.00000000000004
31
-3.6621094391398046e-05
0
LINE
5
129
100
AcDbEntity
8
0
100
AcDbLine
10
-6.0000000000000009
20
127.00000000000004
30
-3.6621094391398046e-05
11
-6.0000000000000009
21
152.40000000000003
31
-3.6621094399169607e-05
0
LINE
5
130
100
AcDbEntity
8
0
100
AcDbLine
10
-6.0000000000000009
20
152.40000000000003
30
-3.6621094399169607e-05
11
-2.6021290830502648e-22
21
152.40000000000003
31
-3.6621094399169607e-05
0
LINE
5
131
100
AcDbEntity
8
0
100
AcDbLine
10
-2.6021290830502648e-22
20
152.40000000000003
30
-3.6621094399169607e-05
11
-2.6021289828649299e-22
21
203.19999999999999
31
-3.6621094414712729e-05
0
LINE
5
132
100
AcDbEntity
8
0
100
AcDbLine
10
-2.6021289828649299e-22
20
203.19999999999999
30
-3.6621094414712729e-05
11
-6.0000000000000009
21
203.19999999999999
31
-3.6621094414712729e-05
0
LINE
5
133
100
AcDbEntity
8
0
100
AcDbLine
10
-6.0000000000000009
20
203.19999999999999
30
-3.6621094414712729e-05
11
-6.0000000000000009
21
228.60000000000002
31
-3.662109442248429e-05
0
LINE
5
134
100
AcDbEntity
8
0
100
AcDbLine
10
-6.0000000000000009
20
228.60000000000002
30
-3.662109442248429e-05
11
-2.6021289327722623e-22
21
228.60000000000002
31
-3.662109442248429e-05
0
LINE
5
135
100
AcDbEntity
8
0
100
AcDbLine
10
-2.6021289327722623e-22
20
228.60000000000002
30
-3.662109442248429e-05
11
-2.6021286322162572e-22
21
380.99999999999994
31
-3.6621094469113658e-05
0
LINE
5
136
100
AcDbEntity
8
0
100
AcDbLine
10
-2.6021286322162572e-22
20
380.99999999999994
30
-3.6621094469113658e-05
11
-6.0000000000000009
21
380.99999999999994
31
-3.6621094469113658e-05
0
LINE
5
137
100
AcDbEntity
8
0
100
AcDbLine
10
-6.0000000000000009
20
380.99999999999994
30
-3.6621094469113658e-05
11
-6.0000000000000009
21
431.80000000000007
31
-3.662109448465678e-05
0
LINE
5
138
100
AcDbEntity
8
0
100
AcDbLine
10
-6.0000000000000009
20
431.80000000000007
30
-3.662109448465678e-05
11
-2.6021285320309218e-22
21
431.80000000000007
31
-3.662109448465678e-05
0
LINE
5
139
100
AcDbEntity
8
0
100
AcDbLine
10
-2.6021285320309218e-22
20
431.80000000000007
30
-3.662109448465678e-05
11
-2.6021284819382546e-22
21
457.19999999999993
31
-3.6621094492428341e-05
0
LINE
5
140
100
AcDbEntity
8
0
100
AcDbLine
10
-2.6021284819382546e-22
20
457.19999999999993
30
-3.6621094492428341e-05
11
-6.0000000000000009
21
457.19999999999993
31
-3.6621094492428341e-05
0
LINE
5
141
100
AcDbEntity
8
0
100
AcDbLine
10
-6.0000000000000009
20
457.19999999999993
30
-3.6621094492428341e-05
11
-6.0000000000000009
21
508
31
-3.6621094507971463e-05
0
LINE
5
142
100
AcDbEntity
8
0
100
AcDbLine
10
-6.0000000000000009
20
508
30
-3.6621094507971463e-05
11
-2.6021283817529198e-22
21
508
31
-3.6621094507971463e-05
0
LINE
5
143
100
AcDbEntity
8
0
100
AcDbLine
10
-2.6021283817529198e-22
20
508
30
-3.6621094507971463e-05
11
-2.6021283316602521e-22
21
533.39999999999986
31
-3.6621094515743025e-05
0
LINE
5
144
100
AcDbEntity
8
0
100
AcDbLine
10
-2.6021283316602521e-22
20
533.39999999999986
30
-3.6621094515743025e-05
11
-6.0000000000000009
21
533.39999999999986
31
-3.6621094515743025e-05
0
LINE
5
145
100
AcDbEntity
8
0
100
AcDbLine
10
-6.0000000000000009
20
533.39999999999986
30
-3.6621094515743025e-05
11
-6.0000000000000009
21
584.20000000000005
31
-3.6621094531286147e-05
0
LINE
5
146
100
AcDbEntity
8
0
100
AcDbLine
10
-6.0000000000000009
20
584.20000000000005
30
-3.6621094531286147e-05
11
-2.6021282314749172e-22
21
584.20000000000005
31
-3.6621094531286147e-05
0
LINE
5
147
100
AcDbEntity
8
0
100
AcDbLine
10
-2.6021282314749172e-22
20
584.20000000000005
30
-3.6621094531286147e-05
11
-2.60212818138225e-22
21
609.59999999999968
31
-3.6621094539057708e-05
0
LINE
5
148
100
AcDbEntity
8
0
100
AcDbLine
10
-2.60212818138225e-22
20
609.59999999999968
30
-3.6621094539057708e-05
11
-25.399999999999999
21
609.59999999999968
31
-3.6621094596789305e-05
0
LINE
5
149
100
AcDbEntity
8
0
100
AcDbLine
10
-25.399999999999999
20
609.59999999999968
30
-3.6621094596789305e-05
11
-25.399999999999999
21
603.5999999999998
31
-3.6621094594568859e-05
0
LINE
5
150
100
AcDbEntity
8
0
100
AcDbLine
10
-25.399999999999999
20
603.5999999999998
30
-3.6621094594568859e-05
11
-50.799999999999997
21
603.5999999999998
31
-3.6621094652300457e-05
0
LINE
5
151
100
AcDbEntity
8
0
100
AcDbLine
10
-50.799999999999997
20
603.5999999999998
30
-3.6621094652300457e-05
11
-50.799999999999997
21
609.59999999999968
31
-3.6621094654520903e-05
0
LINE
5
152
100
AcDbEntity
8
0
100
AcDbLine
10
-50.799999999999997
20
609.59999999999968
30
-3.6621094654520903e-05
11
-76.200000000000003
21
609.59999999999968
31
-3.66210947122525e-05
0
LINE
5
153
100
AcDbEntity
8
0
100
AcDbLine
10
-76.200000000000003
20
609.59999999999968
30
-3.66210947122525e-05
11
-76.200000000000003
21
603.5999999999998
31
-3.6621094710032054e-05
0
LINE
5
154
100
AcDbEntity
8
0
100
AcDbLine
10
-76.200000000000003
20
603.5999999999998
30
-3.6621094710032054e-05
11
-101.59999999999999
21
603.5999999999998
31
-3.6621094767763651e-05
0
LINE
5
155
100
AcDbEntity
8
0
100
AcDbLine
10
-101.59999999999999
20
603.5999999999998
30
-3.6621094767763651e-05
11
-101.59999999999999
21
609.59999999999968
31
-3.6621094769984097e-05
0
LINE
5
156
100
AcDbEntity
8
0
100
AcDbLine
10
-101.59999999999999
20
609.59999999999968
30
-3.6621094769984097e-05
11
-127
21
609.59999999999968
31
-3.6621094827715694e-05
0
LINE
5
157
100
AcDbEntity
8
0
100
AcDbLine
10
-127
20
609.59999999999968
30
-3.6621094827715694e-05
11
-127
21
603.5999999999998
31
-3.6621094825495248e-05
0
LINE
5
158
100
AcDbEntity
8
0
100
AcDbLine
10
-127
20
603.5999999999998
30
-3.6621094825495248e-05
11
-152.40000000000001
21
603.5999999999998
31
-3.6621094883226846e-05
0
LINE
5
159
100
AcDbEntity
8
0
100
AcDbLine
10
-152.40000000000001
20
603.5999999999998
30
-3.6621094883226846e-05
11
-152.40000000000001
21
609.59999999999968
31
-3.6621094885447292e-05
0
LINE
5
160
100
AcDbEntity
8
0
100
AcDbLine
10
-152.40000000000001
20
609.59999999999968
30
-3.6621094885447292e-05
11
-177.80000000000001
21
609.59999999999968
31
-3.6621094943178889e-05
0
LINE
5
161
100
AcDbEntity
8
0
100
AcDbLine
10
-177.80000000000001
20
609.59999999999968
30
-3.6621094943178889e-05
11
-177.80000000000001
21
603.5999999999998
31
-3.6621094940958443e-05
0
LINE
5
162
100
AcDbEntity
8
0
100
AcDbLine
10
-177.80000000000001
20
603.5999999999998
30
-3.6621094940958443e-05
11
-203.19999999999999
21
603.5999999999998
31
-3.6621094940958443e-05
0
LINE
5
163
100
AcDbEntity
8
0
100
AcDbLine
10
-203.19999999999999
20
603.5999999999998
30
-3.6621094940958443e-05
11
-203.19999999999999
21
609.59999999999968
31
-3.6621094943178889e-05
0
LINE
5
164
100
AcDbEntity
8
0
100
AcDbLine
10
-203.19999999999999
20
609.59999999999968
30
-3.6621094943178889e-05
11
-228.59999999999999
21
609.59999999999968
31
-3.6621095000910486e-05
0
LINE
5
165
100
AcDbEntity
8
0
100
AcDbLine
10
-228.59999999999999
20
609.59999999999968
30
-3.6621095000910486e-05
11
-228.59999999999999
21
603.5999999999998
31
-3.662109499869004e-05
0
LINE
5
166
100
AcDbEntity
8
0
100
AcDbLine
10
-228.59999999999999
20
603.5999999999998
30
-3.662109499869004e-05
11
-254
21
603.5999999999998
31
-3.662109499869004e-05
0
LINE
5
167
100
AcDbEntity
8
0
100
AcDbLine
10
-254
20
603.5999999999998
30
-3.662109499869004e-05
11
-254
21
609.59999999999968
31
-3.6621095000910486e-05
0
LINE
5
168
100
AcDbEntity
8
0
100
AcDbLine
10
-254
20
609.59999999999968
30
-3.6621095000910486e-05
11
-278.60000000000008
21
609.59999999999968
31
-3.6621095058642084e-05
0
LINE
5
169
100
AcDbEntity
8
0
100
AcDbLine
10
-278.60000000000008
20
609.59999999999968
30
-3.6621095058642084e-05
11
-278.60000000000008
21
508.00000000000006
31
-3.6621094499089679e-05
0
LINE
5
170
100
AcDbEntity
8
0
100
AcDbLine
10
-278.60000000000008
20
508.00000000000006
30
-3.6621094499089679e-05
11
-107.59999999999998
21
508.00000000000006
31
-3.6621094499089679e-05
0
ARC
5
171
100
AcDbEntity
8
0
100
AcDbCircle
10
-107.59999999999999
20
457.20000000000005
30
-3.6621094434696744e-05
40
50.799999999999997
210
-6.5564351847942322e-17
220
0
230
1
100
AcDbArc
50
0
51
89.999999999999986
0
LINE
5
172
100
AcDbEntity
8
0
100
AcDbLine
10
-56.799999999999997
20
457.20000000000005
30
-3.6621094431366075e-05
11
-56.799999999999997
21
152.40000000000006
31
-3.66210943891776e-05
0
ARC
5
173
100
AcDbEntity
8
0
100
AcDbCircle
10
-107.59999999999999
20
152.40000000000006
30
-3.662109434143801e-05
40
50.799999999999997
210
0
220
3.2782175923971159e-16
230
1
100
AcDbArc
50
-90
51
0
0
LINE
5
174
100
AcDbEntity
8
0
100
AcDbLine
10
-107.59999999999999
20
101.60000000000005
30
-3.6621094324784664e-05
11
-278.60000000000008
21
101.60000000000008
31
-3.6621094334776672e-05
0
LINE
5
175
100
AcDbEntity
8
0
100
AcDbLine
10
-278.60000000000008
20
101.60000000000008
30
-3.6621094334776672e-05
11
-278.60000000000008
21
5.9999999999998135
31
-3.6621094354760686e-05
0
ENDSEC
0
SECTION
2
OBJECTS
0
DICTIONARY
5
C
100
AcDbDictionary
3
ACAD_GROUP
350
D
3
ACAD_MLINESTYLE
350
17
0
DICTIONARY
5
D
100
AcDbDictionary
0
DICTIONARY
5
1A
330
C
100
AcDbDictionary
0
DICTIONARY
5
17
100
AcDbDictionary
0
ENDSEC
0
EOF
