0
SECTION
2
HEADER
9
$INSUNITS
70
4
9
$ACADVER
1
AC1014
9
$HANDSEED
5
FFFF
0
ENDSEC
0
SECTION
2
TABLES
0
TABLE
2
VPORT
5
8
100
AcDbSymbolTable
0
ENDTAB
0
TABLE
2
LTYPE
5
5
100
AcDbSymbolTable
0
LTYPE
5
14
100
AcDbSymbolTableRecord
100
AcDbLinetypeTableRecord
2
BYBLOCK
70
0
0
LTYPE
5
15
100
AcDbSymbolTableRecord
100
AcDbLinetypeTableRecord
2
BYLAYER
70
0
0
ENDTAB
0
TABLE
2
LAYER
5
2
100
AcDbSymbolTable
70
2
0
LAYER
5
50
100
AcDbSymbolTableRecord
100
AcDbLayerTableRecord
2
0
70
0
6
CONTINUOUS
0
ENDTAB
0
TABLE
2
STYLE
5
3
100
AcDbSymbolTable
70
1
0
STYLE
5
11
100
AcDbSymbolTableRecord
100
AcDbTextStyleTableRecord
2
STANDARD
70
0
0
ENDTAB
0
TABLE
2
VIEW
5
6
100
AcDbSymbolTable
70
0
0
ENDTAB
0
TABLE
2
UCS
5
7
100
AcDbSymbolTable
70
0
0
ENDTAB
0
TABLE
2
APPID
5
9
100
AcDbSymbolTable
70
2
0
APPID
5
12
100
AcDbSymbolTableRecord
100
AcDbRegAppTableRecord
2
ACAD
70
0
0
ENDTAB
0
TABLE
2
DIMSTYLE
5
A
100
AcDbSymbolTable
70
1
0
ENDTAB
0
TABLE
2
BLOCK_RECORD
5
1
100
AcDbSymbolTable
70
1
0
BLOCK_RECORD
5
1F
100
AcDbSymbolTableRecord
100
AcDbBlockTableRecord
2
*MODEL_SPACE
0
BLOCK_RECORD
5
1B
100
AcDbSymbolTableRecord
100
AcDbBlockTableRecord
2
*PAPER_SPACE
0
ENDTAB
0
ENDSEC
0
SECTION
2
BLOCKS
0
BLOCK
5
20
100
AcDbEntity
100
AcDbBlockBegin
2
*MODEL_SPACE
0
ENDBLK
5
21
100
AcDbEntity
100
AcDbBlockEnd
0
BLOCK
5
1C
100
AcDbEntity
100
AcDbBlockBegin
2
*PAPER_SPACE
0
ENDBLK
5
1D
100
AcDbEntity
100
AcDbBlockEnd
0
ENDSEC
0
SECTION
2
ENTITIES
0
LINE
5
100
100
AcDbEntity
8
0
100
AcDbLine
10
857.59999940835871
20
557.99999999999977
30
-9.8697592489544277e-06
11
857.59999940835871
21
551.99999999999977
31
-9.8697592489544277e-06
0
LINE
5
101
100
AcDbEntity
8
0
100
AcDbLine
10
857.59999940835871
20
551.99999999999977
30
-9.8697592489544277e-06
11
832.19999941882008
21
551.99999999999977
31
-9.5774412881471066e-06
0
LINE
5
102
100
AcDbEntity
8
0
100
AcDbLine
10
832.19999941882008
20
551.99999999999977
30
-9.5774412881471066e-06
11
832.19999941882008
21
557.99999999999966
31
-9.5774412881471066e-06
0
LINE
5
103
100
AcDbEntity
8
0
100
AcDbLine
10
832.19999941882008
20
557.99999999999966
30
-9.5774412881471066e-06
11
781.39999943974317
21
558
31
-8.9928053665324643e-06
0
LINE
5
104
100
AcDbEntity
8
0
100
AcDbLine
10
781.39999943974317
20
558
30
-8.9928053665324643e-06
11
781.39999943974317
21
551.99999999999955
31
-8.9928053665324643e-06
0
LINE
5
105
100
AcDbEntity
8
0
100
AcDbLine
10
781.39999943974317
20
551.99999999999955
30
-8.9928053665324643e-06
11
755.99999945020477
21
551.99999999999943
31
-8.7004874057251431e-06
0
LINE
5
106
100
AcDbEntity
8
0
100
AcDbLine
10
755.99999945020477
20
551.99999999999943
30
-8.7004874057251431e-06
11
755.99999945020477
21
557.99999999999943
31
-8.7004874057251431e-06
0
LINE
5
107
100
AcDbEntity
8
0
100
AcDbLine
10
755.99999945020477
20
557.99999999999943
30
-8.7004874057251431e-06
11
705.19999947112774
21
558
31
-8.1158514841105008e-06
0
LINE
5
108
100
AcDbEntity
8
0
100
AcDbLine
10
705.19999947112774
20
558
30
-8.1158514841105008e-06
11
705.19999947112774
21
551.9999999999992
31
-8.1158514841105008e-06
0
LINE
5
109
100
AcDbEntity
8
0
100
AcDbLine
10
705.19999947112774
20
551.9999999999992
30
-8.1158514841105008e-06
11
679.79999948158934
21
551.99999999999909
31
-7.8235335233031797e-06
0
LINE
5
110
100
AcDbEntity
8
0
100
AcDbLine
10
679.79999948158934
20
551.99999999999909
30
-7.8235335233031797e-06
11
679.79999948158934
21
557.99999999999909
31
-7.8235335233031797e-06
0
LINE
5
111
100
AcDbEntity
8
0
100
AcDbLine
10
679.79999948158934
20
557.99999999999909
30
-7.8235335233031797e-06
11
628.99999950251242
21
558
31
-7.2388976016885373e-06
0
LINE
5
112
100
AcDbEntity
8
0
100
AcDbLine
10
628.99999950251242
20
558
30
-7.2388976016885373e-06
11
628.99999950251242
21
551.99999999999886
31
-7.2388976016885373e-06
0
LINE
5
113
100
AcDbEntity
8
0
100
AcDbLine
10
628.99999950251242
20
551.99999999999886
30
-7.2388976016885373e-06
11
603.59999951297391
21
551.99999999999886
31
-6.946579640881217e-06
0
LINE
5
114
100
AcDbEntity
8
0
100
AcDbLine
10
603.59999951297391
20
551.99999999999886
30
-6.946579640881217e-06
11
603.59999951297391
21
557.99999999999886
31
-6.946579640881217e-06
0
LINE
5
115
100
AcDbEntity
8
0
100
AcDbLine
10
603.59999951297391
20
557.99999999999886
30
-6.946579640881217e-06
11
578.19999952343539
21
558
31
-6.654261680073895e-06
0
LINE
5
116
100
AcDbEntity
8
0
100
AcDbLine
10
578.19999952343539
20
558
30
-6.654261680073895e-06
11
578.19999952343539
21
551.99999999999864
31
-6.654261680073895e-06
0
LINE
5
117
100
AcDbEntity
8
0
100
AcDbLine
10
578.19999952343539
20
551.99999999999864
30
-6.654261680073895e-06
11
552.79999953389699
21
551.99999999999864
31
-6.3619437192665739e-06
0
LINE
5
118
100
AcDbEntity
8
0
100
AcDbLine
10
552.79999953389699
20
551.99999999999864
30
-6.3619437192665739e-06
11
552.79999953389699
21
557.99999999999864
31
-6.3619437192665739e-06
0
LINE
5
119
100
AcDbEntity
8
0
100
AcDbLine
10
552.79999953389699
20
557.99999999999864
30
-6.3619437192665739e-06
11
361.59999961264879
21
558
31
-4.161503006417788e-06
0
LINE
5
120
100
AcDbEntity
8
0
100
AcDbLine
10
361.59999961264879
20
558
30
-4.161503006417788e-06
11
361.59999961264879
21
551.99999999999795
31
-4.161503006417788e-06
0
LINE
5
121
100
AcDbEntity
8
0
100
AcDbLine
10
361.59999961264879
20
551.99999999999795
30
-4.161503006417788e-06
11
336.19999962311033
21
551.99999999999784
31
-3.869185045610466e-06
0
LINE
5
122
100
AcDbEntity
8
0
100
AcDbLine
10
336.19999962311033
20
551.99999999999784
30
-3.869185045610466e-06
11
336.19999962311033
21
557.99999999999784
31
-3.869185045610466e-06
0
LINE
5
123
100
AcDbEntity
8
0
100
AcDbLine
10
336.19999962311033
20
557.99999999999784
30
-3.869185045610466e-06
11
310.79999963357187
21
558
31
-3.5768670848031452e-06
0
LINE
5
124
100
AcDbEntity
8
0
100
AcDbLine
10
310.79999963357187
20
558
30
-3.5768670848031452e-06
11
310.79999963357187
21
551.99999999999773
31
-3.5768670848031452e-06
0
LINE
5
125
100
AcDbEntity
8
0
100
AcDbLine
10
310.79999963357187
20
551.99999999999773
30
-3.5768670848031452e-06
11
285.39999964403336
21
551.99999999999761
31
-3.2845491239958245e-06
0
LINE
5
126
100
AcDbEntity
8
0
100
AcDbLine
10
285.39999964403336
20
551.99999999999761
30
-3.2845491239958245e-06
11
285.39999964403336
21
557.99999999999761
31
-3.2845491239958245e-06
0
LINE
5
127
100
AcDbEntity
8
0
100
AcDbLine
10
285.39999964403336
20
557.99999999999761
30
-3.2845491239958245e-06
11
234.59999966495641
21
558
31
-2.6999132023811818e-06
0
LINE
5
128
100
AcDbEntity
8
0
100
AcDbLine
10
234.59999966495641
20
558
30
-2.6999132023811818e-06
11
234.59999966495641
21
551.99999999999739
31
-2.6999132023811818e-06
0
LINE
5
129
100
AcDbEntity
8
0
100
AcDbLine
10
234.59999966495641
20
551.99999999999739
30
-2.6999132023811818e-06
11
209.19999967541793
21
551.99999999999727
31
-2.407595241573861e-06
0
LINE
5
130
100
AcDbEntity
8
0
100
AcDbLine
10
209.19999967541793
20
551.99999999999727
30
-2.407595241573861e-06
11
209.19999967541793
21
557.99999999999739
31
-2.407595241573861e-06
0
LINE
5
131
100
AcDbEntity
8
0
100
AcDbLine
10
209.19999967541793
20
557.99999999999739
30
-2.407595241573861e-06
11
158.39999969634098
21
558
31
-1.8229593199592185e-06
0
LINE
5
132
100
AcDbEntity
8
0
100
AcDbLine
10
158.39999969634098
20
558
30
-1.8229593199592185e-06
11
158.39999969634101
21
551.99999999999716
31
-1.8229593199592185e-06
0
LINE
5
133
100
AcDbEntity
8
0
100
AcDbLine
10
158.39999969634101
20
551.99999999999716
30
-1.8229593199592185e-06
11
132.99999970680253
21
551.99999999999704
31
-1.5306413591518976e-06
0
LINE
5
134
100
AcDbEntity
8
0
100
AcDbLine
10
132.99999970680253
20
551.99999999999704
30
-1.5306413591518976e-06
11
132.9999997068025
21
557.99999999999704
31
-1.5306413591518972e-06
0
LINE
5
135
100
AcDbEntity
8
0
100
AcDbLine
10
132.9999997068025
20
557.99999999999704
30
-1.5306413591518972e-06
11
82.199999727725555
21
558
31
-9.4600543753725506e-07
0
LINE
5
136
100
AcDbEntity
8
0
100
AcDbLine
10
82.199999727725555
20
558
30
-9.4600543753725506e-07
11
82.199999727725569
21
551.99999999999682
31
-9.4600543753725516e-07
0
LINE
5
137
100
AcDbEntity
8
0
100
AcDbLine
10
82.199999727725569
20
551.99999999999682
30
-9.4600543753725516e-07
11
56.799999738187104
21
551.9999999999967
31
-6.5368747672993411e-07
0
LINE
5
138
100
AcDbEntity
8
0
100
AcDbLine
10
56.799999738187104
20
551.9999999999967
30
-6.5368747672993411e-07
11
56.799999738187083
21
557.9999999999967
31
-6.5368747672993379e-07
0
LINE
5
139
100
AcDbEntity
8
0
100
AcDbLine
10
56.799999738187083
20
557.9999999999967
30
-6.5368747672993379e-07
11
5.9999999975287555
21
558
31
-6.9051571181828044e-08
0
LINE
5
140
100
AcDbEntity
8
0
100
AcDbLine
10
5.9999999975287555
20
558
30
-6.9051571181828044e-08
11
5.999999997527822
21
457.19999999999999
31
-6.9051737715271044e-08
0
LINE
5
141
100
AcDbEntity
8
0
100
AcDbLine
10
5.999999997527822
20
457.19999999999999
30
-6.9051737715271044e-08
11
-8.8030371785351163e-13
21
457.19999999999999
31
-2.5091039286066701e-13
0
LINE
5
142
100
AcDbEntity
8
0
100
AcDbLine
10
-8.8030371785351163e-13
20
457.19999999999999
30
-2.5091039286066701e-13
11
-8.2498333394811815e-13
21
431.80000000000001
31
-2.509103935250758e-13
0
LINE
5
143
100
AcDbEntity
8
0
100
AcDbLine
10
-8.2498333394811815e-13
20
431.80000000000001
30
-2.509103935250758e-13
11
5.9999999975278193
21
431.80000000000001
31
-6.9051737715271044e-08
0
LINE
5
144
100
AcDbEntity
8
0
100
AcDbLine
10
5.9999999975278193
20
431.80000000000001
30
-6.9051737715271044e-08
11
5.999999997527933
21
406.39999999999998
31
-6.9051737715272381e-08
0
LINE
5
145
100
AcDbEntity
8
0
100
AcDbLine
10
5.999999997527933
20
406.39999999999998
30
-6.9051737715272381e-08
11
-7.6966295004272477e-13
21
406.39999999999998
31
-2.5091039418948455e-13
0
LINE
5
146
100
AcDbEntity
8
0
100
AcDbLine
10
-7.6966295004272477e-13
20
406.39999999999998
30
-2.5091039418948455e-13
11
-7.1434256613733108e-13
21
381
31
-2.5091039485389334e-13
0
LINE
5
147
100
AcDbEntity
8
0
100
AcDbLine
10
-7.1434256613733108e-13
20
381
30
-2.5091039485389334e-13
11
5.9999999975279881
21
381
31
-6.9051737715273042e-08
0
LINE
5
148
100
AcDbEntity
8
0
100
AcDbLine
10
5.9999999975279881
20
381
30
-6.9051737715273042e-08
11
5.9999999975279845
21
355.60000000000002
31
-6.9051737715273042e-08
0
LINE
5
149
100
AcDbEntity
8
0
100
AcDbLine
10
5.9999999975279845
20
355.60000000000002
30
-6.9051737715273042e-08
11
-7.1675377741877881e-13
21
355.60000000000002
31
-7.1054264938695946e-14
0
LINE
5
150
100
AcDbEntity
8
0
100
AcDbLine
10
-7.1675377741877881e-13
20
355.60000000000002
30
-7.1054264938695946e-14
11
-6.6143339351338533e-13
21
330.19999999999993
31
-7.1054265603104729e-14
0
LINE
5
151
100
AcDbEntity
8
0
100
AcDbLine
10
-6.6143339351338533e-13
20
330.19999999999993
30
-7.1054265603104729e-14
11
5.9999999975280982
21
330.19999999999993
31
-6.9051737715274366e-08
0
LINE
5
152
100
AcDbEntity
8
0
100
AcDbLine
10
5.9999999975280982
20
330.19999999999993
30
-6.9051737715274366e-08
11
5.9999999975280964
21
304.80000000000001
31
-6.9051737715274366e-08
0
LINE
5
153
100
AcDbEntity
8
0
100
AcDbLine
10
5.9999999975280964
20
304.80000000000001
30
-6.9051737715274366e-08
11
-6.0611300960799185e-13
21
304.80000000000001
31
-7.1054266267513499e-14
0
LINE
5
154
100
AcDbEntity
8
0
100
AcDbLine
10
-6.0611300960799185e-13
20
304.80000000000001
30
-7.1054266267513499e-14
11
-5.5079262570259837e-13
21
279.40000000000003
31
-7.1054266931922269e-14
0
LINE
5
155
100
AcDbEntity
8
0
100
AcDbLine
10
-5.5079262570259837e-13
20
279.40000000000003
30
-7.1054266931922269e-14
11
5.9999999975281515
21
279.40000000000003
31
-6.9051737715275028e-08
0
LINE
5
156
100
AcDbEntity
8
0
100
AcDbLine
10
5.9999999975281515
20
279.40000000000003
30
-6.9051737715275028e-08
11
5.9999999975282652
21
254
31
-6.9051737715276364e-08
0
LINE
5
157
100
AcDbEntity
8
0
100
AcDbLine
10
5.9999999975282652
20
254
30
-6.9051737715276364e-08
11
-4.3774064661036368e-13
21
254
31
-2.5091039817593722e-13
0
LINE
5
158
100
AcDbEntity
8
0
100
AcDbLine
10
-4.3774064661036368e-13
20
254
30
-2.5091039817593722e-13
11
-3.8242026270497025e-13
21
228.59999999999999
31
-2.5091039884034601e-13
0
LINE
5
159
100
AcDbEntity
8
0
100
AcDbLine
10
-3.8242026270497025e-13
20
228.59999999999999
30
-2.5091039884034601e-13
11
5.9999999975282625
21
228.59999999999999
31
-6.9051737715276364e-08
0
LINE
5
160
100
AcDbEntity
8
0
100
AcDbLine
10
5.9999999975282625
20
228.59999999999999
30
-6.9051737715276364e-08
11
5.9999999975283167
21
203.19999999999999
31
-6.9051737715277026e-08
0
LINE
5
161
100
AcDbEntity
8
0
100
AcDbLine
10
5.9999999975283167
20
203.19999999999999
30
-6.9051737715277026e-08
11
-3.8483147398641792e-13
21
203.19999999999999
31
-7.1054268925148591e-14
0
LINE
5
162
100
AcDbEntity
8
0
100
AcDbLine
10
-3.8483147398641792e-13
20
203.19999999999999
30
-7.1054268925148591e-14
11
-3.8724268733775447e-13
21
177.80000000000001
31
-7.1054268925148604e-14
0
LINE
5
163
100
AcDbEntity
8
0
100
AcDbLine
10
-3.8724268733775447e-13
20
177.80000000000001
30
-7.1054268925148604e-14
11
5.9999999975283149
21
177.80000000000001
31
-6.9051737715277026e-08
0
LINE
5
164
100
AcDbEntity
8
0
100
AcDbLine
10
5.9999999975283149
20
177.80000000000001
30
-6.9051737715277026e-08
11
5.99999999752837
21
152.40000000000001
31
-6.9051737715277688e-08
0
LINE
5
165
100
AcDbEntity
8
0
100
AcDbLine
10
5.99999999752837
20
152.40000000000001
30
-6.9051737715277688e-08
11
-3.3192230343236099e-13
21
152.40000000000001
31
-7.1054269589557374e-14
0
LINE
5
166
100
AcDbEntity
8
0
100
AcDbLine
10
-3.3192230343236099e-13
20
152.40000000000001
30
-7.1054269589557374e-14
11
-2.7660191952696746e-13
21
127
31
-7.1054270253966144e-14
0
LINE
5
167
100
AcDbEntity
8
0
100
AcDbLine
10
-2.7660191952696746e-13
20
127
30
-7.1054270253966144e-14
11
5.9999999975284259
21
127
31
-6.9051737715278363e-08
0
LINE
5
168
100
AcDbEntity
8
0
100
AcDbLine
10
5.9999999975284259
20
127
30
-6.9051737715278363e-08
11
5.999999997528481
21
101.59999999999999
31
-6.9051737715279024e-08
0
LINE
5
169
100
AcDbEntity
8
0
100
AcDbLine
10
5.999999997528481
20
101.59999999999999
30
-6.9051737715279024e-08
11
-2.2128153562157398e-13
21
101.59999999999999
31
-7.1054270918374914e-14
0
LINE
5
170
100
AcDbEntity
8
0
100
AcDbLine
10
-2.2128153562157398e-13
20
101.59999999999999
30
-7.1054270918374914e-14
11
-1.6596115171618049e-13
21
76.200000000000003
31
-7.1054271582783696e-14
0
LINE
5
171
100
AcDbEntity
8
0
100
AcDbLine
10
-1.6596115171618049e-13
20
76.200000000000003
30
-7.1054271582783696e-14
11
5.999999997528537
21
76.200000000000003
31
-6.9051737715279686e-08
0
LINE
5
172
100
AcDbEntity
8
0
100
AcDbLine
10
5.999999997528537
20
76.200000000000003
30
-6.9051737715279686e-08
11
5.9999999975285911
21
50.799999999999997
31
-6.9051737715280348e-08
0
LINE
5
173
100
AcDbEntity
8
0
100
AcDbLine
10
5.9999999975285911
20
50.799999999999997
30
-6.9051737715280348e-08
11
-1.1064076781078699e-13
21
50.799999999999997
31
-7.1054272247192479e-14
0
LINE
5
174
100
AcDbEntity
8
0
100
AcDbLine
10
-1.1064076781078699e-13
20
50.799999999999997
30
-7.1054272247192479e-14
11
-5.5320383905393494e-14
21
25.399999999999999
31
-7.1054272911601249e-14
0
LINE
5
175
100
AcDbEntity
8
0
100
AcDbLine
10
-5.5320383905393494e-14
20
25.399999999999999
30
-7.1054272911601249e-14
11
5.9999999975286471
21
25.399999999999999
31
-6.905173771528101e-08
0
LINE
5
176
100
AcDbEntity
8
0
100
AcDbLine
10
5.9999999975286471
20
25.399999999999999
30
-6.905173771528101e-08
11
5.9999999975287022
21
-5.6957795677403088e-16
31
-6.9051737715281671e-08
0
LINE
5
177
100
AcDbEntity
8
0
100
AcDbLine
10
5.9999999975287022
20
-5.6957795677403088e-16
30
-6.9051737715281671e-08
11
56.799999976605662
21
-5.3920046574608839e-15
31
-6.5368739366379049e-07
0
LINE
5
178
100
AcDbEntity
8
0
100
AcDbLine
10
56.799999976605662
20
-5.3920046574608839e-15
30
-6.5368739366379049e-07
11
56.799999976605662
21
5.9999999999999956
31
-6.5368739366379049e-07
0
LINE
5
179
100
AcDbEntity
8
0
100
AcDbLine
10
56.799999976605662
20
5.9999999999999956
30
-6.5368739366379049e-07
11
82.199999966144134
21
5.9999999999999929
31
-9.4600540687993737e-07
0
LINE
5
180
100
AcDbEntity
8
0
100
AcDbLine
10
82.199999966144134
20
5.9999999999999929
30
-9.4600540687993737e-07
11
82.199999966144134
21
-7.80321800780431e-15
31
-9.4600540687993737e-07
0
LINE
5
181
100
AcDbEntity
8
0
100
AcDbLine
10
82.199999966144134
20
-7.80321800780431e-15
30
-9.4600540687993737e-07
11
132.99999994522108
21
-1.2625644708491162e-14
31
-1.5306413444943897e-06
0
LINE
5
182
100
AcDbEntity
8
0
100
AcDbLine
10
132.99999994522108
20
-1.2625644708491162e-14
30
-1.5306413444943897e-06
11
132.99999994522108
21
5.9999999999999885
31
-1.5306413444943897e-06
0
LINE
5
183
100
AcDbEntity
8
0
100
AcDbLine
10
132.99999994522108
20
5.9999999999999885
30
-1.5306413444943897e-06
11
158.39999993475956
21
5.9999999999999858
31
-1.8229593577105366e-06
0
LINE
5
184
100
AcDbEntity
8
0
100
AcDbLine
10
158.39999993475956
20
5.9999999999999858
30
-1.8229593577105366e-06
11
158.39999993475956
21
-1.503685805883459e-14
31
-1.8229593577105366e-06
0
LINE
5
185
100
AcDbEntity
8
0
100
AcDbLine
10
158.39999993475956
20
-1.503685805883459e-14
30
-1.8229593577105366e-06
11
209.19999991383651
21
-1.9859284759521442e-14
31
-2.4075953397339098e-06
0
LINE
5
186
100
AcDbEntity
8
0
100
AcDbLine
10
209.19999991383651
20
-1.9859284759521442e-14
30
-2.4075953397339098e-06
11
209.19999991383651
21
5.9999999999999805
31
-2.4075953397339098e-06
0
LINE
5
187
100
AcDbEntity
8
0
100
AcDbLine
10
209.19999991383651
20
5.9999999999999805
30
-2.4075953397339098e-06
11
234.59999990337502
21
5.9999999999999787
31
-2.6999133529500566e-06
0
LINE
5
188
100
AcDbEntity
8
0
100
AcDbLine
10
234.59999990337502
20
5.9999999999999787
30
-2.6999133529500566e-06
11
234.59999990337502
21
-2.2270498109864868e-14
31
-2.6999133529500566e-06
0
LINE
5
189
100
AcDbEntity
8
0
100
AcDbLine
10
234.59999990337502
20
-2.2270498109864868e-14
30
-2.6999133529500566e-06
11
285.39999988245194
21
-2.709292481055172e-14
31
-3.2845493349734298e-06
0
LINE
5
190
100
AcDbEntity
8
0
100
AcDbLine
10
285.39999988245194
20
-2.709292481055172e-14
30
-3.2845493349734298e-06
11
285.39999988245194
21
5.9999999999999742
31
-3.2845493349734298e-06
0
LINE
5
191
100
AcDbEntity
8
0
100
AcDbLine
10
285.39999988245194
20
5.9999999999999742
30
-3.2845493349734298e-06
11
310.79999987199039
21
5.9999999999999707
31
-3.5768673037806553e-06
0
LINE
5
192
100
AcDbEntity
8
0
100
AcDbLine
10
310.79999987199039
20
5.9999999999999707
30
-3.5768673037806553e-06
11
310.79999987199039
21
-2.9504138160895149e-14
31
-3.5768673037806553e-06
0
LINE
5
193
100
AcDbEntity
8
0
100
AcDbLine
10
310.79999987199039
20
-2.9504138160895149e-14
30
-3.5768673037806553e-06
11
336.19999986152891
21
-3.1915351511238572e-14
31
-3.8691852725878816e-06
0
LINE
5
194
100
AcDbEntity
8
0
100
AcDbLine
10
336.19999986152891
20
-3.1915351511238572e-14
30
-3.8691852725878816e-06
11
336.19999986152891
21
5.9999999999999689
31
-3.8691852725878816e-06
0
LINE
5
195
100
AcDbEntity
8
0
100
AcDbLine
10
336.19999986152891
20
5.9999999999999689
30
-3.8691852725878816e-06
11
361.59999985106737
21
5.9999999999999662
31
-4.1615032858040289e-06
0
LINE
5
196
100
AcDbEntity
8
0
100
AcDbLine
10
361.59999985106737
20
5.9999999999999662
30
-4.1615032858040289e-06
11
361.59999985106737
21
-3.4326564861582001e-14
31
-4.1615032858040289e-06
0
LINE
5
197
100
AcDbEntity
8
0
100
AcDbLine
10
361.59999985106737
20
-3.4326564861582001e-14
30
-4.1615032858040289e-06
11
552.79999977231557
21
-5.2477115750781128e-14
31
-6.3619440284319894e-06
0
LINE
5
198
100
AcDbEntity
8
0
100
AcDbLine
10
552.79999977231557
20
-5.2477115750781128e-14
30
-6.3619440284319894e-06
11
552.79999977231557
21
5.9999999999999485
31
-6.3619440284319894e-06
0
LINE
5
199
100
AcDbEntity
8
0
100
AcDbLine
10
552.79999977231557
20
5.9999999999999485
30
-6.3619440284319894e-06
11
578.19999976185397
21
5.9999999999999467
31
-6.6542619448303887e-06
0
LINE
5
200
100
AcDbEntity
8
0
100
AcDbLine
10
578.19999976185397
20
5.9999999999999467
30
-6.6542619448303887e-06
11
578.19999976185397
21
-5.4888329101124557e-14
31
-6.6542619448303887e-06
0
LINE
5
201
100
AcDbEntity
8
0
100
AcDbLine
10
578.19999976185397
20
-5.4888329101124557e-14
30
-6.6542619448303887e-06
11
603.59999975139249
21
-5.7299542451467986e-14
31
-6.9465799056377099e-06
0
LINE
5
202
100
AcDbEntity
8
0
100
AcDbLine
10
603.59999975139249
20
-5.7299542451467986e-14
30
-6.9465799056377099e-06
11
603.59999975139249
21
5.9999999999999432
31
-6.9465799056377099e-06
0
LINE
5
203
100
AcDbEntity
8
0
100
AcDbLine
10
603.59999975139249
20
5.9999999999999432
30
-6.9465799056377099e-06
11
628.999999740931
21
5.9999999999999414
31
-7.2388978664450319e-06
0
LINE
5
204
100
AcDbEntity
8
0
100
AcDbLine
10
628.999999740931
20
5.9999999999999414
30
-7.2388978664450319e-06
11
628.999999740931
21
-5.9710755801811415e-14
31
-7.2388978664450319e-06
0
LINE
5
205
100
AcDbEntity
8
0
100
AcDbLine
10
628.999999740931
20
-5.9710755801811415e-14
30
-7.2388978664450319e-06
11
679.79999972000792
21
-6.4533182502498261e-14
31
-7.8235337436507524e-06
0
LINE
5
206
100
AcDbEntity
8
0
100
AcDbLine
10
679.79999972000792
20
-6.4533182502498261e-14
30
-7.8235337436507524e-06
11
679.79999972000792
21
5.9999999999999361
31
-7.8235337436507524e-06
0
LINE
5
207
100
AcDbEntity
8
0
100
AcDbLine
10
679.79999972000792
20
5.9999999999999361
30
-7.8235337436507524e-06
11
705.19999970954643
21
5.9999999999999343
31
-8.1158516600491525e-06
0
LINE
5
208
100
AcDbEntity
8
0
100
AcDbLine
10
705.19999970954643
20
5.9999999999999343
30
-8.1158516600491525e-06
11
705.19999970954643
21
-6.694439585284169e-14
31
-8.1158516600491525e-06
0
LINE
5
209
100
AcDbEntity
8
0
100
AcDbLine
10
705.19999970954643
20
-6.694439585284169e-14
30
-8.1158516600491525e-06
11
755.99999968862335
21
-7.1766822553528536e-14
31
-8.7004875372548756e-06
0
LINE
5
210
100
AcDbEntity
8
0
100
AcDbLine
10
755.99999968862335
20
-7.1766822553528536e-14
30
-8.7004875372548756e-06
11
755.99999968862335
21
5.9999999999999289
31
-8.7004875372548756e-06
0
LINE
5
211
100
AcDbEntity
8
0
100
AcDbLine
10
755.99999968862335
20
5.9999999999999289
30
-8.7004875372548756e-06
11
781.39999967816175
21
5.9999999999999263
31
-8.9928054536532757e-06
0
LINE
5
212
100
AcDbEntity
8
0
100
AcDbLine
10
781.39999967816175
20
5.9999999999999263
30
-8.9928054536532757e-06
11
781.39999967816175
21
-7.4178035903871978e-14
31
-8.9928054536532757e-06
0
LINE
5
213
100
AcDbEntity
8
0
100
AcDbLine
10
781.39999967816175
20
-7.4178035903871978e-14
30
-8.9928054536532757e-06
11
832.19999965723878
21
-7.9000462604558824e-14
31
-9.5774413752679164e-06
0
LINE
5
214
100
AcDbEntity
8
0
100
AcDbLine
10
832.19999965723878
20
-7.9000462604558824e-14
30
-9.5774413752679164e-06
11
832.19999965723878
21
5.9999999999999218
31
-9.5774413752679164e-06
0
LINE
5
215
100
AcDbEntity
8
0
100
AcDbLine
10
832.19999965723878
20
5.9999999999999218
30
-9.5774413752679164e-06
11
857.59999964677729
21
5.9999999999999201
31
-9.8697592916663182e-06
0
LINE
5
216
100
AcDbEntity
8
0
100
AcDbLine
10
857.59999964677729
20
5.9999999999999201
30
-9.8697592916663182e-06
11
857.59999964677729
21
-8.141167595490224e-14
31
-9.8697592916663182e-06
0
LINE
5
217
100
AcDbEntity
8
0
100
AcDbLine
10
857.59999964677729
20
-8.141167595490224e-14
30
-9.8697592916663182e-06
11
908.39999962585421
21
-8.6234102655589111e-14
31
-1.0454395159990255e-05
0
LINE
5
218
100
AcDbEntity
8
0
100
AcDbLine
10
908.39999962585421
20
-8.6234102655589111e-14
30
-1.0454395159990255e-05
11
908.39999962585421
21
25.399999999999917
31
-1.0454395159990255e-05
0
LINE
5
219
100
AcDbEntity
8
0
100
AcDbLine
10
908.39999962585421
20
25.399999999999917
30
-1.0454395159990255e-05
11
914.39999962338288
21
25.399999999999913
31
-1.0523446826651262e-05
0
LINE
5
220
100
AcDbEntity
8
0
100
AcDbLine
10
914.39999962338288
20
25.399999999999913
30
-1.0523446826651262e-05
11
914.39999962338277
21
50.799999999999912
31
-1.052344682665126e-05
0
LINE
5
221
100
AcDbEntity
8
0
100
AcDbLine
10
914.39999962338277
20
50.799999999999912
30
-1.052344682665126e-05
11
908.39999962585409
21
50.799999999999912
31
-1.0454395159990252e-05
0
LINE
5
222
100
AcDbEntity
8
0
100
AcDbLine
10
908.39999962585409
20
50.799999999999912
30
-1.0454395159990252e-05
11
908.39999962585409
21
76.199999999999918
31
-1.0454395159990252e-05
0
LINE
5
223
100
AcDbEntity
8
0
100
AcDbLine
10
908.39999962585409
20
76.199999999999918
30
-1.0454395159990252e-05
11
914.39999962338277
21
76.199999999999918
31
-1.052344682665126e-05
0
LINE
5
224
100
AcDbEntity
8
0
100
AcDbLine
10
914.39999962338277
20
76.199999999999918
30
-1.052344682665126e-05
11
914.39999962338266
21
101.59999999999991
31
-1.052344682665126e-05
0
LINE
5
225
100
AcDbEntity
8
0
100
AcDbLine
10
914.39999962338266
20
101.59999999999991
30
-1.052344682665126e-05
11
908.39999962585398
21
101.59999999999991
31
-1.045439515999025e-05
0
LINE
5
226
100
AcDbEntity
8
0
100
AcDbLine
10
908.39999962585398
20
101.59999999999991
30
-1.045439515999025e-05
11
908.39999962585398
21
126.9999999999999
31
-1.045439515999025e-05
0
LINE
5
227
100
AcDbEntity
8
0
100
AcDbLine
10
908.39999962585398
20
126.9999999999999
30
-1.045439515999025e-05
11
914.39999962338266
21
126.9999999999999
31
-1.052344682665126e-05
0
LINE
5
228
100
AcDbEntity
8
0
100
AcDbLine
10
914.39999962338266
20
126.9999999999999
30
-1.052344682665126e-05
11
914.39999962338266
21
152.39999999999992
31
-1.052344682665126e-05
0
LINE
5
229
100
AcDbEntity
8
0
100
AcDbLine
10
914.39999962338266
20
152.39999999999992
30
-1.052344682665126e-05
11
908.39999962585398
21
152.39999999999992
31
-1.045439515999025e-05
0
LINE
5
230
100
AcDbEntity
8
0
100
AcDbLine
10
908.39999962585398
20
152.39999999999992
30
-1.045439515999025e-05
11
908.39999962585375
21
177.79999999999995
31
-1.045439515999025e-05
0
LINE
5
231
100
AcDbEntity
8
0
100
AcDbLine
10
908.39999962585375
20
177.79999999999995
30
-1.045439515999025e-05
11
914.39999962338243
21
177.79999999999995
31
-1.0523446826651258e-05
0
LINE
5
232
100
AcDbEntity
8
0
100
AcDbLine
10
914.39999962338243
20
177.79999999999995
30
-1.0523446826651258e-05
11
914.39999962338243
21
203.19999999999993
31
-1.0523446826651258e-05
0
LINE
5
233
100
AcDbEntity
8
0
100
AcDbLine
10
914.39999962338243
20
203.19999999999993
30
-1.0523446826651258e-05
11
908.39999962585375
21
203.19999999999993
31
-1.045439515999025e-05
0
LINE
5
234
100
AcDbEntity
8
0
100
AcDbLine
10
908.39999962585375
20
203.19999999999993
30
-1.045439515999025e-05
11
908.39999962585375
21
228.59999999999991
31
-1.045439533984638e-05
0
LINE
5
235
100
AcDbEntity
8
0
100
AcDbLine
10
908.39999962585375
20
228.59999999999991
30
-1.045439533984638e-05
11
914.39999962338243
21
228.59999999999991
31
-1.0523446826651258e-05
0
LINE
5
236
100
AcDbEntity
8
0
100
AcDbLine
10
914.39999962338243
20
228.59999999999991
30
-1.0523446826651258e-05
11
914.39999962338243
21
253.99999999999991
31
-1.0523446826651258e-05
0
LINE
5
237
100
AcDbEntity
8
0
100
AcDbLine
10
914.39999962338243
20
253.99999999999991
30
-1.0523446826651258e-05
11
908.39999962585375
21
253.99999999999991
31
-1.045439533984638e-05
0
LINE
5
238
100
AcDbEntity
8
0
100
AcDbLine
10
908.39999962585375
20
253.99999999999991
30
-1.045439533984638e-05
11
908.39999962585364
21
279.39999999999992
31
-1.0454395159990249e-05
0
LINE
5
239
100
AcDbEntity
8
0
100
AcDbLine
10
908.39999962585364
20
279.39999999999992
30
-1.0454395159990249e-05
11
914.39999962338231
21
279.39999999999992
31
-1.0523446826651255e-05
0
LINE
5
240
100
AcDbEntity
8
0
100
AcDbLine
10
914.39999962338231
20
279.39999999999992
30
-1.0523446826651255e-05
11
914.39999962338231
21
304.79999999999995
31
-1.0523446826651255e-05
0
LINE
5
241
100
AcDbEntity
8
0
100
AcDbLine
10
914.39999962338231
20
304.79999999999995
30
-1.0523446826651255e-05
11
908.39999962585364
21
304.79999999999995
31
-1.0454395159990249e-05
0
LINE
5
242
100
AcDbEntity
8
0
100
AcDbLine
10
908.39999962585364
20
304.79999999999995
30
-1.0454395159990249e-05
11
908.39999962585352
21
330.19999999999987
31
-1.0454395159990245e-05
0
LINE
5
243
100
AcDbEntity
8
0
100
AcDbLine
10
908.39999962585352
20
330.19999999999987
30
-1.0454395159990245e-05
11
914.39999962338231
21
330.19999999999987
31
-1.0523446826651255e-05
0
LINE
5
244
100
AcDbEntity
8
0
100
AcDbLine
10
914.39999962338231
20
330.19999999999987
30
-1.0523446826651255e-05
11
914.3999996233822
21
355.59999999999997
31
-1.0523446826651253e-05
0
LINE
5
245
100
AcDbEntity
8
0
100
AcDbLine
10
914.3999996233822
20
355.59999999999997
30
-1.0523446826651253e-05
11
908.39999962585352
21
355.59999999999997
31
-1.0454395159990245e-05
0
LINE
5
246
100
AcDbEntity
8
0
100
AcDbLine
10
908.39999962585352
20
355.59999999999997
30
-1.0454395159990245e-05
11
908.39999962585352
21
380.99999999999994
31
-1.0454395339846375e-05
0
LINE
5
247
100
AcDbEntity
8
0
100
AcDbLine
10
908.39999962585352
20
380.99999999999994
30
-1.0454395339846375e-05
11
914.3999996233822
21
380.99999999999994
31
-1.0523446826651253e-05
0
LINE
5
248
100
AcDbEntity
8
0
100
AcDbLine
10
914.3999996233822
20
380.99999999999994
30
-1.0523446826651253e-05
11
914.39999962338209
21
406.39999999999992
31
-1.0523446826651252e-05
0
LINE
5
249
100
AcDbEntity
8
0
100
AcDbLine
10
914.39999962338209
20
406.39999999999992
30
-1.0523446826651252e-05
11
908.39999962585341
21
406.39999999999992
31
-1.0454395339846373e-05
0
LINE
5
250
100
AcDbEntity
8
0
100
AcDbLine
10
908.39999962585341
20
406.39999999999992
30
-1.0454395339846373e-05
11
908.39999962585341
21
431.79999999999995
31
-1.0454395339846373e-05
0
LINE
5
251
100
AcDbEntity
8
0
100
AcDbLine
10
908.39999962585341
20
431.79999999999995
30
-1.0454395339846373e-05
11
914.39999962338209
21
431.79999999999995
31
-1.0523446826651252e-05
0
LINE
5
252
100
AcDbEntity
8
0
100
AcDbLine
10
914.39999962338209
20
431.79999999999995
30
-1.0523446826651252e-05
11
914.39999962338209
21
457.19999999999993
31
-1.0523446826651252e-05
0
LINE
5
253
100
AcDbEntity
8
0
100
AcDbLine
10
914.39999962338209
20
457.19999999999993
30
-1.0523446826651252e-05
11
908.39999962585341
21
457.19999999999993
31
-1.0454395339846373e-05
0
LINE
5
254
100
AcDbEntity
8
0
100
AcDbLine
10
908.39999962585341
20
457.19999999999993
30
-1.0454395339846373e-05
11
908.39999962585421
21
558
31
-1.0454395173312932e-05
0
LINE
5
255
100
AcDbEntity
8
0
100
AcDbLine
10
908.39999962585421
20
558
30
-1.0454395173312932e-05
11
857.59999940835871
21
557.99999999999977
31
-9.8697592489544277e-06
0
LWPOLYLINE
5
256
100
AcDbEntity
8
0
100
AcDbPolyline
90
6
70
1
43
0.0
10
85.935098212188393
20
449.1895126170246
10
85.935098212188393
20
453.28869952827091
10
89.485098210726221
20
455.33829298389406
10
93.035098209264049
20
453.28869952827091
10
93.035098209264049
20
449.1895126170246
10
89.485098210726221
20
447.13991916140145
0
LWPOLYLINE
5
257
100
AcDbEntity
8
0
100
AcDbPolyline
90
6
70
1
43
0.0
10
142.0928256342541
20
397.13097208307533
10
137.99363872469615
20
397.13097208307533
10
135.94404526991715
20
400.68097208307529
10
137.99363872469615
20
404.23097208307524
10
142.0928256342541
20
404.23097208307524
10
144.14241908903307
20
400.68097208307529
0
LWPOLYLINE
5
258
100
AcDbEntity
8
0
100
AcDbPolyline
90
6
70
1
43
0.0
10
178.04310378227339
20
485.13991671332053
10
174.49310378373553
20
487.18951016894368
10
174.49310378373553
20
491.28869708018999
10
178.04310378227339
20
493.33829053581314
10
181.59310378081119
20
491.28869708018999
10
181.59310378081119
20
487.18951016894368
0
LWPOLYLINE
5
259
100
AcDbEntity
8
0
100
AcDbPolyline
90
6
70
1
43
0.0
10
173.944042806185
20
413.23923445419837
10
175.99363626096394
20
416.78923445419832
10
180.09282317052194
20
416.78923445419832
10
182.14241662530088
20
413.23923445419837
10
180.09282317052194
20
409.68923445419841
10
175.99363626096394
20
409.68923445419841
0
LWPOLYLINE
5
260
100
AcDbEntity
8
0
100
AcDbPolyline
90
6
70
1
43
0.0
10
190.60136614822403
20
447.13991916140145
10
187.05136614968623
20
449.1895126170246
10
187.05136614968623
20
453.28869952827091
10
190.60136614822403
20
455.33829298389406
10
194.15136614676186
20
453.28869952827091
10
194.15136614676186
20
449.1895126170246
0
LWPOLYLINE
5
261
100
AcDbEntity
8
0
100
AcDbPolyline
90
6
70
1
43
0.0
10
137.99363872469615
20
498.24724006222027
10
135.94404526991718
20
501.79724006222023
10
137.99363872469615
20
505.34724006222018
10
142.0928256342541
20
505.34724006222018
10
144.1424190890331
20
501.79724006222023
10
142.0928256342541
20
498.24724006222027
0
LWPOLYLINE
5
262
100
AcDbEntity
8
0
100
AcDbPolyline
90
6
70
1
43
0.0
10
102.0433605766769
20
417.33829543197498
10
105.59336057521472
20
415.28870197635183
10
105.59336057521472
20
411.18951506510552
10
102.0433605766769
20
409.13992160948237
10
98.493360578139075
20
411.18951506510552
10
98.493360578139075
20
415.28870197635183
0
LWPOLYLINE
5
263
100
AcDbEntity
8
0
100
AcDbPolyline
90
6
70
1
43
0.0
10
104.09282809798628
20
492.7889776910971
10
106.14242155276527
20
489.23897769109715
10
104.09282809798628
20
485.68897769109719
10
99.993641188428327
20
485.68897769109719
10
97.944047733649342
20
489.23897769109715
10
99.993641188428327
20
492.7889776910971
0
CIRCLE
5
264
100
AcDbEntity
8
0
100
AcDbCircle
10
140.04323217947524
20
451.23910607264781
30
-7.1054276487685775e-14
40
35
210
1.1508581138886553e-08
220
-7.7099505967619064e-24
230
1
0
ENDSEC
0
SECTION
2
OBJECTS
0
DICTIONARY
5
C
100
AcDbDictionary
3
ACAD_GROUP
350
D
3
ACAD_MLINESTYLE
350
17
0
DICTIONARY
5
D
100
AcDbDictionary
0
DICTIONARY
5
1A
330
C
100
AcDbDictionary
0
DICTIONARY
5
17
100
AcDbDictionary
0
ENDSEC
0
EOF
