0
SECTION
2
HEADER
9
$INSUNITS
70
4
9
$ACADVER
1
AC1014
9
$HANDSEED
5
FFFF
0
ENDSEC
0
SECTION
2
TABLES
0
TABLE
2
VPORT
5
8
100
AcDbSymbolTable
0
ENDTAB
0
TABLE
2
LTYPE
5
5
100
AcDbSymbolTable
0
LTYPE
5
14
100
AcDbSymbolTableRecord
100
AcDbLinetypeTableRecord
2
BYBLOCK
70
0
0
LTYPE
5
15
100
AcDbSymbolTableRecord
100
AcDbLinetypeTableRecord
2
BYLAYER
70
0
0
ENDTAB
0
TABLE
2
LAYER
5
2
100
AcDbSymbolTable
70
2
0
LAYER
5
50
100
AcDbSymbolTableRecord
100
AcDbLayerTableRecord
2
0
70
0
6
CONTINUOUS
0
ENDTAB
0
TABLE
2
STYLE
5
3
100
AcDbSymbolTable
70
1
0
STYLE
5
11
100
AcDbSymbolTableRecord
100
AcDbTextStyleTableRecord
2
STANDARD
70
0
0
ENDTAB
0
TABLE
2
VIEW
5
6
100
AcDbSymbolTable
70
0
0
ENDTAB
0
TABLE
2
UCS
5
7
100
AcDbSymbolTable
70
0
0
ENDTAB
0
TABLE
2
APPID
5
9
100
AcDbSymbolTable
70
2
0
APPID
5
12
100
AcDbSymbolTableRecord
100
AcDbRegAppTableRecord
2
ACAD
70
0
0
ENDTAB
0
TABLE
2
DIMSTYLE
5
A
100
AcDbSymbolTable
70
1
0
ENDTAB
0
TABLE
2
BLOCK_RECORD
5
1
100
AcDbSymbolTable
70
1
0
BLOCK_RECORD
5
1F
100
AcDbSymbolTableRecord
100
AcDbBlockTableRecord
2
*MODEL_SPACE
0
BLOCK_RECORD
5
1B
100
AcDbSymbolTableRecord
100
AcDbBlockTableRecord
2
*PAPER_SPACE
0
ENDTAB
0
ENDSEC
0
SECTION
2
BLOCKS
0
BLOCK
5
20
100
AcDbEntity
100
AcDbBlockBegin
2
*MODEL_SPACE
0
ENDBLK
5
21
100
AcDbEntity
100
AcDbBlockEnd
0
BLOCK
5
1C
100
AcDbEntity
100
AcDbBlockBegin
2
*PAPER_SPACE
0
ENDBLK
5
1D
100
AcDbEntity
100
AcDbBlockEnd
0
ENDSEC
0
SECTION
2
ENTITIES
0
LWPOLYLINE
5
100
100
AcDbEntity
8
0
100
AcDbPolyline
90
6
70
1
43
0.0
10
-47.620535265840473
20
422.07109928414786
10
-45.311134189081976
20
418.07109928414786
10
-47.620535265840466
20
414.07109928414792
10
-52.239337419357454
20
414.07109928414792
10
-54.548738496115952
20
418.07109928414786
10
-52.239337419357462
20
422.07109928414786
0
LWPOLYLINE
5
101
100
AcDbEntity
8
0
100
AcDbPolyline
90
6
70
1
43
0.0
10
-47.620535265840331
20
392.09909928414788
10
-45.311134189081834
20
388.09909928414788
10
-47.620535265840324
20
384.09909928414788
10
-52.239337419357312
20
384.09909928414788
10
-54.54873849611581
20
388.09909928414788
10
-52.239337419357319
20
392.09909928414788
0
LWPOLYLINE
5
102
100
AcDbEntity
8
0
100
AcDbPolyline
90
44
70
1
43
0.0
10
-86.941634172878537
20
304.80000000000001
10
-5.9999999999993037
20
304.80000000000001
10
-5.9999999999993081
20
330.19999999999993
10
6.9277916736609778e-13
20
330.19999999999993
10
7.5051076464660592e-13
20
355.60000000000002
10
-5.9999999999991926
20
355.60000000000002
10
-5.9999999999991926
20
381
10
7.5051076464660592e-13
20
381
10
8.0824236192711406e-13
20
406.39999999999998
10
-5.9999999999991349
20
406.39999999999998
10
-5.9999999999990195
20
431.80000000000001
10
8.659739592076222e-13
20
431.80000000000001
10
9.2370555648813044e-13
20
457.19999999999999
10
-5.9999999999990195
20
457.19999999999999
10
-5.9999999999999432
20
558
10
-56.799999761581716
20
558
10
-56.799999761581731
20
551.9999999999967
10
-82.199999761581793
20
551.99999999999682
10
-82.199999761581765
20
557.99999999999682
10
-132.9999997615819
20
558
10
-132.99999976158193
20
551.99999999999704
10
-158.399999761582
20
551.99999999999716
10
-158.39999976158194
20
557.99999999999716
10
-209.19999976158209
20
558
10
-209.19999976158209
20
551.99999999999727
10
-234.59999976158215
20
551.99999999999739
10
-234.59999976158215
20
557.99999999999739
10
-285.39999976158231
20
558
10
-285.39999976158231
20
551.99999999999761
10
-310.79999976158234
20
551.99999999999773
10
-310.79999976158234
20
557.99999999999773
10
-336.19999976158238
20
558
10
-336.19999976158238
20
551.99999999999784
10
-361.59999976158247
20
551.99999999999795
10
-361.59999976158247
20
557.99999999999795
10
-552.79999976158103
20
558
10
-552.79999976158115
20
551.99999999999864
10
-578.19999976158101
20
551.99999999999875
10
-578.19999976158101
20
557.99999999999875
10
-603.5999997615811
20
558
10
-603.59999976158122
20
551.99999999999886
10
-609.59999999999991
20
551.99999999999898
10
-609.59999999999991
20
506.23109928414874
10
-86.941634172878537
20
506.23109928414874
0
ENDSEC
0
SECTION
2
OBJECTS
0
DICTIONARY
5
C
100
AcDbDictionary
3
ACAD_GROUP
350
D
3
ACAD_MLINESTYLE
350
17
0
DICTIONARY
5
D
100
AcDbDictionary
0
DICTIONARY
5
1A
330
C
100
AcDbDictionary
0
DICTIONARY
5
17
100
AcDbDictionary
0
ENDSEC
0
EOF
