0
SECTION
2
HEADER
9
$INSUNITS
70
4
9
$ACADVER
1
AC1014
9
$HANDSEED
5
FFFF
0
ENDSEC
0
SECTION
2
TABLES
0
TABLE
2
VPORT
5
8
100
AcDbSymbolTable
0
ENDTAB
0
TABLE
2
LTYPE
5
5
100
AcDbSymbolTable
0
LTYPE
5
14
100
AcDbSymbolTableRecord
100
AcDbLinetypeTableRecord
2
BYBLOCK
70
0
0
LTYPE
5
15
100
AcDbSymbolTableRecord
100
AcDbLinetypeTableRecord
2
BYLAYER
70
0
0
ENDTAB
0
TABLE
2
LAYER
5
2
100
AcDbSymbolTable
70
2
0
LAYER
5
50
100
AcDbSymbolTableRecord
100
AcDbLayerTableRecord
2
0
70
0
6
CONTINUOUS
0
ENDTAB
0
TABLE
2
STYLE
5
3
100
AcDbSymbolTable
70
1
0
STYLE
5
11
100
AcDbSymbolTableRecord
100
AcDbTextStyleTableRecord
2
STANDARD
70
0
0
ENDTAB
0
TABLE
2
VIEW
5
6
100
AcDbSymbolTable
70
0
0
ENDTAB
0
TABLE
2
UCS
5
7
100
AcDbSymbolTable
70
0
0
ENDTAB
0
TABLE
2
APPID
5
9
100
AcDbSymbolTable
70
2
0
APPID
5
12
100
AcDbSymbolTableRecord
100
AcDbRegAppTableRecord
2
ACAD
70
0
0
ENDTAB
0
TABLE
2
DIMSTYLE
5
A
100
AcDbSymbolTable
70
1
0
ENDTAB
0
TABLE
2
BLOCK_RECORD
5
1
100
AcDbSymbolTable
70
1
0
BLOCK_RECORD
5
1F
100
AcDbSymbolTableRecord
100
AcDbBlockTableRecord
2
*MODEL_SPACE
0
BLOCK_RECORD
5
1B
100
AcDbSymbolTableRecord
100
AcDbBlockTableRecord
2
*PAPER_SPACE
0
ENDTAB
0
ENDSEC
0
SECTION
2
BLOCKS
0
BLOCK
5
20
100
AcDbEntity
100
AcDbBlockBegin
2
*MODEL_SPACE
0
ENDBLK
5
21
100
AcDbEntity
100
AcDbBlockEnd
0
BLOCK
5
1C
100
AcDbEntity
100
AcDbBlockBegin
2
*PAPER_SPACE
0
ENDBLK
5
1D
100
AcDbEntity
100
AcDbBlockEnd
0
ENDSEC
0
SECTION
2
ENTITIES
0
LWPOLYLINE
5
100
100
AcDbEntity
8
0
100
AcDbPolyline
90
69
70
1
43
0.0
10
-609.60000000000002
20
6.0000000000000009
10
-609.60000000000002
20
551.99999999999898
10
-628.99999976158074
20
551.99999999999898
10
-628.99999976158074
20
557.99999999999898
10
-679.79999976158081
20
558
10
-679.79999976158081
20
551.9999999999992
10
-705.1999997615809
20
551.99999999999932
10
-705.1999997615809
20
557.99999999999932
10
-755.99999976158097
20
558
10
-755.99999976158097
20
551.99999999999943
10
-781.39999976158106
20
551.99999999999955
10
-781.39999976158106
20
557.99999999999966
10
-832.19999976158124
20
558
10
-832.19999976158135
20
551.99999999999977
10
-857.59999976158133
20
551.99999999999989
10
-857.59999976158133
20
557.99999999999989
10
-908.40000000000009
20
558
10
-908.40000000000009
20
502
10
-908.39999999999918
20
457.19999999999999
10
-914.39999999999918
20
457.19999999999999
10
-914.39999999999918
20
431.80000000000001
10
-908.39999999999918
20
431.80000000000001
10
-908.39999999999918
20
406.39999999999998
10
-914.39999999999918
20
406.39999999999998
10
-914.3999999999993
20
381
10
-908.3999999999993
20
381
10
-908.3999999999993
20
355.60000000000002
10
-914.3999999999993
20
355.60000000000002
10
-914.39999999999941
20
330.19999999999993
10
-908.3999999999993
20
330.19999999999993
10
-908.39999999999941
20
304.80000000000001
10
-914.39999999999941
20
304.80000000000001
10
-914.39999999999941
20
278.59997024536142
10
-908.39999999999941
20
278.59997024536142
10
-908.39999999999964
20
254
10
-914.39999999999952
20
254
10
-914.39999999999952
20
228.59999999999999
10
-908.39999999999964
20
228.59999999999999
10
-908.39999999999964
20
203.19999999999999
10
-914.39999999999952
20
203.19999999999999
10
-914.39999999999952
20
177.80000000000001
10
-908.39999999999964
20
177.80000000000001
10
-908.39999999999975
20
152.40000000000001
10
-914.39999999999964
20
152.40000000000001
10
-914.39999999999964
20
127
10
-908.39999999999975
20
127
10
-908.39999999999975
20
101.59999999999999
10
-914.39999999999964
20
101.59999999999999
10
-914.39999999999986
20
76.200000000000003
10
-908.39999999999986
20
76.200000000000003
10
-908.39999999999986
20
50.799999999999997
10
-914.39999999999986
20
50.799999999999997
10
-914.39999999999998
20
25.399999999999999
10
-908.40000000000009
20
25.399999999999999
10
-908.40000000000009
20
1.0608422727113329e-28
10
-857.59999999999991
20
1.0009658811123112e-28
10
-857.59999999999991
20
6.0000000000000009
10
-832.19999999999982
20
6.0000000000000009
10
-832.19999999999982
20
9.7102768531280036e-29
10
-781.39999999999975
20
9.1115129371377855e-29
10
-781.39999999999975
20
6.0000000000000009
10
-755.99999999999966
20
6.0000000000000009
10
-755.99999999999966
20
8.8121309791426775e-29
10
-705.19999999999959
20
8.2133670631524628e-29
10
-705.19999999999959
20
6.0000000000000009
10
-679.7999999999995
20
6.0000000000000009
10
-679.7999999999995
20
7.9139851051573504e-29
10
-628.99999999999932
20
7.3152211891671356e-29
10
-628.99999999999932
20
6.0000000000000009
0
ENDSEC
0
SECTION
2
OBJECTS
0
DICTIONARY
5
C
100
AcDbDictionary
3
ACAD_GROUP
350
D
3
ACAD_MLINESTYLE
350
17
0
DICTIONARY
5
D
100
AcDbDictionary
0
DICTIONARY
5
1A
330
C
100
AcDbDictionary
0
DICTIONARY
5
17
100
AcDbDictionary
0
ENDSEC
0
EOF
