0
SECTION
2
HEADER
9
$INSUNITS
70
4
9
$ACADVER
1
AC1014
9
$HANDSEED
5
FFFF
0
ENDSEC
0
SECTION
2
TABLES
0
TABLE
2
VPORT
5
8
100
AcDbSymbolTable
0
ENDTAB
0
TABLE
2
LTYPE
5
5
100
AcDbSymbolTable
0
LTYPE
5
14
100
AcDbSymbolTableRecord
100
AcDbLinetypeTableRecord
2
BYBLOCK
70
0
0
LTYPE
5
15
100
AcDbSymbolTableRecord
100
AcDbLinetypeTableRecord
2
BYLAYER
70
0
0
ENDTAB
0
TABLE
2
LAYER
5
2
100
AcDbSymbolTable
70
2
0
LAYER
5
50
100
AcDbSymbolTableRecord
100
AcDbLayerTableRecord
2
0
70
0
6
CONTINUOUS
0
ENDTAB
0
TABLE
2
STYLE
5
3
100
AcDbSymbolTable
70
1
0
STYLE
5
11
100
AcDbSymbolTableRecord
100
AcDbTextStyleTableRecord
2
STANDARD
70
0
0
ENDTAB
0
TABLE
2
VIEW
5
6
100
AcDbSymbolTable
70
0
0
ENDTAB
0
TABLE
2
UCS
5
7
100
AcDbSymbolTable
70
0
0
ENDTAB
0
TABLE
2
APPID
5
9
100
AcDbSymbolTable
70
2
0
APPID
5
12
100
AcDbSymbolTableRecord
100
AcDbRegAppTableRecord
2
ACAD
70
0
0
ENDTAB
0
TABLE
2
DIMSTYLE
5
A
100
AcDbSymbolTable
70
1
0
ENDTAB
0
TABLE
2
BLOCK_RECORD
5
1
100
AcDbSymbolTable
70
1
0
BLOCK_RECORD
5
1F
100
AcDbSymbolTableRecord
100
AcDbBlockTableRecord
2
*MODEL_SPACE
0
BLOCK_RECORD
5
1B
100
AcDbSymbolTableRecord
100
AcDbBlockTableRecord
2
*PAPER_SPACE
0
ENDTAB
0
ENDSEC
0
SECTION
2
BLOCKS
0
BLOCK
5
20
100
AcDbEntity
100
AcDbBlockBegin
2
*MODEL_SPACE
0
ENDBLK
5
21
100
AcDbEntity
100
AcDbBlockEnd
0
BLOCK
5
1C
100
AcDbEntity
100
AcDbBlockBegin
2
*PAPER_SPACE
0
ENDBLK
5
1D
100
AcDbEntity
100
AcDbBlockEnd
0
ENDSEC
0
SECTION
2
ENTITIES
0
LWPOLYLINE
5
100
100
AcDbEntity
8
0
100
AcDbPolyline
90
72
70
1
43
0.0
10
-609.59999999999991
20
506.23109928414874
10
-609.59999999999991
20
551.99999999999898
10
-628.99999976158119
20
551.99999999999898
10
-628.99999976158119
20
557.99999999999898
10
-679.79999976158126
20
558
10
-679.79999976158126
20
551.9999999999992
10
-705.19999976158147
20
551.99999999999932
10
-705.19999976158147
20
557.99999999999932
10
-755.99999976158142
20
558
10
-755.99999976158142
20
551.99999999999943
10
-781.39999976158151
20
551.99999999999955
10
-781.39999976158151
20
557.99999999999966
10
-832.19999976158169
20
558
10
-832.19999976158169
20
551.99999999999977
10
-857.59999976158167
20
551.99999999999989
10
-857.59999976158167
20
557.99999999999989
10
-908.40000000000009
20
558
10
-908.39999999999918
20
457.19999999999999
10
-914.39999999999918
20
457.19999999999999
10
-914.39999999999918
20
431.80000000000001
10
-908.39999999999918
20
431.80000000000001
10
-908.39999999999918
20
406.39999999999998
10
-914.39999999999918
20
406.39999999999998
10
-914.3999999999993
20
381
10
-908.3999999999993
20
381
10
-908.3999999999993
20
355.60000000000002
10
-914.3999999999993
20
355.60000000000002
10
-914.39999999999941
20
330.19999999999993
10
-908.3999999999993
20
330.19999999999993
10
-908.39999999999941
20
304.80000000000001
10
-914.39999999999941
20
304.80000000000001
10
-914.39999999999941
20
278.59999465942388
10
-908.39999999999941
20
278.59999465942388
10
-908.39999999999964
20
254
10
-914.39999999999952
20
254
10
-914.39999999999952
20
228.59999999999999
10
-908.39999999999964
20
228.59999999999999
10
-908.39999999999964
20
203.19999999999999
10
-914.39999999999952
20
203.19999999999999
10
-914.39999999999952
20
177.80000000000001
10
-908.39999999999964
20
177.80000000000001
10
-908.39999999999975
20
152.40000000000001
10
-914.39999999999964
20
152.40000000000001
10
-914.39999999999964
20
127
10
-908.39999999999975
20
127
10
-908.39999999999975
20
101.59999999999999
10
-914.39999999999964
20
101.59999999999999
10
-914.39999999999986
20
76.200000000000003
10
-908.39999999999986
20
76.200000000000003
10
-908.39999999999986
20
50.799999999999997
10
-914.39999999999986
20
50.799999999999997
10
-914.39999999999998
20
25.399999999999999
10
-908.40000000000009
20
25.399999999999999
10
-908.40000000000009
20
6.0000000000000142
10
-883
20
6.0000000000000142
10
-883
20
1.3322676295501856e-14
10
-857.59999999999991
20
1.3322676295501853e-14
10
-857.59999999999991
20
6.0000000000000142
10
-832.19999999999982
20
6.0000000000000142
10
-832.19999999999982
20
1.332267629550185e-14
10
-806.79999999999973
20
1.3322676295501847e-14
10
-806.79999999999973
20
6.0000000000000142
10
-781.39999999999975
20
6.0000000000000142
10
-781.39999999999975
20
1.3322676295501845e-14
10
-755.99999999999966
20
1.3322676295501841e-14
10
-755.99999999999966
20
6.0000000000000142
10
-730.59999999999957
20
6.0000000000000142
10
-730.59999999999957
20
1.3322676295501839e-14
10
-705.19999999999959
20
1.3322676295501834e-14
10
-705.19999999999959
20
6.0000000000000142
10
-673.28021621155938
20
6.0000011090999372
10
-673.28021621155938
20
506.23109928414874
0
LWPOLYLINE
5
101
100
AcDbEntity
8
0
100
AcDbPolyline
90
6
70
1
43
0.0
10
-708.16653526584491
20
122.07109928414198
10
-705.85713418908642
20
118.07109928414199
10
-708.16653526584491
20
114.07109928414201
10
-712.78533741936189
20
114.07109928414201
10
-715.09473849612039
20
118.07109928414198
10
-712.78533741936189
20
122.07109928414197
0
LWPOLYLINE
5
102
100
AcDbEntity
8
0
100
AcDbPolyline
90
6
70
1
43
0.0
10
-708.16653526584616
20
422.07109928414479
10
-705.85713418908767
20
418.07109928414485
10
-708.16653526584616
20
414.07109928414485
10
-712.78533741936315
20
414.07109928414485
10
-715.09473849612164
20
418.07109928414485
10
-712.78533741936315
20
422.07109928414479
0
LWPOLYLINE
5
103
100
AcDbEntity
8
0
100
AcDbPolyline
90
6
70
1
43
0.0
10
-708.16653526584469
20
92.099099284141985
10
-705.85713418908631
20
88.099099284142
10
-708.16653526584469
20
84.099099284142014
10
-712.78533741936167
20
84.099099284142014
10
-715.09473849612027
20
88.099099284141985
10
-712.78533741936167
20
92.099099284141971
0
LWPOLYLINE
5
104
100
AcDbEntity
8
0
100
AcDbPolyline
90
6
70
1
43
0.0
10
-708.16653526584605
20
392.09909928414481
10
-705.85713418908756
20
388.09909928414481
10
-708.16653526584605
20
384.09909928414487
10
-712.78533741936303
20
384.09909928414487
10
-715.09473849612152
20
388.09909928414481
10
-712.78533741936303
20
392.09909928414481
0
ENDSEC
0
SECTION
2
OBJECTS
0
DICTIONARY
5
C
100
AcDbDictionary
3
ACAD_GROUP
350
D
3
ACAD_MLINESTYLE
350
17
0
DICTIONARY
5
D
100
AcDbDictionary
0
DICTIONARY
5
1A
330
C
100
AcDbDictionary
0
DICTIONARY
5
17
100
AcDbDictionary
0
ENDSEC
0
EOF
