0
SECTION
2
HEADER
9
$INSUNITS
70
4
9
$ACADVER
1
AC1014
9
$HANDSEED
5
FFFF
0
ENDSEC
0
SECTION
2
TABLES
0
TABLE
2
VPORT
5
8
100
AcDbSymbolTable
0
ENDTAB
0
TABLE
2
LTYPE
5
5
100
AcDbSymbolTable
0
LTYPE
5
14
100
AcDbSymbolTableRecord
100
AcDbLinetypeTableRecord
2
BYBLOCK
70
0
0
LTYPE
5
15
100
AcDbSymbolTableRecord
100
AcDbLinetypeTableRecord
2
BYLAYER
70
0
0
ENDTAB
0
TABLE
2
LAYER
5
2
100
AcDbSymbolTable
70
2
0
LAYER
5
50
100
AcDbSymbolTableRecord
100
AcDbLayerTableRecord
2
0
70
0
6
CONTINUOUS
0
ENDTAB
0
TABLE
2
STYLE
5
3
100
AcDbSymbolTable
70
1
0
STYLE
5
11
100
AcDbSymbolTableRecord
100
AcDbTextStyleTableRecord
2
STANDARD
70
0
0
ENDTAB
0
TABLE
2
VIEW
5
6
100
AcDbSymbolTable
70
0
0
ENDTAB
0
TABLE
2
UCS
5
7
100
AcDbSymbolTable
70
0
0
ENDTAB
0
TABLE
2
APPID
5
9
100
AcDbSymbolTable
70
2
0
APPID
5
12
100
AcDbSymbolTableRecord
100
AcDbRegAppTableRecord
2
ACAD
70
0
0
ENDTAB
0
TABLE
2
DIMSTYLE
5
A
100
AcDbSymbolTable
70
1
0
ENDTAB
0
TABLE
2
BLOCK_RECORD
5
1
100
AcDbSymbolTable
70
1
0
BLOCK_RECORD
5
1F
100
AcDbSymbolTableRecord
100
AcDbBlockTableRecord
2
*MODEL_SPACE
0
BLOCK_RECORD
5
1B
100
AcDbSymbolTableRecord
100
AcDbBlockTableRecord
2
*PAPER_SPACE
0
ENDTAB
0
ENDSEC
0
SECTION
2
BLOCKS
0
BLOCK
5
20
100
AcDbEntity
100
AcDbBlockBegin
2
*MODEL_SPACE
0
ENDBLK
5
21
100
AcDbEntity
100
AcDbBlockEnd
0
BLOCK
5
1C
100
AcDbEntity
100
AcDbBlockBegin
2
*PAPER_SPACE
0
ENDBLK
5
1D
100
AcDbEntity
100
AcDbBlockEnd
0
ENDSEC
0
SECTION
2
ENTITIES
0
LWPOLYLINE
5
100
100
AcDbEntity
8
0
100
AcDbPolyline
90
32
70
1
43
0.0
10
6.3504757008558964e-13
20
304.80000000000001
10
-86.941634172878537
20
304.80000000000001
10
-86.941634172878508
20
6.000001109099955
10
-69.541634172878503
20
6.0000011090999372
10
-69.541634172878503
20
1.109099936336122e-06
10
-44.141634172878511
20
1.109099936336122e-06
10
-44.141634172878511
20
6.0000011090999372
10
-18.741634172878506
20
6.0000011090999372
10
-18.741634172878506
20
1.109099936336122e-06
10
-5.9999999999999147
20
1.3322676295501752e-14
10
-5.9999999999998854
20
25.399999999999999
10
5.7731597280508178e-14
20
25.399999999999999
10
1.1546319456101633e-13
20
50.799999999999997
10
-5.9999999999998277
20
50.799999999999997
10
-5.99999999999977
20
76.200000000000003
10
1.7319479184152445e-13
20
76.200000000000003
10
2.3092638912203261e-13
20
101.59999999999999
10
-5.9999999999997122
20
101.59999999999999
10
-5.9999999999996545
20
127
10
2.8865798640254075e-13
20
127
10
3.4638958368304889e-13
20
152.40000000000001
10
-5.9999999999995968
20
152.40000000000001
10
-5.999999999999539
20
177.80000000000001
10
4.0412118096355703e-13
20
177.80000000000001
10
4.0412118096355703e-13
20
203.19999999999999
10
-5.999999999999539
20
203.19999999999999
10
-5.9999999999994813
20
228.59999999999999
10
4.0412118096355703e-13
20
228.59999999999999
10
4.6185277824406522e-13
20
254
10
-5.9999999999994813
20
254
10
-5.9999999999993658
20
279.40000000000003
10
5.773159728050815e-13
20
279.40000000000003
0
LWPOLYLINE
5
101
100
AcDbEntity
8
0
100
AcDbPolyline
90
6
70
1
43
0.0
10
-47.620535265839038
20
92.099099284145012
10
-45.311134189080526
20
88.099099284144998
10
-47.620535265839038
20
84.099099284144998
10
-52.23933741935604
20
84.099099284144998
10
-54.548738496114552
20
88.099099284144998
10
-52.239337419356048
20
92.099099284145012
0
LWPOLYLINE
5
102
100
AcDbEntity
8
0
100
AcDbPolyline
90
6
70
1
43
0.0
10
-47.62053526583918
20
122.07109928414499
10
-45.311134189080668
20
118.07109928414499
10
-47.62053526583918
20
114.07109928414499
10
-52.239337419356183
20
114.07109928414499
10
-54.548738496114694
20
118.07109928414499
10
-52.23933741935619
20
122.07109928414499
0
ENDSEC
0
SECTION
2
OBJECTS
0
DICTIONARY
5
C
100
AcDbDictionary
3
ACAD_GROUP
350
D
3
ACAD_MLINESTYLE
350
17
0
DICTIONARY
5
D
100
AcDbDictionary
0
DICTIONARY
5
1A
330
C
100
AcDbDictionary
0
DICTIONARY
5
17
100
AcDbDictionary
0
ENDSEC
0
EOF
