0
SECTION
2
HEADER
9
$INSUNITS
70
4
9
$ACADVER
1
AC1014
9
$HANDSEED
5
FFFF
0
ENDSEC
0
SECTION
2
TABLES
0
TABLE
2
VPORT
5
8
100
AcDbSymbolTable
0
ENDTAB
0
TABLE
2
LTYPE
5
5
100
AcDbSymbolTable
0
LTYPE
5
14
100
AcDbSymbolTableRecord
100
AcDbLinetypeTableRecord
2
BYBLOCK
70
0
0
LTYPE
5
15
100
AcDbSymbolTableRecord
100
AcDbLinetypeTableRecord
2
BYLAYER
70
0
0
ENDTAB
0
TABLE
2
LAYER
5
2
100
AcDbSymbolTable
70
2
0
LAYER
5
50
100
AcDbSymbolTableRecord
100
AcDbLayerTableRecord
2
0
70
0
6
CONTINUOUS
0
ENDTAB
0
TABLE
2
STYLE
5
3
100
AcDbSymbolTable
70
1
0
STYLE
5
11
100
AcDbSymbolTableRecord
100
AcDbTextStyleTableRecord
2
STANDARD
70
0
0
ENDTAB
0
TABLE
2
VIEW
5
6
100
AcDbSymbolTable
70
0
0
ENDTAB
0
TABLE
2
UCS
5
7
100
AcDbSymbolTable
70
0
0
ENDTAB
0
TABLE
2
APPID
5
9
100
AcDbSymbolTable
70
2
0
APPID
5
12
100
AcDbSymbolTableRecord
100
AcDbRegAppTableRecord
2
ACAD
70
0
0
ENDTAB
0
TABLE
2
DIMSTYLE
5
A
100
AcDbSymbolTable
70
1
0
ENDTAB
0
TABLE
2
BLOCK_RECORD
5
1
100
AcDbSymbolTable
70
1
0
BLOCK_RECORD
5
1F
100
AcDbSymbolTableRecord
100
AcDbBlockTableRecord
2
*MODEL_SPACE
0
BLOCK_RECORD
5
1B
100
AcDbSymbolTableRecord
100
AcDbBlockTableRecord
2
*PAPER_SPACE
0
ENDTAB
0
ENDSEC
0
SECTION
2
BLOCKS
0
BLOCK
5
20
100
AcDbEntity
100
AcDbBlockBegin
2
*MODEL_SPACE
0
ENDBLK
5
21
100
AcDbEntity
100
AcDbBlockEnd
0
BLOCK
5
1C
100
AcDbEntity
100
AcDbBlockBegin
2
*PAPER_SPACE
0
ENDBLK
5
1D
100
AcDbEntity
100
AcDbBlockEnd
0
ENDSEC
0
SECTION
2
ENTITIES
0
LWPOLYLINE
5
100
100
AcDbEntity
8
0
100
AcDbPolyline
90
56
70
1
43
0.0
10
-6.1035157008060288e-06
20
304.80002441406504
10
-609.60000610351506
20
304.80002441406504
10
-609.60000610351506
20
285.40002441406585
10
-603.60000610351517
20
285.40002441406585
10
-603.60000610351517
20
234.60002441406573
10
-609.60000610351517
20
234.60002441406573
10
-609.60000610351528
20
209.20002441406567
10
-603.60000610351528
20
209.20002441406567
10
-603.60000610351528
20
158.40002441406554
10
-609.60000610351528
20
158.40002441406554
10
-609.6000061035154
20
133.00002441406548
10
-603.6000061035154
20
133.00002441406548
10
-603.6000061035154
20
82.200024414065354
10
-609.6000061035154
20
82.200024414065354
10
-609.6000061035154
20
56.800024414065291
10
-603.6000061035154
20
56.800024414065291
10
-603.60000610351551
20
6.000024414065166
10
-584.20000610351576
20
6.000024414065166
10
-584.20000610351576
20
2.4414065222799763e-05
10
-533.40000610351558
20
2.4414065222799763e-05
10
-533.40000610351558
20
6.000024414065166
10
-508.0000061035156
20
6.000024414065166
10
-508.0000061035156
20
2.4414065222799763e-05
10
-457.20000610351553
20
2.4414065080691216e-05
10
-457.20000610351553
20
6.0000244140650238
10
-431.80000610351567
20
6.0000244140650238
10
-431.80000610351567
20
2.4414065080691216e-05
10
-381.0000061035156
20
2.4414065080691216e-05
10
-381.0000061035156
20
6.0000244140650238
10
-228.60000610351562
20
6.0000244140648817
10
-228.60000610351562
20
2.4414064938582669e-05
10
-203.20000610351559
20
2.4414064938582669e-05
10
-203.20000610351559
20
6.0000244140648817
10
-152.40000610351564
20
6.0000244140648817
10
-152.40000610351564
20
2.4414064938582669e-05
10
-127.00000610351566
20
2.4414064938582669e-05
10
-127.00000610351566
20
6.0000244140648817
10
-76.20000610351569
20
6.0000244140647396
10
-76.20000610351569
20
2.4414064796474122e-05
10
-50.800006103515628
20
2.4414064796474122e-05
10
-50.800006103515628
20
6.0000244140647396
10
-6.0000061035156138
20
6.0000244140647396
10
-6.0000061035156724
20
56.800024414064865
10
-6.1035156267541531e-06
20
56.800024414064865
10
-6.1035156560057549e-06
20
82.200024414064927
10
-6.0000061035156573
20
82.200024414064927
10
-6.0000061035156715
20
133.00002441406505
10
-6.1035156256911148e-06
20
133.00002441406505
10
-6.1035156549427167e-06
20
158.40002441406511
10
-6.0000061035157
20
158.40002441406511
10
-6.0000061035156707
20
209.20002441406524
10
-6.1035156690369976e-06
20
209.20002441406524
10
-6.1035156982885986e-06
20
234.6000244140653
10
-6.0000061035157435
20
234.6000244140653
10
-6.0000061035157142
20
285.40002441406546
10
-6.1035157123828796e-06
20
285.40002441406546
0
ENDSEC
0
SECTION
2
OBJECTS
0
DICTIONARY
5
C
100
AcDbDictionary
3
ACAD_GROUP
350
D
3
ACAD_MLINESTYLE
350
17
0
DICTIONARY
5
D
100
AcDbDictionary
0
DICTIONARY
5
1A
330
C
100
AcDbDictionary
0
DICTIONARY
5
17
100
AcDbDictionary
0
ENDSEC
0
EOF
