0
SECTION
2
HEADER
9
$INSUNITS
70
4
9
$ACADVER
1
AC1014
9
$HANDSEED
5
FFFF
0
ENDSEC
0
SECTION
2
TABLES
0
TABLE
2
VPORT
5
8
100
AcDbSymbolTable
0
ENDTAB
0
TABLE
2
LTYPE
5
5
100
AcDbSymbolTable
0
LTYPE
5
14
100
AcDbSymbolTableRecord
100
AcDbLinetypeTableRecord
2
BYBLOCK
70
0
0
LTYPE
5
15
100
AcDbSymbolTableRecord
100
AcDbLinetypeTableRecord
2
BYLAYER
70
0
0
ENDTAB
0
TABLE
2
LAYER
5
2
100
AcDbSymbolTable
70
2
0
LAYER
5
50
100
AcDbSymbolTableRecord
100
AcDbLayerTableRecord
2
0
70
0
6
CONTINUOUS
0
ENDTAB
0
TABLE
2
STYLE
5
3
100
AcDbSymbolTable
70
1
0
STYLE
5
11
100
AcDbSymbolTableRecord
100
AcDbTextStyleTableRecord
2
STANDARD
70
0
0
ENDTAB
0
TABLE
2
VIEW
5
6
100
AcDbSymbolTable
70
0
0
ENDTAB
0
TABLE
2
UCS
5
7
100
AcDbSymbolTable
70
0
0
ENDTAB
0
TABLE
2
APPID
5
9
100
AcDbSymbolTable
70
2
0
APPID
5
12
100
AcDbSymbolTableRecord
100
AcDbRegAppTableRecord
2
ACAD
70
0
0
ENDTAB
0
TABLE
2
DIMSTYLE
5
A
100
AcDbSymbolTable
70
1
0
ENDTAB
0
TABLE
2
BLOCK_RECORD
5
1
100
AcDbSymbolTable
70
1
0
BLOCK_RECORD
5
1F
100
AcDbSymbolTableRecord
100
AcDbBlockTableRecord
2
*MODEL_SPACE
0
BLOCK_RECORD
5
1B
100
AcDbSymbolTableRecord
100
AcDbBlockTableRecord
2
*PAPER_SPACE
0
ENDTAB
0
ENDSEC
0
SECTION
2
BLOCKS
0
BLOCK
5
20
100
AcDbEntity
100
AcDbBlockBegin
2
*MODEL_SPACE
0
ENDBLK
5
21
100
AcDbEntity
100
AcDbBlockEnd
0
BLOCK
5
1C
100
AcDbEntity
100
AcDbBlockBegin
2
*PAPER_SPACE
0
ENDBLK
5
1D
100
AcDbEntity
100
AcDbBlockEnd
0
ENDSEC
0
SECTION
2
ENTITIES
0
LWPOLYLINE
5
100
100
AcDbEntity
8
0
100
AcDbPolyline
90
6
70
1
43
0.0
10
-47.62052823059571
20
392.09909928414788
10
-45.311127154788402
20
388.09909928414788
10
-47.620528230595696
20
384.09909928414788
10
-52.239330382210326
20
384.09909928414788
10
-54.548731458017656
20
388.09909928414788
10
-52.239330382210341
20
392.09909928414788
0
LWPOLYLINE
5
101
100
AcDbEntity
8
0
100
AcDbPolyline
90
6
70
1
43
0.0
10
-47.620528230594381
20
92.099099284145012
10
-45.311127154787059
20
88.099099284144998
10
-47.620528230594381
20
84.099099284144998
10
-52.239330382209026
20
84.099099284144998
10
-54.548731458016356
20
88.099099284144998
10
-52.239330382209033
20
92.099099284145012
0
LWPOLYLINE
5
102
100
AcDbEntity
8
0
100
AcDbPolyline
90
6
70
1
43
0.0
10
-47.620528230595852
20
422.07109928414786
10
-45.311127154788544
20
418.07109928414786
10
-47.620528230595845
20
414.07109928414792
10
-52.239330382210476
20
414.07109928414792
10
-54.548731458017798
20
418.07109928414786
10
-52.239330382210483
20
422.07109928414786
0
LWPOLYLINE
5
103
100
AcDbEntity
8
0
100
AcDbPolyline
90
6
70
1
43
0.0
10
-47.62052823059453
20
122.07109928414499
10
-45.311127154787208
20
118.07109928414499
10
-47.62052823059453
20
114.07109928414499
10
-52.239330382209175
20
114.07109928414499
10
-54.548731458016505
20
118.07109928414499
10
-52.239330382209189
20
122.07109928414499
0
LWPOLYLINE
5
104
100
AcDbEntity
8
0
100
AcDbPolyline
90
6
70
1
43
0.0
10
-708.16652795854009
20
392.09909928414476
10
-705.8571268827327
20
388.09909928414476
10
-708.16652795854009
20
384.09909928414481
10
-712.78533011015475
20
384.09909928414481
10
-715.09473118596202
20
388.09909928414476
10
-712.78533011015475
20
392.09909928414476
0
LWPOLYLINE
5
105
100
AcDbEntity
8
0
100
AcDbPolyline
90
6
70
1
43
0.0
10
-708.16652795853884
20
92.099099284141914
10
-705.85712688273145
20
88.099099284141928
10
-708.16652795853884
20
84.099099284141943
10
-712.78533011015338
20
84.099099284141943
10
-715.09473118596077
20
88.099099284141914
10
-712.78533011015338
20
92.0990992841419
0
LWPOLYLINE
5
106
100
AcDbEntity
8
0
100
AcDbPolyline
90
6
70
1
43
0.0
10
-708.1665279585402
20
422.07109928414474
10
-705.85712688273293
20
418.07109928414479
10
-708.1665279585402
20
414.07109928414479
10
-712.78533011015486
20
414.07109928414479
10
-715.09473118596225
20
418.07109928414479
10
-712.78533011015486
20
422.07109928414474
0
LWPOLYLINE
5
107
100
AcDbEntity
8
0
100
AcDbPolyline
90
6
70
1
43
0.0
10
-708.16652795853895
20
122.07109928414191
10
-705.85712688273156
20
118.07109928414192
10
-708.16652795853895
20
114.07109928414194
10
-712.78533011015361
20
114.07109928414194
10
-715.09473118596088
20
118.07109928414191
10
-712.78533011015361
20
122.07109928414189
0
LINE
5
108
100
AcDbEntity
8
0
100
AcDbLine
10
-673.28020891862229
20
506.23109928414868
30
7.4974223451818034e-06
11
-86.941627121438614
21
506.23109928414874
31
7.4949717543404404e-07
0
LINE
5
109
100
AcDbEntity
8
0
100
AcDbLine
10
-86.941627121438614
20
506.23109928414874
30
7.4949717543404404e-07
11
-86.941627121438515
21
6.000001109099947
31
7.4949717543404404e-07
0
LINE
5
110
100
AcDbEntity
8
0
100
AcDbLine
10
-86.941627121438515
20
6.000001109099947
30
7.4949717543404404e-07
11
-69.541627128605128
21
6.0000011090999301
31
5.492479004942652e-07
0
LINE
5
111
100
AcDbEntity
8
0
100
AcDbLine
10
-69.541627128605128
20
6.0000011090999301
30
5.492479004942652e-07
11
-69.541627128605128
21
1.109099929734563e-06
31
5.492479004942652e-07
0
LINE
5
112
100
AcDbEntity
8
0
100
AcDbLine
10
-69.541627128605128
20
1.109099929734563e-06
30
5.492479004942652e-07
11
-44.141627139066713
21
1.1090999321457763e-06
31
2.5692990845982422e-07
0
LINE
5
113
100
AcDbEntity
8
0
100
AcDbLine
10
-44.141627139066713
20
1.1090999321457763e-06
30
2.5692990845982422e-07
11
-44.141627139066713
21
6.0000011090999328
31
2.5692990845982422e-07
0
LINE
5
114
100
AcDbEntity
8
0
100
AcDbLine
10
-44.141627139066713
20
6.0000011090999328
30
2.5692990845982422e-07
11
-18.741627149528306
21
6.0000011090999354
31
-3.5388012520343182e-08
0
LINE
5
115
100
AcDbEntity
8
0
100
AcDbLine
10
-18.741627149528306
20
6.0000011090999354
30
-3.5388012520343182e-08
11
-18.741627149528306
21
1.1090999345569899e-06
31
-3.5388012520343182e-08
0
LINE
5
116
100
AcDbEntity
8
0
100
AcDbLine
10
-18.741627149528306
20
1.1090999345569899e-06
30
-3.5388012520343182e-08
11
-5.9999929818976518
21
1.2753103038713752e-14
31
-1.8202619855856028e-07
0
LINE
5
117
100
AcDbEntity
8
0
100
AcDbLine
10
-5.9999929818976518
20
1.2753103038713752e-14
30
-1.8202619855856028e-07
11
-5.9999929818976252
21
25.399999999999999
31
-1.8202648277565459e-07
0
LINE
5
118
100
AcDbEntity
8
0
100
AcDbLine
10
-5.9999929818976252
20
25.399999999999999
30
-1.8202648277565459e-07
11
7.0156310767708574e-06
21
25.399999999999999
31
-2.5107773637955688e-07
0
LINE
5
119
100
AcDbEntity
8
0
100
AcDbLine
10
7.0156310767708574e-06
20
25.399999999999999
30
-2.5107773637955688e-07
11
7.0156311320912416e-06
21
50.799999999999997
31
-2.5107773637955688e-07
0
LINE
5
120
100
AcDbEntity
8
0
100
AcDbLine
10
7.0156311320912416e-06
20
50.799999999999997
30
-2.5107773637955688e-07
11
-5.9999929818975692
21
50.799999999999997
31
-1.8202648277565459e-07
0
LINE
5
121
100
AcDbEntity
8
0
100
AcDbLine
10
-5.9999929818975692
20
50.799999999999997
30
-1.8202648277565459e-07
11
-5.9999929818975151
21
76.200000000000003
31
-1.8202648277565459e-07
0
LINE
5
122
100
AcDbEntity
8
0
100
AcDbLine
10
-5.9999929818975151
20
76.200000000000003
30
-1.8202648277565459e-07
11
7.0156311874116258e-06
21
76.200000000000003
31
-2.5107773637955688e-07
0
LINE
5
123
100
AcDbEntity
8
0
100
AcDbLine
10
7.0156311874116258e-06
20
76.200000000000003
30
-2.5107773637955688e-07
11
7.0156312427320099e-06
21
101.59999999999999
31
-2.5107773637955688e-07
0
LINE
5
124
100
AcDbEntity
8
0
100
AcDbLine
10
7.0156312427320099e-06
20
101.59999999999999
30
-2.5107773637955688e-07
11
-5.99999298189746
21
101.59999999999999
31
-1.8202648277565459e-07
0
LINE
5
125
100
AcDbEntity
8
0
100
AcDbLine
10
-5.99999298189746
20
101.59999999999999
30
-1.8202648277565459e-07
11
-5.999992981897404
21
127
31
-1.8202648277565459e-07
0
LINE
5
126
100
AcDbEntity
8
0
100
AcDbLine
10
-5.999992981897404
20
127
30
-1.8202648277565459e-07
11
7.0156312980523933e-06
21
127
31
-2.5107773637955688e-07
0
LINE
5
127
100
AcDbEntity
8
0
100
AcDbLine
10
7.0156312980523933e-06
20
127
30
-2.5107773637955688e-07
11
7.0156313533727766e-06
21
152.40000000000001
31
-2.5107773637955688e-07
0
LINE
5
128
100
AcDbEntity
8
0
100
AcDbLine
10
7.0156313533727766e-06
20
152.40000000000001
30
-2.5107773637955688e-07
11
-5.9999929818973481
21
152.40000000000001
31
-1.8202648277565459e-07
0
LINE
5
129
100
AcDbEntity
8
0
100
AcDbLine
10
-5.9999929818973481
20
152.40000000000001
30
-1.8202648277565459e-07
11
-5.999992981897293
21
177.80000000000001
31
-1.8202648277565459e-07
0
LINE
5
130
100
AcDbEntity
8
0
100
AcDbLine
10
-5.999992981897293
20
177.80000000000001
30
-1.8202648277565459e-07
11
7.0156314086931616e-06
21
177.80000000000001
31
-2.5107773637955688e-07
0
LINE
5
131
100
AcDbEntity
8
0
100
AcDbLine
10
7.0156314086931616e-06
20
177.80000000000001
30
-2.5107773637955688e-07
11
7.0156314062819476e-06
21
203.19999999999999
31
-2.5107773637955688e-07
0
LINE
5
132
100
AcDbEntity
8
0
100
AcDbLine
10
7.0156314062819476e-06
20
203.19999999999999
30
-2.5107773637955688e-07
11
-5.9999929818972948
21
203.19999999999999
31
-1.8202648277565459e-07
0
LINE
5
133
100
AcDbEntity
8
0
100
AcDbLine
10
-5.9999929818972948
20
203.19999999999999
30
-1.8202648277565459e-07
11
-5.9999929818972406
21
228.59999999999999
31
-1.8202648277565459e-07
0
LINE
5
134
100
AcDbEntity
8
0
100
AcDbLine
10
-5.9999929818972406
20
228.59999999999999
30
-1.8202648277565459e-07
11
7.0156314038707311e-06
21
228.59999999999999
31
-2.5107794954237761e-07
0
LINE
5
135
100
AcDbEntity
8
0
100
AcDbLine
10
7.0156314038707311e-06
20
228.59999999999999
30
-2.5107794954237761e-07
11
7.0156314591911153e-06
21
254
31
-2.5107794954237761e-07
0
LINE
5
136
100
AcDbEntity
8
0
100
AcDbLine
10
7.0156314591911153e-06
20
254
30
-2.5107794954237761e-07
11
-5.9999929818972433
21
254
31
-1.8202648277565459e-07
0
LINE
5
137
100
AcDbEntity
8
0
100
AcDbLine
10
-5.9999929818972433
20
254
30
-1.8202648277565459e-07
11
-5.9999929818971296
21
279.40000000000003
31
-1.8202648277565459e-07
0
LINE
5
138
100
AcDbEntity
8
0
100
AcDbLine
10
-5.9999929818971296
20
279.40000000000003
30
-1.8202648277565459e-07
11
7.0156315722430993e-06
21
279.40000000000003
31
-2.5107773637955688e-07
0
LINE
5
139
100
AcDbEntity
8
0
100
AcDbLine
10
7.0156315722430993e-06
20
279.40000000000003
30
-2.5107773637955688e-07
11
7.0156316275634843e-06
21
304.80000000000001
31
-2.5107773637955688e-07
0
LINE
5
140
100
AcDbEntity
8
0
100
AcDbLine
10
7.0156316275634843e-06
20
304.80000000000001
30
-2.5107773637955688e-07
11
-5.9999929818970745
21
304.80000000000001
31
-1.8202648277565459e-07
0
LINE
5
141
100
AcDbEntity
8
0
100
AcDbLine
10
-5.9999929818970745
20
304.80000000000001
30
-1.8202648277565459e-07
11
-5.9999929818970763
21
330.19999999999993
31
-1.8202648277565459e-07
0
LINE
5
142
100
AcDbEntity
8
0
100
AcDbLine
10
-5.9999929818970763
20
330.19999999999993
30
-1.8202648277565459e-07
11
7.0156316828838676e-06
21
330.19999999999993
31
-2.5107773637955688e-07
0
LINE
5
143
100
AcDbEntity
8
0
100
AcDbLine
10
7.0156316828838676e-06
20
330.19999999999993
30
-2.5107773637955688e-07
11
7.0156317382042509e-06
21
355.60000000000002
31
-2.5107773637955688e-07
0
LINE
5
144
100
AcDbEntity
8
0
100
AcDbLine
10
7.0156317382042509e-06
20
355.60000000000002
30
-2.5107773637955688e-07
11
-5.9999929818969635
21
355.60000000000002
31
-1.8202648277565459e-07
0
LINE
5
145
100
AcDbEntity
8
0
100
AcDbLine
10
-5.9999929818969635
20
355.60000000000002
30
-1.8202648277565459e-07
11
-5.9999929818969662
21
381
31
-1.8202648277565459e-07
0
LINE
5
146
100
AcDbEntity
8
0
100
AcDbLine
10
-5.9999929818969662
20
381
30
-1.8202648277565459e-07
11
7.0156317357930353e-06
21
381
31
-2.5107794954237761e-07
0
LINE
5
147
100
AcDbEntity
8
0
100
AcDbLine
10
7.0156317357930353e-06
20
381
30
-2.5107794954237761e-07
11
7.0156317911134186e-06
21
406.39999999999998
31
-2.5107794954237761e-07
0
LINE
5
148
100
AcDbEntity
8
0
100
AcDbLine
10
7.0156317911134186e-06
20
406.39999999999998
30
-2.5107794954237761e-07
11
-5.9999929818969111
21
406.39999999999998
31
-1.8202648277565459e-07
0
LINE
5
149
100
AcDbEntity
8
0
100
AcDbLine
10
-5.9999929818969111
20
406.39999999999998
30
-1.8202648277565459e-07
11
-5.9999929818967974
21
431.80000000000001
31
-1.8202648277565459e-07
0
LINE
5
150
100
AcDbEntity
8
0
100
AcDbLine
10
-5.9999929818967974
20
431.80000000000001
30
-1.8202648277565459e-07
11
7.0156318464338028e-06
21
431.80000000000001
31
-2.5107794954237761e-07
0
LINE
5
151
100
AcDbEntity
8
0
100
AcDbLine
10
7.0156318464338028e-06
20
431.80000000000001
30
-2.5107794954237761e-07
11
7.0156319017541869e-06
21
457.19999999999999
31
-2.5107794954237761e-07
0
LINE
5
152
100
AcDbEntity
8
0
100
AcDbLine
10
7.0156319017541869e-06
20
457.19999999999999
30
-2.5107794954237761e-07
11
-5.9999929818968001
21
457.19999999999999
31
-1.8202648277565459e-07
0
LINE
5
153
100
AcDbEntity
8
0
100
AcDbLine
10
-5.9999929818968001
20
457.19999999999999
30
-1.8202648277565459e-07
11
-5.9999929818977336
21
558
31
-1.8202626961283386e-07
0
LINE
5
154
100
AcDbEntity
8
0
100
AcDbLine
10
-5.9999929818977336
20
558
30
-1.8202626961283386e-07
11
-56.79999272255634
21
558
31
4.026097144560481e-07
0
LINE
5
155
100
AcDbEntity
8
0
100
AcDbLine
10
-56.79999272255634
20
558
30
4.026097144560481e-07
11
-56.799992722556354
21
551.9999999999967
31
4.026097144560481e-07
0
LINE
5
156
100
AcDbEntity
8
0
100
AcDbLine
10
-56.799992722556354
20
551.9999999999967
30
4.026097144560481e-07
11
-82.199992712094826
21
551.99999999999682
31
6.9492770649048907e-07
0
LINE
5
157
100
AcDbEntity
8
0
100
AcDbLine
10
-82.199992712094826
20
551.99999999999682
30
6.9492770649048907e-07
11
-82.199992712094797
21
557.99999999999682
31
6.9492770649048907e-07
0
LINE
5
158
100
AcDbEntity
8
0
100
AcDbLine
10
-82.199992712094797
20
557.99999999999682
30
6.9492770649048907e-07
11
-132.99999269117177
21
558
31
1.2795636195050974e-06
0
LINE
5
159
100
AcDbEntity
8
0
100
AcDbLine
10
-132.99999269117177
20
558
30
1.2795636195050974e-06
11
-132.99999269117177
21
551.99999999999704
31
1.2795636195050974e-06
0
LINE
5
160
100
AcDbEntity
8
0
100
AcDbLine
10
-132.99999269117177
20
551.99999999999704
30
1.2795636195050974e-06
11
-158.39999268071026
21
551.99999999999716
31
1.5718816115395384e-06
0
LINE
5
161
100
AcDbEntity
8
0
100
AcDbLine
10
-158.39999268071026
20
551.99999999999716
30
1.5718816115395384e-06
11
-158.39999268071023
21
557.99999999999716
31
1.5718816115395384e-06
0
LINE
5
162
100
AcDbEntity
8
0
100
AcDbLine
10
-158.39999268071023
20
557.99999999999716
30
1.5718816115395384e-06
11
-209.1999926597872
21
558
31
2.1565175245541468e-06
0
LINE
5
163
100
AcDbEntity
8
0
100
AcDbLine
10
-209.1999926597872
20
558
30
2.1565175245541468e-06
11
-209.1999926597872
21
551.99999999999727
31
2.1565175245541468e-06
0
LINE
5
164
100
AcDbEntity
8
0
100
AcDbLine
10
-209.1999926597872
20
551.99999999999727
30
2.1565175245541468e-06
11
-234.59999264932571
21
551.99999999999739
31
2.4488354455343142e-06
0
LINE
5
165
100
AcDbEntity
8
0
100
AcDbLine
10
-234.59999264932571
20
551.99999999999739
30
2.4488354455343142e-06
11
-234.59999264932571
21
557.99999999999739
31
2.4488354455343142e-06
0
LINE
5
166
100
AcDbEntity
8
0
100
AcDbLine
10
-234.59999264932571
20
557.99999999999739
30
2.4488354455343142e-06
11
-285.39999262840263
21
558
31
3.0334713585489226e-06
0
LINE
5
167
100
AcDbEntity
8
0
100
AcDbLine
10
-285.39999262840263
20
558
30
3.0334713585489226e-06
11
-285.39999262840263
21
551.99999999999761
31
3.0334713585489226e-06
0
LINE
5
168
100
AcDbEntity
8
0
100
AcDbLine
10
-285.39999262840263
20
551.99999999999761
30
3.0334713585489226e-06
11
-310.79999261794114
21
551.99999999999773
31
3.3257893505833636e-06
0
LINE
5
169
100
AcDbEntity
8
0
100
AcDbLine
10
-310.79999261794114
20
551.99999999999773
30
3.3257893505833636e-06
11
-310.79999261794114
21
557.99999999999773
31
3.3257893505833636e-06
0
LINE
5
170
100
AcDbEntity
8
0
100
AcDbLine
10
-310.79999261794114
20
557.99999999999773
30
3.3257893505833636e-06
11
-336.1999926074796
21
558
31
3.6181073426178045e-06
0
LINE
5
171
100
AcDbEntity
8
0
100
AcDbLine
10
-336.1999926074796
20
558
30
3.6181073426178045e-06
11
-336.1999926074796
21
551.99999999999784
31
3.6181073426178045e-06
0
LINE
5
172
100
AcDbEntity
8
0
100
AcDbLine
10
-336.1999926074796
20
551.99999999999784
30
3.6181073426178045e-06
11
-361.59999259701806
21
551.99999999999795
31
3.9104252635979719e-06
0
LINE
5
173
100
AcDbEntity
8
0
100
AcDbLine
10
-361.59999259701806
20
551.99999999999795
30
3.9104252635979719e-06
11
-361.59999259701806
21
557.99999999999795
31
3.9104252635979719e-06
0
LINE
5
174
100
AcDbEntity
8
0
100
AcDbLine
10
-361.59999259701806
20
557.99999999999795
30
3.9104252635979719e-06
11
-552.79999251826644
21
558
31
6.1108659821229594e-06
0
LINE
5
175
100
AcDbEntity
8
0
100
AcDbLine
10
-552.79999251826644
20
558
30
6.1108659821229594e-06
11
-552.79999251826655
21
551.99999999999864
31
6.1108659821229594e-06
0
LINE
5
176
100
AcDbEntity
8
0
100
AcDbLine
10
-552.79999251826655
20
551.99999999999864
30
6.1108659821229594e-06
11
-578.19999250780484
21
551.99999999999864
31
6.4031839741574004e-06
0
LINE
5
177
100
AcDbEntity
8
0
100
AcDbLine
10
-578.19999250780484
20
551.99999999999864
30
6.4031839741574004e-06
11
-578.19999250780484
21
557.99999999999864
31
6.4031839741574004e-06
0
LINE
5
178
100
AcDbEntity
8
0
100
AcDbLine
10
-578.19999250780484
20
557.99999999999864
30
6.4031839741574004e-06
11
-603.59999249734335
21
558
31
6.6955018951375678e-06
0
LINE
5
179
100
AcDbEntity
8
0
100
AcDbLine
10
-603.59999249734335
20
558
30
6.6955018951375678e-06
11
-603.59999249734346
21
551.99999999999886
31
6.6955018951375678e-06
0
LINE
5
180
100
AcDbEntity
8
0
100
AcDbLine
10
-603.59999249734346
20
551.99999999999886
30
6.6955018951375678e-06
11
-628.99999248688187
21
551.99999999999886
31
6.9878198871720087e-06
0
LINE
5
181
100
AcDbEntity
8
0
100
AcDbLine
10
-628.99999248688187
20
551.99999999999886
30
6.9878198871720087e-06
11
-628.99999248688187
21
557.99999999999886
31
6.9878198871720087e-06
0
LINE
5
182
100
AcDbEntity
8
0
100
AcDbLine
10
-628.99999248688187
20
557.99999999999886
30
6.9878198871720087e-06
11
-679.79999246595878
21
558
31
7.5724558001866171e-06
0
LINE
5
183
100
AcDbEntity
8
0
100
AcDbLine
10
-679.79999246595878
20
558
30
7.5724558001866171e-06
11
-679.79999246595878
21
551.99999999999909
31
7.5724558001866171e-06
0
LINE
5
184
100
AcDbEntity
8
0
100
AcDbLine
10
-679.79999246595878
20
551.99999999999909
30
7.5724558001866171e-06
11
-705.19999245549741
21
551.9999999999992
31
7.8647737211667845e-06
0
LINE
5
185
100
AcDbEntity
8
0
100
AcDbLine
10
-705.19999245549741
20
551.9999999999992
30
7.8647737211667845e-06
11
-705.19999245549741
21
557.9999999999992
31
7.8647737211667845e-06
0
LINE
5
186
100
AcDbEntity
8
0
100
AcDbLine
10
-705.19999245549741
20
557.9999999999992
30
7.8647737211667845e-06
11
-755.99999243457421
21
558
31
8.4494096341813929e-06
0
LINE
5
187
100
AcDbEntity
8
0
100
AcDbLine
10
-755.99999243457421
20
558
30
8.4494096341813929e-06
11
-755.99999243457421
21
551.99999999999943
31
8.4494096341813929e-06
0
LINE
5
188
100
AcDbEntity
8
0
100
AcDbLine
10
-755.99999243457421
20
551.99999999999943
30
8.4494096341813929e-06
11
-781.39999242411261
21
551.99999999999955
31
8.7417276262158339e-06
0
LINE
5
189
100
AcDbEntity
8
0
100
AcDbLine
10
-781.39999242411261
20
551.99999999999955
30
8.7417276262158339e-06
11
-781.39999242411261
21
557.99999999999955
31
8.7417276262158339e-06
0
LINE
5
190
100
AcDbEntity
8
0
100
AcDbLine
10
-781.39999242411261
20
557.99999999999955
30
8.7417276262158339e-06
11
-832.19999240318953
21
558
31
9.3263635392304423e-06
0
LINE
5
191
100
AcDbEntity
8
0
100
AcDbLine
10
-832.19999240318953
20
558
30
9.3263635392304423e-06
11
-832.19999240318953
21
551.99999999999977
31
9.3263635392304423e-06
0
LINE
5
192
100
AcDbEntity
8
0
100
AcDbLine
10
-832.19999240318953
20
551.99999999999977
30
9.3263635392304423e-06
11
-857.59999239272815
21
551.99999999999977
31
9.6186815312648832e-06
0
LINE
5
193
100
AcDbEntity
8
0
100
AcDbLine
10
-857.59999239272815
20
551.99999999999977
30
9.6186815312648832e-06
11
-857.59999239272815
21
557.99999999999977
31
9.6186815312648832e-06
0
LINE
5
194
100
AcDbEntity
8
0
100
AcDbLine
10
-857.59999239272815
20
557.99999999999977
30
9.6186815312648832e-06
11
-908.39999261022331
21
558
31
1.0203317373225218e-05
0
LINE
5
195
100
AcDbEntity
8
0
100
AcDbLine
10
-908.39999261022331
20
558
30
1.0203317373225218e-05
11
-908.3999926102224
21
457.19999999999993
31
1.0203317160062397e-05
0
LINE
5
196
100
AcDbEntity
8
0
100
AcDbLine
10
-908.3999926102224
20
457.19999999999993
30
1.0203317160062397e-05
11
-914.39999260775107
21
457.19999999999993
31
1.027236862682912e-05
0
LINE
5
197
100
AcDbEntity
8
0
100
AcDbLine
10
-914.39999260775107
20
457.19999999999993
30
1.027236862682912e-05
11
-914.39999260775107
21
431.79999999999995
31
1.027236862682912e-05
0
LINE
5
198
100
AcDbEntity
8
0
100
AcDbLine
10
-914.39999260775107
20
431.79999999999995
30
1.027236862682912e-05
11
-908.3999926102224
21
431.79999999999995
31
1.0203317160062397e-05
0
LINE
5
199
100
AcDbEntity
8
0
100
AcDbLine
10
-908.3999926102224
20
431.79999999999995
30
1.0203317160062397e-05
11
-908.3999926102224
21
406.39999999999992
31
1.0203317160062397e-05
0
LINE
5
200
100
AcDbEntity
8
0
100
AcDbLine
10
-908.3999926102224
20
406.39999999999992
30
1.0203317160062397e-05
11
-914.39999260775107
21
406.39999999999992
31
1.027236862682912e-05
0
LINE
5
201
100
AcDbEntity
8
0
100
AcDbLine
10
-914.39999260775107
20
406.39999999999992
30
1.027236862682912e-05
11
-914.3999926077513
21
380.99999999999994
31
1.027236862682912e-05
0
LINE
5
202
100
AcDbEntity
8
0
100
AcDbLine
10
-914.3999926077513
20
380.99999999999994
30
1.027236862682912e-05
11
-908.39999261022263
21
380.99999999999994
31
1.0203317160062397e-05
0
LINE
5
203
100
AcDbEntity
8
0
100
AcDbLine
10
-908.39999261022263
20
380.99999999999994
30
1.0203317160062397e-05
11
-908.39999261022263
21
355.59999999999997
31
1.0203317373225218e-05
0
LINE
5
204
100
AcDbEntity
8
0
100
AcDbLine
10
-908.39999261022263
20
355.59999999999997
30
1.0203317373225218e-05
11
-914.3999926077513
21
355.59999999999997
31
1.027236862682912e-05
0
LINE
5
205
100
AcDbEntity
8
0
100
AcDbLine
10
-914.3999926077513
20
355.59999999999997
30
1.027236862682912e-05
11
-914.3999926077513
21
330.19999999999987
31
1.027236862682912e-05
0
LINE
5
206
100
AcDbEntity
8
0
100
AcDbLine
10
-914.3999926077513
20
330.19999999999987
30
1.027236862682912e-05
11
-908.3999926102224
21
330.19999999999987
31
1.0203317373225218e-05
0
LINE
5
207
100
AcDbEntity
8
0
100
AcDbLine
10
-908.3999926102224
20
330.19999999999987
30
1.0203317373225218e-05
11
-908.39999261022263
21
304.79999999999995
31
1.0203317373225218e-05
0
LINE
5
208
100
AcDbEntity
8
0
100
AcDbLine
10
-908.39999261022263
20
304.79999999999995
30
1.0203317373225218e-05
11
-914.3999926077513
21
304.79999999999995
31
1.027236862682912e-05
0
LINE
5
209
100
AcDbEntity
8
0
100
AcDbLine
10
-914.3999926077513
20
304.79999999999995
30
1.027236862682912e-05
11
-914.3999926077513
21
279.39999999999992
31
1.027236862682912e-05
0
LINE
5
210
100
AcDbEntity
8
0
100
AcDbLine
10
-914.3999926077513
20
279.39999999999992
30
1.027236862682912e-05
11
-908.39999261022263
21
279.39999999999992
31
1.0203317373225218e-05
0
LINE
5
211
100
AcDbEntity
8
0
100
AcDbLine
10
-908.39999261022263
20
279.39999999999992
30
1.0203317373225218e-05
11
-908.39999261022274
21
253.99999999999991
31
1.0203317160062397e-05
0
LINE
5
212
100
AcDbEntity
8
0
100
AcDbLine
10
-908.39999261022274
20
253.99999999999991
30
1.0203317160062397e-05
11
-914.39999260775141
21
253.99999999999991
31
1.027236862682912e-05
0
LINE
5
213
100
AcDbEntity
8
0
100
AcDbLine
10
-914.39999260775141
20
253.99999999999991
30
1.027236862682912e-05
11
-914.39999260775141
21
228.59999999999991
31
1.027236862682912e-05
0
LINE
5
214
100
AcDbEntity
8
0
100
AcDbLine
10
-914.39999260775141
20
228.59999999999991
30
1.027236862682912e-05
11
-908.39999261022274
21
228.59999999999991
31
1.0203317160062397e-05
0
LINE
5
215
100
AcDbEntity
8
0
100
AcDbLine
10
-908.39999261022274
20
228.59999999999991
30
1.0203317160062397e-05
11
-908.39999261022274
21
203.19999999999993
31
1.0203317373225218e-05
0
LINE
5
216
100
AcDbEntity
8
0
100
AcDbLine
10
-908.39999261022274
20
203.19999999999993
30
1.0203317373225218e-05
11
-914.39999260775141
21
203.19999999999993
31
1.027236862682912e-05
0
LINE
5
217
100
AcDbEntity
8
0
100
AcDbLine
10
-914.39999260775141
20
203.19999999999993
30
1.027236862682912e-05
11
-914.39999260775141
21
177.79999999999995
31
1.027236862682912e-05
0
LINE
5
218
100
AcDbEntity
8
0
100
AcDbLine
10
-914.39999260775141
20
177.79999999999995
30
1.027236862682912e-05
11
-908.39999261022274
21
177.79999999999995
31
1.0203317373225218e-05
0
LINE
5
219
100
AcDbEntity
8
0
100
AcDbLine
10
-908.39999261022274
20
177.79999999999995
30
1.0203317373225218e-05
11
-908.39999261022285
21
152.39999999999992
31
1.0203317373225218e-05
0
LINE
5
220
100
AcDbEntity
8
0
100
AcDbLine
10
-908.39999261022285
20
152.39999999999992
30
1.0203317373225218e-05
11
-914.39999260775153
21
152.39999999999992
31
1.027236862682912e-05
0
LINE
5
221
100
AcDbEntity
8
0
100
AcDbLine
10
-914.39999260775153
20
152.39999999999992
30
1.027236862682912e-05
11
-914.39999260775153
21
126.9999999999999
31
1.027236862682912e-05
0
LINE
5
222
100
AcDbEntity
8
0
100
AcDbLine
10
-914.39999260775153
20
126.9999999999999
30
1.027236862682912e-05
11
-908.39999261022285
21
126.9999999999999
31
1.0203317373225218e-05
0
LINE
5
223
100
AcDbEntity
8
0
100
AcDbLine
10
-908.39999261022285
20
126.9999999999999
30
1.0203317373225218e-05
11
-908.39999261022285
21
101.59999999999991
31
1.0203317373225218e-05
0
LINE
5
224
100
AcDbEntity
8
0
100
AcDbLine
10
-908.39999261022285
20
101.59999999999991
30
1.0203317373225218e-05
11
-914.39999260775153
21
101.59999999999991
31
1.027236862682912e-05
0
LINE
5
225
100
AcDbEntity
8
0
100
AcDbLine
10
-914.39999260775153
20
101.59999999999991
30
1.027236862682912e-05
11
-914.39999260775164
21
76.199999999999918
31
1.027236862682912e-05
0
LINE
5
226
100
AcDbEntity
8
0
100
AcDbLine
10
-914.39999260775164
20
76.199999999999918
30
1.027236862682912e-05
11
-908.39999261022297
21
76.199999999999918
31
1.0203317373225218e-05
0
LINE
5
227
100
AcDbEntity
8
0
100
AcDbLine
10
-908.39999261022297
20
76.199999999999918
30
1.0203317373225218e-05
11
-908.39999261022297
21
50.799999999999912
31
1.0203317373225218e-05
0
LINE
5
228
100
AcDbEntity
8
0
100
AcDbLine
10
-908.39999261022297
20
50.799999999999912
30
1.0203317373225218e-05
11
-914.39999260775164
21
50.799999999999912
31
1.027236862682912e-05
0
LINE
5
229
100
AcDbEntity
8
0
100
AcDbLine
10
-914.39999260775164
20
50.799999999999912
30
1.027236862682912e-05
11
-914.39999260775176
21
25.399999999999913
31
1.027236862682912e-05
0
LINE
5
230
100
AcDbEntity
8
0
100
AcDbLine
10
-914.39999260775176
20
25.399999999999913
30
1.027236862682912e-05
11
-908.39999261022308
21
25.399999999999917
31
1.0203317373225218e-05
0
LINE
5
231
100
AcDbEntity
8
0
100
AcDbLine
10
-908.39999261022308
20
25.399999999999917
30
1.0203317373225218e-05
11
-908.39999261022308
21
5.9999999999999272
31
1.0203317444279492e-05
0
LINE
5
232
100
AcDbEntity
8
0
100
AcDbLine
10
-908.39999261022308
20
5.9999999999999272
30
1.0203317444279492e-05
11
-882.99999262068468
21
5.9999999999999298
31
9.9109994522450506e-06
0
LINE
5
233
100
AcDbEntity
8
0
100
AcDbLine
10
-882.99999262068468
20
5.9999999999999298
30
9.9109994522450506e-06
11
-882.99999262068468
21
-7.05002083097579e-14
31
9.9109994522450506e-06
0
LINE
5
234
100
AcDbEntity
8
0
100
AcDbLine
10
-882.99999262068468
20
-7.05002083097579e-14
30
9.9109994522450506e-06
11
-857.59999263114628
21
-6.8088994959414471e-14
31
9.6186815312648832e-06
0
LINE
5
235
100
AcDbEntity
8
0
100
AcDbLine
10
-857.59999263114628
20
-6.8088994959414471e-14
30
9.6186815312648832e-06
11
-857.59999263114628
21
5.9999999999999334
31
9.6186815312648832e-06
0
LINE
5
236
100
AcDbEntity
8
0
100
AcDbLine
10
-857.59999263114628
20
5.9999999999999334
30
9.6186815312648832e-06
11
-832.19999264160765
21
5.9999999999999352
31
9.3263635392304423e-06
0
LINE
5
237
100
AcDbEntity
8
0
100
AcDbLine
10
-832.19999264160765
20
5.9999999999999352
30
9.3263635392304423e-06
11
-832.19999264160765
21
-6.5677781609071042e-14
31
9.3263635392304423e-06
0
LINE
5
238
100
AcDbEntity
8
0
100
AcDbLine
10
-832.19999264160765
20
-6.5677781609071042e-14
30
9.3263635392304423e-06
11
-806.79999265206914
21
-6.3266568258727625e-14
31
9.0340456182502749e-06
0
LINE
5
239
100
AcDbEntity
8
0
100
AcDbLine
10
-806.79999265206914
20
-6.3266568258727625e-14
30
9.0340456182502749e-06
11
-806.79999265206914
21
5.9999999999999378
31
9.0340456182502749e-06
0
LINE
5
240
100
AcDbEntity
8
0
100
AcDbLine
10
-806.79999265206914
20
5.9999999999999378
30
9.0340456182502749e-06
11
-781.39999266253074
21
5.9999999999999396
31
8.7417276262158339e-06
0
LINE
5
241
100
AcDbEntity
8
0
100
AcDbLine
10
-781.39999266253074
20
5.9999999999999396
30
8.7417276262158339e-06
11
-781.39999266253074
21
-6.0855354908384208e-14
31
8.7417276262158339e-06
0
LINE
5
242
100
AcDbEntity
8
0
100
AcDbLine
10
-781.39999266253074
20
-6.0855354908384208e-14
30
8.7417276262158339e-06
11
-755.99999267299222
21
-5.8444141558040767e-14
31
8.4494097762899401e-06
0
LINE
5
243
100
AcDbEntity
8
0
100
AcDbLine
10
-755.99999267299222
20
-5.8444141558040767e-14
30
8.4494097762899401e-06
11
-755.99999267299222
21
5.9999999999999423
31
8.4494097762899401e-06
0
LINE
5
244
100
AcDbEntity
8
0
100
AcDbLine
10
-755.99999267299222
20
5.9999999999999423
30
8.4494097762899401e-06
11
-730.59999268345382
21
5.9999999999999449
31
8.1570917842554991e-06
0
LINE
5
245
100
AcDbEntity
8
0
100
AcDbLine
10
-730.59999268345382
20
5.9999999999999449
30
8.1570917842554991e-06
11
-730.59999268345382
21
-5.6032928207697337e-14
31
8.1570917842554991e-06
0
LINE
5
246
100
AcDbEntity
8
0
100
AcDbLine
10
-730.59999268345382
20
-5.6032928207697337e-14
30
8.1570917842554991e-06
11
-705.19999269391531
21
-5.3621714857353921e-14
31
7.8647737922210581e-06
0
LINE
5
247
100
AcDbEntity
8
0
100
AcDbLine
10
-705.19999269391531
20
-5.3621714857353921e-14
30
7.8647737922210581e-06
11
-705.19999269391531
21
5.9999999999999476
31
7.8647737922210581e-06
0
LINE
5
248
100
AcDbEntity
8
0
100
AcDbLine
10
-705.19999269391531
20
5.9999999999999476
30
7.8647737922210581e-06
11
-673.28020891862207
21
6.0000011090998733
31
7.4974223451818034e-06
0
LINE
5
249
100
AcDbEntity
8
0
100
AcDbLine
10
-673.28020891862207
20
6.0000011090998733
30
7.4974223451818034e-06
11
-673.28020891862229
21
506.23109928414868
31
7.4974223451818034e-06
0
ENDSEC
0
SECTION
2
OBJECTS
0
DICTIONARY
5
C
100
AcDbDictionary
3
ACAD_GROUP
350
D
3
ACAD_MLINESTYLE
350
17
0
DICTIONARY
5
D
100
AcDbDictionary
0
DICTIONARY
5
1A
330
C
100
AcDbDictionary
0
DICTIONARY
5
17
100
AcDbDictionary
0
ENDSEC
0
EOF
