0
SECTION
2
HEADER
9
$INSUNITS
70
4
9
$ACADVER
1
AC1014
9
$HANDSEED
5
FFFF
0
ENDSEC
0
SECTION
2
TABLES
0
TABLE
2
VPORT
5
8
100
AcDbSymbolTable
0
ENDTAB
0
TABLE
2
LTYPE
5
5
100
AcDbSymbolTable
0
LTYPE
5
14
100
AcDbSymbolTableRecord
100
AcDbLinetypeTableRecord
2
BYBLOCK
70
0
0
LTYPE
5
15
100
AcDbSymbolTableRecord
100
AcDbLinetypeTableRecord
2
BYLAYER
70
0
0
ENDTAB
0
TABLE
2
LAYER
5
2
100
AcDbSymbolTable
70
2
0
LAYER
5
50
100
AcDbSymbolTableRecord
100
AcDbLayerTableRecord
2
0
70
0
6
CONTINUOUS
0
ENDTAB
0
TABLE
2
STYLE
5
3
100
AcDbSymbolTable
70
1
0
STYLE
5
11
100
AcDbSymbolTableRecord
100
AcDbTextStyleTableRecord
2
STANDARD
70
0
0
ENDTAB
0
TABLE
2
VIEW
5
6
100
AcDbSymbolTable
70
0
0
ENDTAB
0
TABLE
2
UCS
5
7
100
AcDbSymbolTable
70
0
0
ENDTAB
0
TABLE
2
APPID
5
9
100
AcDbSymbolTable
70
2
0
APPID
5
12
100
AcDbSymbolTableRecord
100
AcDbRegAppTableRecord
2
ACAD
70
0
0
ENDTAB
0
TABLE
2
DIMSTYLE
5
A
100
AcDbSymbolTable
70
1
0
ENDTAB
0
TABLE
2
BLOCK_RECORD
5
1
100
AcDbSymbolTable
70
1
0
BLOCK_RECORD
5
1F
100
AcDbSymbolTableRecord
100
AcDbBlockTableRecord
2
*MODEL_SPACE
0
BLOCK_RECORD
5
1B
100
AcDbSymbolTableRecord
100
AcDbBlockTableRecord
2
*PAPER_SPACE
0
ENDTAB
0
ENDSEC
0
SECTION
2
BLOCKS
0
BLOCK
5
20
100
AcDbEntity
100
AcDbBlockBegin
2
*MODEL_SPACE
0
ENDBLK
5
21
100
AcDbEntity
100
AcDbBlockEnd
0
BLOCK
5
1C
100
AcDbEntity
100
AcDbBlockBegin
2
*PAPER_SPACE
0
ENDBLK
5
1D
100
AcDbEntity
100
AcDbBlockEnd
0
ENDSEC
0
SECTION
2
ENTITIES
0
LWPOLYLINE
5
100
100
AcDbEntity
8
0
100
AcDbPolyline
90
69
70
1
43
0.0
10
-304.79999999999995
20
551.99999999999773
10
-304.79999999999995
20
6.0000000000000142
10
-285.40000000000066
20
6.0000000000000009
10
-285.40000000000066
20
3.2406621690632968e-29
10
-234.60000000000051
20
2.641898253073082e-29
10
-234.60000000000051
20
6.0000000000000009
10
-209.20000000000044
20
6.0000000000000009
10
-209.20000000000044
20
2.3425162950779758e-29
10
-158.40000000000032
20
1.7437523790877605e-29
10
-158.40000000000032
20
6.0000000000000009
10
-133.00000000000026
20
6.0000000000000009
10
-133.00000000000026
20
1.4443704210926536e-29
10
-82.200000000000131
20
8.4560650510243889e-30
10
-82.200000000000131
20
6.0000000000000009
10
-56.800000000000068
20
6.0000000000000009
10
-56.800000000000068
20
5.462245471073311e-30
10
-5.9999999999999964
20
-5.2539368882885152e-31
10
-5.9999999999998854
20
25.399999999999999
10
5.773159728050814e-14
20
25.399999999999999
10
1.1546319456101628e-13
20
50.799999999999997
10
-5.9999999999998277
20
50.799999999999997
10
-5.99999999999977
20
76.200000000000003
10
1.7319479184152442e-13
20
76.200000000000003
10
2.3092638912203256e-13
20
101.59999999999999
10
-5.9999999999997122
20
101.59999999999999
10
-5.9999999999996545
20
127
10
2.886579864025407e-13
20
127
10
3.4638958368304884e-13
20
152.40000000000001
10
-5.9999999999995968
20
152.40000000000001
10
-5.999999999999539
20
177.80000000000001
10
4.0412118096355698e-13
20
177.80000000000001
10
4.0412118096355698e-13
20
203.19999999999999
10
-5.999999999999539
20
203.19999999999999
10
-5.9999999999994813
20
228.59999999999999
10
4.0412118096355698e-13
20
228.59999999999999
10
4.6185277824406512e-13
20
254
10
-5.9999999999994813
20
254
10
-5.9999999999993658
20
279.40000000000003
10
5.773159728050814e-13
20
279.40000000000003
10
6.3504757008558954e-13
20
304.80000000000001
10
-5.9999999999993081
20
304.80000000000001
10
-5.9999999999993081
20
330.19999999999993
10
6.9277916736609768e-13
20
330.19999999999993
10
7.5051076464660582e-13
20
355.60000000000002
10
-5.9999999999991926
20
355.60000000000002
10
-5.9999999999991926
20
381
10
7.5051076464660582e-13
20
381
10
8.0824236192711396e-13
20
406.39999999999998
10
-5.9999999999991349
20
406.39999999999998
10
-5.9999999999990195
20
431.80000000000001
10
8.659739592076221e-13
20
431.80000000000001
10
9.2370555648813024e-13
20
457.19999999999999
10
-5.9999999999990195
20
457.19999999999999
10
-5.9999999999999432
20
501.99999999999648
10
-5.9999999999999432
20
558
10
-56.799999761581432
20
558
10
-56.799999761581446
20
551.9999999999967
10
-82.199999761581509
20
551.99999999999682
10
-82.199999761581481
20
557.99999999999682
10
-132.99999976158162
20
558
10
-132.99999976158165
20
551.99999999999704
10
-158.39999976158171
20
551.99999999999716
10
-158.39999976158165
20
557.99999999999716
10
-209.19999976158181
20
558
10
-209.19999976158181
20
551.99999999999727
10
-234.59999976158187
20
551.99999999999739
10
-234.59999976158187
20
557.99999999999739
10
-285.39999976158197
20
558
10
-285.39999976158197
20
551.99999999999761
0
LWPOLYLINE
5
101
100
AcDbEntity
8
0
100
AcDbPolyline
90
6
70
1
43
0.0
10
-85.935098247582829
20
453.28869952827091
10
-85.935098247582829
20
449.1895126170246
10
-89.485098247582783
20
447.13991916140145
10
-93.035098247582766
20
449.1895126170246
10
-93.035098247582766
20
453.28869952827091
10
-89.485098247582783
20
455.33829298389406
0
LWPOLYLINE
5
102
100
AcDbEntity
8
0
100
AcDbPolyline
90
6
70
1
43
0.0
10
-137.99363878153207
20
397.13097208307533
10
-142.09282569277838
20
397.13097208307533
10
-144.14241914840153
20
400.68097208307529
10
-142.09282569277838
20
404.23097208307524
10
-137.99363878153207
20
404.23097208307524
10
-135.94404532590892
20
400.68097208307529
0
LWPOLYLINE
5
103
100
AcDbEntity
8
0
100
AcDbPolyline
90
6
70
1
43
0.0
10
-174.49310385560466
20
487.18951016894368
10
-178.04310385560461
20
485.13991671332053
10
-181.5931038556046
20
487.18951016894368
10
-181.5931038556046
20
491.28869708018999
10
-178.04310385560461
20
493.33829053581314
10
-174.49310385560466
20
491.28869708018999
0
LWPOLYLINE
5
104
100
AcDbEntity
8
0
100
AcDbPolyline
90
6
70
1
43
0.0
10
-175.99363633345109
20
416.78923445419832
10
-173.94404287782794
20
413.23923445419837
10
-175.99363633345109
20
409.68923445419841
10
-180.0928232446974
20
409.68923445419841
10
-182.14241670032055
20
413.23923445419837
10
-180.0928232446974
20
416.78923445419832
0
LWPOLYLINE
5
105
100
AcDbEntity
8
0
100
AcDbPolyline
90
6
70
1
43
0.0
10
-187.05136622672774
20
449.1895126170246
10
-190.60136622672772
20
447.13991916140145
10
-194.1513662267277
20
449.1895126170246
10
-194.1513662267277
20
453.28869952827091
10
-190.60136622672772
20
455.33829298389406
10
-187.05136622672774
20
453.28869952827091
0
LWPOLYLINE
5
106
100
AcDbEntity
8
0
100
AcDbPolyline
90
6
70
1
43
0.0
10
-135.94404532590892
20
501.79724006222023
10
-137.99363878153207
20
498.24724006222027
10
-142.09282569277838
20
498.24724006222027
10
-144.14241914840153
20
501.79724006222023
10
-142.09282569277838
20
505.34724006222018
10
-137.99363878153207
20
505.34724006222018
0
LWPOLYLINE
5
107
100
AcDbEntity
8
0
100
AcDbPolyline
90
6
70
1
43
0.0
10
-105.59336061870584
20
415.28870197635183
10
-102.04336061870589
20
417.33829543197498
10
-98.493360618705907
20
415.28870197635183
10
-98.493360618705907
20
411.18951506510552
10
-102.04336061870589
20
409.13992160948237
10
-105.59336061870584
20
411.18951506510552
0
LWPOLYLINE
5
108
100
AcDbEntity
8
0
100
AcDbPolyline
90
6
70
1
43
0.0
10
-106.14242159648254
20
489.23897769109715
10
-104.09282814085938
20
492.7889776910971
10
-99.993641229613075
20
492.7889776910971
10
-97.944047773989922
20
489.23897769109715
10
-99.993641229613075
20
485.68897769109719
10
-104.09282814085938
20
485.68897769109719
0
CIRCLE
5
109
100
AcDbEntity
8
0
100
AcDbCircle
10
-140.04323223715528
20
451.23910607264776
30
-1.1102230246251565e-15
40
35
210
6.1629758220391547e-32
220
-1.9721522630525295e-31
230
1
0
ENDSEC
0
SECTION
2
OBJECTS
0
DICTIONARY
5
C
100
AcDbDictionary
3
ACAD_GROUP
350
D
3
ACAD_MLINESTYLE
350
17
0
DICTIONARY
5
D
100
AcDbDictionary
0
DICTIONARY
5
1A
330
C
100
AcDbDictionary
0
DICTIONARY
5
17
100
AcDbDictionary
0
ENDSEC
0
EOF
