0
SECTION
2
HEADER
9
$INSUNITS
70
4
9
$ACADVER
1
AC1014
9
$HANDSEED
5
FFFF
0
ENDSEC
0
SECTION
2
TABLES
0
TABLE
2
VPORT
5
8
100
AcDbSymbolTable
0
ENDTAB
0
TABLE
2
LTYPE
5
5
100
AcDbSymbolTable
0
LTYPE
5
14
100
AcDbSymbolTableRecord
100
AcDbLinetypeTableRecord
2
BYBLOCK
70
0
0
LTYPE
5
15
100
AcDbSymbolTableRecord
100
AcDbLinetypeTableRecord
2
BYLAYER
70
0
0
ENDTAB
0
TABLE
2
LAYER
5
2
100
AcDbSymbolTable
70
2
0
LAYER
5
50
100
AcDbSymbolTableRecord
100
AcDbLayerTableRecord
2
0
70
0
6
CONTINUOUS
0
ENDTAB
0
TABLE
2
STYLE
5
3
100
AcDbSymbolTable
70
1
0
STYLE
5
11
100
AcDbSymbolTableRecord
100
AcDbTextStyleTableRecord
2
STANDARD
70
0
0
ENDTAB
0
TABLE
2
VIEW
5
6
100
AcDbSymbolTable
70
0
0
ENDTAB
0
TABLE
2
UCS
5
7
100
AcDbSymbolTable
70
0
0
ENDTAB
0
TABLE
2
APPID
5
9
100
AcDbSymbolTable
70
2
0
APPID
5
12
100
AcDbSymbolTableRecord
100
AcDbRegAppTableRecord
2
ACAD
70
0
0
ENDTAB
0
TABLE
2
DIMSTYLE
5
A
100
AcDbSymbolTable
70
1
0
ENDTAB
0
TABLE
2
BLOCK_RECORD
5
1
100
AcDbSymbolTable
70
1
0
BLOCK_RECORD
5
1F
100
AcDbSymbolTableRecord
100
AcDbBlockTableRecord
2
*MODEL_SPACE
0
BLOCK_RECORD
5
1B
100
AcDbSymbolTableRecord
100
AcDbBlockTableRecord
2
*PAPER_SPACE
0
ENDTAB
0
ENDSEC
0
SECTION
2
BLOCKS
0
BLOCK
5
20
100
AcDbEntity
100
AcDbBlockBegin
2
*MODEL_SPACE
0
ENDBLK
5
21
100
AcDbEntity
100
AcDbBlockEnd
0
BLOCK
5
1C
100
AcDbEntity
100
AcDbBlockBegin
2
*PAPER_SPACE
0
ENDBLK
5
1D
100
AcDbEntity
100
AcDbBlockEnd
0
ENDSEC
0
SECTION
2
ENTITIES
0
LWPOLYLINE
5
100
100
AcDbEntity
8
0
100
AcDbPolyline
90
56
70
1
43
0.0
10
-609.60000610351483
20
609.60002441406505
10
-6.1035154700683781e-06
20
609.60002441406505
10
-6.103515453562452e-06
20
629.00002441406411
10
-6.0000061035154548
20
629.00002441406411
10
-6.0000061035154086
20
679.8000244140643
10
-6.1035153626737289e-06
20
679.8000244140643
10
-6.1035152952729362e-06
20
705.20002441406427
10
-6.0000061035152967
20
705.20002441406427
10
-6.0000061035152505
20
756.00002441406446
10
-6.1035152050692442e-06
20
756.00002441406446
10
-6.1035151369834196e-06
20
781.40002441406455
10
-6.0000061035151822
20
781.40002441406455
10
-6.0000061035150924
20
832.20002441406461
10
-6.1035150907634575e-06
20
832.20002441406461
10
-6.1035150231028239e-06
20
857.60002441406471
10
-6.0000061035150694
20
857.60002441406471
10
-6.0000061035149379
20
908.40002441406477
10
-50.800006103514946
20
908.40002441406477
10
-50.800006103514946
20
914.40002441406477
10
-76.200006103515008
20
914.40002441406477
10
-76.200006103515008
20
908.40002441406477
10
-127.00000610351496
20
908.400024414065
10
-127.00000610351496
20
914.40002441406489
10
-152.40000610351495
20
914.40002441406489
10
-152.40000610351495
20
908.400024414065
10
-203.20000610351491
20
908.400024414065
10
-203.20000610351491
20
914.40002441406489
10
-228.60000610351494
20
914.400024414065
10
-228.60000610351494
20
908.40002441406511
10
-381.00000610351486
20
908.40002441406523
10
-381.00000610351486
20
914.40002441406523
10
-406.40000610351484
20
914.40002441406523
10
-406.40000610351484
20
908.40002441406523
10
-457.20000610351485
20
908.40002441406523
10
-457.20000610351485
20
914.40002441406523
10
-482.60000610351483
20
914.40002441406523
10
-482.60000610351483
20
908.40002441406523
10
-533.40000610351478
20
908.40002441406546
10
-533.40000610351478
20
914.40002441406534
10
-558.80000610351487
20
914.40002441406534
10
-558.80000610351487
20
908.40002441406546
10
-603.60000610351483
20
908.40002441406546
10
-603.60000610351472
20
857.60002441406527
10
-609.60000610351483
20
857.60002441406527
10
-609.60000610351483
20
832.20002441406518
10
-603.60000610351483
20
832.20002441406518
10
-603.60000610351483
20
781.40002441406511
10
-609.60000610351494
20
781.40002441406511
10
-609.60000610351483
20
756.00002441406502
10
-603.60000610351483
20
756.00002441406502
10
-603.60000610351494
20
705.20002441406496
10
-609.60000610351494
20
705.20002441406496
10
-609.60000610351483
20
679.80002441406486
10
-603.60000610351483
20
679.80002441406486
10
-603.60000610351483
20
629.0000244140648
10
-609.60000610351483
20
629.0000244140648
0
ENDSEC
0
SECTION
2
OBJECTS
0
DICTIONARY
5
C
100
AcDbDictionary
3
ACAD_GROUP
350
D
3
ACAD_MLINESTYLE
350
17
0
DICTIONARY
5
D
100
AcDbDictionary
0
DICTIONARY
5
1A
330
C
100
AcDbDictionary
0
DICTIONARY
5
17
100
AcDbDictionary
0
ENDSEC
0
EOF
