0
SECTION
2
HEADER
9
$INSUNITS
70
4
9
$ACADVER
1
AC1014
9
$HANDSEED
5
FFFF
0
ENDSEC
0
SECTION
2
TABLES
0
TABLE
2
VPORT
5
8
100
AcDbSymbolTable
0
ENDTAB
0
TABLE
2
LTYPE
5
5
100
AcDbSymbolTable
0
LTYPE
5
14
100
AcDbSymbolTableRecord
100
AcDbLinetypeTableRecord
2
BYBLOCK
70
0
0
LTYPE
5
15
100
AcDbSymbolTableRecord
100
AcDbLinetypeTableRecord
2
BYLAYER
70
0
0
ENDTAB
0
TABLE
2
LAYER
5
2
100
AcDbSymbolTable
70
2
0
LAYER
5
50
100
AcDbSymbolTableRecord
100
AcDbLayerTableRecord
2
0
70
0
6
CONTINUOUS
0
ENDTAB
0
TABLE
2
STYLE
5
3
100
AcDbSymbolTable
70
1
0
STYLE
5
11
100
AcDbSymbolTableRecord
100
AcDbTextStyleTableRecord
2
STANDARD
70
0
0
ENDTAB
0
TABLE
2
VIEW
5
6
100
AcDbSymbolTable
70
0
0
ENDTAB
0
TABLE
2
UCS
5
7
100
AcDbSymbolTable
70
0
0
ENDTAB
0
TABLE
2
APPID
5
9
100
AcDbSymbolTable
70
2
0
APPID
5
12
100
AcDbSymbolTableRecord
100
AcDbRegAppTableRecord
2
ACAD
70
0
0
ENDTAB
0
TABLE
2
DIMSTYLE
5
A
100
AcDbSymbolTable
70
1
0
ENDTAB
0
TABLE
2
BLOCK_RECORD
5
1
100
AcDbSymbolTable
70
1
0
BLOCK_RECORD
5
1F
100
AcDbSymbolTableRecord
100
AcDbBlockTableRecord
2
*MODEL_SPACE
0
BLOCK_RECORD
5
1B
100
AcDbSymbolTableRecord
100
AcDbBlockTableRecord
2
*PAPER_SPACE
0
ENDTAB
0
ENDSEC
0
SECTION
2
BLOCKS
0
BLOCK
5
20
100
AcDbEntity
100
AcDbBlockBegin
2
*MODEL_SPACE
0
ENDBLK
5
21
100
AcDbEntity
100
AcDbBlockEnd
0
BLOCK
5
1C
100
AcDbEntity
100
AcDbBlockBegin
2
*PAPER_SPACE
0
ENDBLK
5
1D
100
AcDbEntity
100
AcDbBlockEnd
0
ENDSEC
0
SECTION
2
ENTITIES
0
LWPOLYLINE
5
100
100
AcDbEntity
8
0
100
AcDbPolyline
90
4
70
1
43
0.0
10
50.799987192631491
20
406
10
76.199987182169977
20
406
10
76.199987182169977
20
405.99996185302734
10
50.799987192631491
20
405.99996185302734
0
LWPOLYLINE
5
101
100
AcDbEntity
8
0
100
AcDbPolyline
90
4
70
1
43
0.0
10
126.99998716124676
20
406
10
152.39998715078517
20
405.99999999999994
10
152.39998715078517
20
405.99996185302729
10
126.99998716124676
20
405.99996185302734
0
LWPOLYLINE
5
102
100
AcDbEntity
8
0
100
AcDbPolyline
90
4
70
1
43
0.0
10
203.19998712986194
20
405.99999999999994
10
228.5999871194004
20
405.99999999999994
10
228.5999871194004
20
405.99996185302729
10
203.19998712986194
20
405.99996185302729
0
LWPOLYLINE
5
103
100
AcDbEntity
8
0
100
AcDbPolyline
90
4
70
1
43
0.0
10
380.99998705663074
20
405.99999999999994
10
431.79998703570777
20
405.99999999999989
10
431.79998703570777
20
405.99996185302723
10
380.99998705663074
20
405.99996185302729
0
LWPOLYLINE
5
104
100
AcDbEntity
8
0
100
AcDbPolyline
90
4
70
1
43
0.0
10
457.199987025246
20
405.99999999999989
10
507.99998700432292
20
405.99999999999989
10
507.99998700432292
20
405.99996185302723
10
457.199987025246
20
405.99996185302723
0
LWPOLYLINE
5
105
100
AcDbEntity
8
0
100
AcDbPolyline
90
4
70
1
43
0.0
10
533.39998699386126
20
405.99999999999989
10
584.19998697293818
20
405.99999999999989
10
584.19998697293818
20
405.99996185302723
10
533.39998699386126
20
405.99996185302723
0
LINE
5
106
100
AcDbEntity
8
0
100
AcDbLine
10
533.39999309737675
20
552
30
3.8926499590363761e-06
11
533.39999309737675
21
558
31
3.8926499590363761e-06
0
LINE
5
107
100
AcDbEntity
8
0
100
AcDbLine
10
533.39999309737675
20
558
30
3.8926499590363761e-06
11
482.59999311829984
21
558
31
4.4772858831532147e-06
0
LINE
5
108
100
AcDbEntity
8
0
100
AcDbLine
10
482.59999311829984
20
558
30
4.4772858831532147e-06
11
482.59999311829984
21
552
31
4.4772858831532147e-06
0
LINE
5
109
100
AcDbEntity
8
0
100
AcDbLine
10
482.59999311829984
20
552
30
4.4772858831532147e-06
11
457.19999312876149
21
552
31
4.7696038452116341e-06
0
LINE
5
110
100
AcDbEntity
8
0
100
AcDbLine
10
457.19999312876149
20
552
30
4.7696038452116341e-06
11
457.19999312876149
21
558
31
4.7696037031030869e-06
0
LINE
5
111
100
AcDbEntity
8
0
100
AcDbLine
10
457.19999312876149
20
558
30
4.7696037031030869e-06
11
406.39999314968463
21
558
31
5.3542396272199255e-06
0
LINE
5
112
100
AcDbEntity
8
0
100
AcDbLine
10
406.39999314968463
20
558
30
5.3542396272199255e-06
11
406.39999314968463
21
552
31
5.3542396272199255e-06
0
LINE
5
113
100
AcDbEntity
8
0
100
AcDbLine
10
406.39999314968463
20
552
30
5.3542396272199255e-06
11
380.99999316014623
21
552
31
5.6465575903885679e-06
0
LINE
5
114
100
AcDbEntity
8
0
100
AcDbLine
10
380.99999316014623
20
552
30
5.6465575903885679e-06
11
380.99999316014623
21
558
31
5.6465575903885679e-06
0
LINE
5
115
100
AcDbEntity
8
0
100
AcDbLine
10
380.99999316014623
20
558
30
5.6465575903885679e-06
11
228.59999322291586
21
558
31
7.4004653627390837e-06
0
LINE
5
116
100
AcDbEntity
8
0
100
AcDbLine
10
228.59999322291586
20
558
30
7.4004653627390837e-06
11
228.59999322291586
21
552
31
7.4004653627390837e-06
0
LINE
5
117
100
AcDbEntity
8
0
100
AcDbLine
10
228.59999322291586
20
552
30
7.4004653627390837e-06
11
203.1999932333774
21
552
31
7.6927831837991789e-06
0
LINE
5
118
100
AcDbEntity
8
0
100
AcDbLine
10
203.1999932333774
20
552
30
7.6927831837991789e-06
11
203.1999932333774
21
558
31
7.6927831837991789e-06
0
LINE
5
119
100
AcDbEntity
8
0
100
AcDbLine
10
203.1999932333774
20
558
30
7.6927831837991789e-06
11
152.39999325430065
21
558
31
8.2774189658074704e-06
0
LINE
5
120
100
AcDbEntity
8
0
100
AcDbLine
10
152.39999325430065
20
558
30
8.2774189658074704e-06
11
152.39999325430065
21
552
31
8.2774191079160175e-06
0
LINE
5
121
100
AcDbEntity
8
0
100
AcDbLine
10
152.39999325430065
20
552
30
8.2774191079160175e-06
11
126.99999326476222
21
552.00000000000011
31
8.5697370699744368e-06
0
LINE
5
122
100
AcDbEntity
8
0
100
AcDbLine
10
126.99999326476222
20
552.00000000000011
30
8.5697370699744368e-06
11
126.99999326476222
21
558.00000000000011
31
8.5697369278658897e-06
0
LINE
5
123
100
AcDbEntity
8
0
100
AcDbLine
10
126.99999326476222
20
558.00000000000011
30
8.5697369278658897e-06
11
76.199993285685437
21
558.00000000000011
31
9.1543728519827283e-06
0
LINE
5
124
100
AcDbEntity
8
0
100
AcDbLine
10
76.199993285685437
20
558.00000000000011
30
9.1543728519827283e-06
11
76.199993285685437
21
552.00000000000011
31
9.1543728519827283e-06
0
LINE
5
125
100
AcDbEntity
8
0
100
AcDbLine
10
76.199993285685437
20
552.00000000000011
30
9.1543728519827283e-06
11
50.799993296146965
21
552.00000000000011
31
9.4466908140411476e-06
0
LINE
5
126
100
AcDbEntity
8
0
100
AcDbLine
10
50.799993296146965
20
552.00000000000011
30
9.4466908140411476e-06
11
50.799993296146965
21
558.00000000000011
31
9.4466908140411476e-06
0
LINE
5
127
100
AcDbEntity
8
0
100
AcDbLine
10
50.799993296146965
20
558.00000000000011
30
9.4466908140411476e-06
11
-1.2786445305899213e-05
21
558
31
1.0269745445157241e-05
0
LINE
5
128
100
AcDbEntity
8
0
100
AcDbLine
10
-1.2786445305899213e-05
20
558
30
1.0269745445157241e-05
11
-1.2786445170097024e-05
21
457.19999999999999
31
1.0269744521451685e-05
0
LINE
5
129
100
AcDbEntity
8
0
100
AcDbLine
10
-1.2786445170097024e-05
20
457.19999999999999
30
1.0269744521451685e-05
11
5.9999872110835897
21
457.19999999999999
31
1.0200693034700947e-05
0
LINE
5
130
100
AcDbEntity
8
0
100
AcDbLine
10
5.9999872110835897
20
457.19999999999999
30
1.0200693034700947e-05
11
5.9999872110835826
21
431.80000000000001
31
1.0200693034700947e-05
0
LINE
5
131
100
AcDbEntity
8
0
100
AcDbLine
10
5.9999872110835826
20
431.80000000000001
30
1.0200693034700947e-05
11
-1.2786445176721779e-05
21
431.80000000000001
31
1.0269744521451685e-05
0
LINE
5
132
100
AcDbEntity
8
0
100
AcDbLine
10
-1.2786445176721779e-05
20
431.80000000000001
30
1.0269744521451685e-05
11
-1.2786445183346532e-05
21
406.39999999999998
31
1.0269744636914879e-05
0
LINE
5
133
100
AcDbEntity
8
0
100
AcDbLine
10
-1.2786445183346532e-05
20
406.39999999999998
30
1.0269744636914879e-05
11
5.9999872110835764
21
406.39999999999998
31
1.0200693150164142e-05
0
LINE
5
134
100
AcDbEntity
8
0
100
AcDbLine
10
5.9999872110835764
20
406.39999999999998
30
1.0200693150164142e-05
11
5.999987211083571
21
381
31
1.0200693207895739e-05
0
LINE
5
135
100
AcDbEntity
8
0
100
AcDbLine
10
5.999987211083571
20
381
30
1.0200693207895739e-05
11
-1.2786445189971285e-05
21
381
31
1.0269744694646477e-05
0
LINE
5
136
100
AcDbEntity
8
0
100
AcDbLine
10
-1.2786445189971285e-05
20
381
30
1.0269744694646477e-05
11
-1.278644519659604e-05
21
355.60000000000002
31
1.0269744694646477e-05
0
LINE
5
137
100
AcDbEntity
8
0
100
AcDbLine
10
-1.278644519659604e-05
20
355.60000000000002
30
1.0269744694646477e-05
11
5.9999872110835639
21
355.60000000000002
31
1.0200693207895739e-05
0
LINE
5
138
100
AcDbEntity
8
0
100
AcDbLine
10
5.9999872110835639
20
355.60000000000002
30
1.0200693207895739e-05
11
5.9999872110835568
21
330.19999999999993
31
1.0200693323358934e-05
0
LINE
5
139
100
AcDbEntity
8
0
100
AcDbLine
10
5.9999872110835568
20
330.19999999999993
30
1.0200693323358934e-05
11
-1.2786445203220792e-05
21
330.19999999999993
31
1.0269744810109671e-05
0
LINE
5
140
100
AcDbEntity
8
0
100
AcDbLine
10
-1.2786445203220792e-05
20
330.19999999999993
30
1.0269744810109671e-05
11
-1.2786445209845548e-05
21
304.80000000000001
31
1.0269744810109671e-05
0
LINE
5
141
100
AcDbEntity
8
0
100
AcDbLine
10
-1.2786445209845548e-05
20
304.80000000000001
30
1.0269744810109671e-05
11
5.9999872110835506
21
304.80000000000001
31
1.0200693323358934e-05
0
LINE
5
142
100
AcDbEntity
8
0
100
AcDbLine
10
5.9999872110835506
20
304.80000000000001
30
1.0200693323358934e-05
11
5.9999872110835444
21
279.40000000000003
31
1.0200693381090531e-05
0
LINE
5
143
100
AcDbEntity
8
0
100
AcDbLine
10
5.9999872110835444
20
279.40000000000003
30
1.0200693381090531e-05
11
-1.27864452164703e-05
21
279.40000000000003
31
1.0269744867841268e-05
0
LINE
5
144
100
AcDbEntity
8
0
100
AcDbLine
10
-1.27864452164703e-05
20
279.40000000000003
30
1.0269744867841268e-05
11
-1.2786445223095054e-05
21
254
31
1.0269744983304463e-05
0
LINE
5
145
100
AcDbEntity
8
0
100
AcDbLine
10
-1.2786445223095054e-05
20
254
30
1.0269744983304463e-05
11
5.9999872110835373
21
254
31
1.0200693496553725e-05
0
LINE
5
146
100
AcDbEntity
8
0
100
AcDbLine
10
5.9999872110835373
20
254
30
1.0200693496553725e-05
11
5.9999872110835302
21
228.59999999999999
31
1.0200693496553725e-05
0
LINE
5
147
100
AcDbEntity
8
0
100
AcDbLine
10
5.9999872110835302
20
228.59999999999999
30
1.0200693496553725e-05
11
-1.2786445229719807e-05
21
228.59999999999999
31
1.0269744983304463e-05
0
LINE
5
148
100
AcDbEntity
8
0
100
AcDbLine
10
-1.2786445229719807e-05
20
228.59999999999999
30
1.0269744983304463e-05
11
-1.2786445236344562e-05
21
203.19999999999999
31
1.026974504103606e-05
0
LINE
5
149
100
AcDbEntity
8
0
100
AcDbLine
10
-1.2786445236344562e-05
20
203.19999999999999
30
1.026974504103606e-05
11
5.999987211083524
21
203.19999999999999
31
1.0200693554285323e-05
0
LINE
5
150
100
AcDbEntity
8
0
100
AcDbLine
10
5.999987211083524
20
203.19999999999999
30
1.0200693554285323e-05
11
5.9999872110835177
21
177.80000000000001
31
1.0200693554285323e-05
0
LINE
5
151
100
AcDbEntity
8
0
100
AcDbLine
10
5.9999872110835177
20
177.80000000000001
30
1.0200693554285323e-05
11
-1.2786445242969315e-05
21
177.80000000000001
31
1.026974504103606e-05
0
LINE
5
152
100
AcDbEntity
8
0
100
AcDbLine
10
-1.2786445242969315e-05
20
177.80000000000001
30
1.026974504103606e-05
11
-1.278644524959407e-05
21
152.39999999999998
31
1.0269745098767658e-05
0
LINE
5
153
100
AcDbEntity
8
0
100
AcDbLine
10
-1.278644524959407e-05
20
152.39999999999998
30
1.0269745098767658e-05
11
5.9999872110835106
21
152.39999999999998
31
1.020069361201692e-05
0
LINE
5
154
100
AcDbEntity
8
0
100
AcDbLine
10
5.9999872110835106
20
152.39999999999998
30
1.020069361201692e-05
11
5.9999872110835035
21
126.99999999999997
31
1.0200693669748517e-05
0
LINE
5
155
100
AcDbEntity
8
0
100
AcDbLine
10
5.9999872110835035
20
126.99999999999997
30
1.0200693669748517e-05
11
-1.2786445256218823e-05
21
126.99999999999997
31
1.0269745156499255e-05
0
LINE
5
156
100
AcDbEntity
8
0
100
AcDbLine
10
-1.2786445256218823e-05
20
126.99999999999997
30
1.0269745156499255e-05
11
-1.2786445262843576e-05
21
101.59999999999998
31
1.0269745214230852e-05
0
LINE
5
157
100
AcDbEntity
8
0
100
AcDbLine
10
-1.2786445262843576e-05
20
101.59999999999998
30
1.0269745214230852e-05
11
5.9999872110834973
21
101.59999999999998
31
1.0200693727480115e-05
0
LINE
5
158
100
AcDbEntity
8
0
100
AcDbLine
10
5.9999872110834973
20
101.59999999999998
30
1.0200693727480115e-05
11
5.9999872110834911
21
76.199999999999989
31
1.0200693785211712e-05
0
LINE
5
159
100
AcDbEntity
8
0
100
AcDbLine
10
5.9999872110834911
20
76.199999999999989
30
1.0200693785211712e-05
11
-1.2786445269468329e-05
21
76.199999999999989
31
1.0269745271962449e-05
0
LINE
5
160
100
AcDbEntity
8
0
100
AcDbLine
10
-1.2786445269468329e-05
20
76.199999999999989
30
1.0269745271962449e-05
11
-1.2786445276093084e-05
21
50.799999999999983
31
1.0269745329694047e-05
0
LINE
5
161
100
AcDbEntity
8
0
100
AcDbLine
10
-1.2786445276093084e-05
20
50.799999999999983
30
1.0269745329694047e-05
11
5.999987211083484
21
50.799999999999983
31
1.0200693842943309e-05
0
LINE
5
162
100
AcDbEntity
8
0
100
AcDbLine
10
5.999987211083484
20
50.799999999999983
30
1.0200693842943309e-05
11
5.9999872110834769
21
25.399999999999988
31
1.0200693900674906e-05
0
LINE
5
163
100
AcDbEntity
8
0
100
AcDbLine
10
5.9999872110834769
20
25.399999999999988
30
1.0200693900674906e-05
11
-1.2786445282717837e-05
21
25.399999999999988
31
1.0269745387425644e-05
0
LINE
5
164
100
AcDbEntity
8
0
100
AcDbLine
10
-1.2786445282717837e-05
20
25.399999999999988
30
1.0269745387425644e-05
11
-1.278644528934259e-05
21
-1.5179829755124685e-14
31
1.0269745445157241e-05
0
LINE
5
165
100
AcDbEntity
8
0
100
AcDbLine
10
-1.278644528934259e-05
20
-1.5179829755124685e-14
30
1.0269745445157241e-05
11
50.799987192631384
21
-2.8429337886070598e-14
31
9.6851095210404026e-06
0
LINE
5
166
100
AcDbEntity
8
0
100
AcDbLine
10
50.799987192631384
20
-2.8429337886070598e-14
30
9.6851095210404026e-06
11
50.799987192631384
21
5.9999999999999716
31
9.6851095210404026e-06
0
LINE
5
167
100
AcDbEntity
8
0
100
AcDbLine
10
50.799987192631384
20
5.9999999999999716
30
9.6851095210404026e-06
11
76.199987182169878
21
5.9999999999999654
31
9.3927915589819833e-06
0
LINE
5
168
100
AcDbEntity
8
0
100
AcDbLine
10
76.199987182169878
20
5.9999999999999654
30
9.3927915589819833e-06
11
76.199987182169878
21
-3.5054091951543589e-14
31
9.3927915589819833e-06
0
LINE
5
169
100
AcDbEntity
8
0
100
AcDbLine
10
76.199987182169878
20
-3.5054091951543589e-14
30
9.3927915589819833e-06
11
126.99998716124666
21
-4.8303600082489527e-14
31
8.8081556337549216e-06
0
LINE
5
170
100
AcDbEntity
8
0
100
AcDbLine
10
126.99998716124666
20
-4.8303600082489527e-14
30
8.8081556337549216e-06
11
126.99998716124666
21
5.999999999999952
31
8.8081556337549216e-06
0
LINE
5
171
100
AcDbEntity
8
0
100
AcDbLine
10
126.99998716124666
20
5.999999999999952
30
8.8081556337549216e-06
11
152.39998715078508
21
5.9999999999999449
31
8.5158376716965023e-06
0
LINE
5
172
100
AcDbEntity
8
0
100
AcDbLine
10
152.39998715078508
20
5.9999999999999449
30
8.5158376716965023e-06
11
152.39998715078508
21
-5.4928354147962486e-14
31
8.5158376716965023e-06
0
LINE
5
173
100
AcDbEntity
8
0
100
AcDbLine
10
152.39998715078508
20
-5.4928354147962486e-14
30
8.5158376716965023e-06
11
203.19998712986182
21
-6.8177862278908424e-14
31
7.9312017475796637e-06
0
LINE
5
174
100
AcDbEntity
8
0
100
AcDbLine
10
203.19998712986182
20
-6.8177862278908424e-14
30
7.9312017475796637e-06
11
203.19998712986182
21
5.9999999999999325
31
7.9312017475796637e-06
0
LINE
5
175
100
AcDbEntity
8
0
100
AcDbLine
10
203.19998712986182
20
5.9999999999999325
30
7.9312017475796637e-06
11
228.59998711940028
21
5.9999999999999254
31
7.6388837855212444e-06
0
LINE
5
176
100
AcDbEntity
8
0
100
AcDbLine
10
228.59998711940028
20
5.9999999999999254
30
7.6388837855212444e-06
11
228.59998711940028
21
-7.4802616344381409e-14
31
7.6388837855212444e-06
0
LINE
5
177
100
AcDbEntity
8
0
100
AcDbLine
10
228.59998711940028
20
-7.4802616344381409e-14
30
7.6388837855212444e-06
11
380.99998705663069
21
-1.1455114073721924e-13
31
5.8849760120605055e-06
0
LINE
5
178
100
AcDbEntity
8
0
100
AcDbLine
10
380.99998705663069
20
-1.1455114073721924e-13
30
5.8849760120605055e-06
11
380.99998705663069
21
5.9999999999998854
31
5.8849760120605055e-06
0
LINE
5
179
100
AcDbEntity
8
0
100
AcDbLine
10
380.99998705663069
20
5.9999999999998854
30
5.8849760120605055e-06
11
431.79998703570766
21
5.999999999999873
31
5.3003400879436668e-06
0
LINE
5
180
100
AcDbEntity
8
0
100
AcDbLine
10
431.79998703570766
20
5.999999999999873
30
5.3003400879436668e-06
11
431.79998703570766
21
-1.2780064886816521e-13
31
5.3003400879436668e-06
0
LINE
5
181
100
AcDbEntity
8
0
100
AcDbLine
10
431.79998703570766
20
-1.2780064886816521e-13
30
5.3003400879436668e-06
11
457.19998702524595
21
-1.3442540293363813e-13
31
5.0080221247750245e-06
0
LINE
5
182
100
AcDbEntity
8
0
100
AcDbLine
10
457.19998702524595
20
-1.3442540293363813e-13
30
5.0080221247750245e-06
11
457.19998702524595
21
5.9999999999998668
31
5.0080221247750245e-06
0
LINE
5
183
100
AcDbEntity
8
0
100
AcDbLine
10
457.19998702524595
20
5.9999999999998668
30
5.0080221247750245e-06
11
507.99998700432286
21
5.9999999999998535
31
4.4233862006581859e-06
0
LINE
5
184
100
AcDbEntity
8
0
100
AcDbLine
10
507.99998700432286
20
5.9999999999998535
30
4.4233862006581859e-06
11
507.99998700432286
21
-1.476749110645841e-13
31
4.4233862006581859e-06
0
LINE
5
185
100
AcDbEntity
8
0
100
AcDbLine
10
507.99998700432286
20
-1.476749110645841e-13
30
4.4233862006581859e-06
11
533.39998699386115
21
-1.5429966513005707e-13
31
4.1310682385997666e-06
0
LINE
5
186
100
AcDbEntity
8
0
100
AcDbLine
10
533.39998699386115
20
-1.5429966513005707e-13
30
4.1310682385997666e-06
11
533.39998699386115
21
5.9999999999998463
31
4.1310682385997666e-06
0
LINE
5
187
100
AcDbEntity
8
0
100
AcDbLine
10
533.39998699386115
20
5.9999999999998463
30
4.1310682385997666e-06
11
584.19998697293818
21
5.999999999999833
31
3.5464323144829279e-06
0
LINE
5
188
100
AcDbEntity
8
0
100
AcDbLine
10
584.19998697293818
20
5.999999999999833
30
3.5464323144829279e-06
11
584.19998697293818
21
-1.6754917326100307e-13
31
3.5464323144829279e-06
0
LINE
5
189
100
AcDbEntity
8
0
100
AcDbLine
10
584.19998697293818
20
-1.6754917326100307e-13
30
3.5464323144829279e-06
11
609.59998696247624
21
-1.7417392732647596e-13
31
3.2541143524245086e-06
0
LINE
5
190
100
AcDbEntity
8
0
100
AcDbLine
10
609.59998696247624
20
-1.7417392732647596e-13
30
3.2541143524245086e-06
11
609.59998696247624
21
25.399999999999828
31
3.2541142946929114e-06
0
LINE
5
191
100
AcDbEntity
8
0
100
AcDbLine
10
609.59998696247624
20
25.399999999999828
30
3.2541142946929114e-06
11
603.59998696494745
21
25.399999999999832
31
3.3231657814436488e-06
0
LINE
5
192
100
AcDbEntity
8
0
100
AcDbLine
10
603.59998696494745
20
25.399999999999832
30
3.3231657814436488e-06
11
603.59998696494745
21
50.799999999999827
31
3.3231657237120515e-06
0
LINE
5
193
100
AcDbEntity
8
0
100
AcDbLine
10
603.59998696494745
20
50.799999999999827
30
3.3231657237120515e-06
11
609.59998696247624
21
50.799999999999827
31
3.2541142369613141e-06
0
LINE
5
194
100
AcDbEntity
8
0
100
AcDbLine
10
609.59998696247624
20
50.799999999999827
30
3.2541142369613141e-06
11
609.59998696247624
21
76.199999999999818
31
3.2541141792297168e-06
0
LINE
5
195
100
AcDbEntity
8
0
100
AcDbLine
10
609.59998696247624
20
76.199999999999818
30
3.2541141792297168e-06
11
603.59998696494745
21
76.199999999999818
31
3.3231656659804543e-06
0
LINE
5
196
100
AcDbEntity
8
0
100
AcDbLine
10
603.59998696494745
20
76.199999999999818
30
3.3231656659804543e-06
11
603.59998696494745
21
101.59999999999982
31
3.323165608248857e-06
0
LINE
5
197
100
AcDbEntity
8
0
100
AcDbLine
10
603.59998696494745
20
101.59999999999982
30
3.323165608248857e-06
11
609.59998696247624
21
101.59999999999982
31
3.2541141214981195e-06
0
LINE
5
198
100
AcDbEntity
8
0
100
AcDbLine
10
609.59998696247624
20
101.59999999999982
30
3.2541141214981195e-06
11
609.59998696247624
21
126.99999999999982
31
3.2541140637665222e-06
0
LINE
5
199
100
AcDbEntity
8
0
100
AcDbLine
10
609.59998696247624
20
126.99999999999982
30
3.2541140637665222e-06
11
603.59998696494745
21
126.99999999999982
31
3.3231655505172597e-06
0
LINE
5
200
100
AcDbEntity
8
0
100
AcDbLine
10
603.59998696494745
20
126.99999999999982
30
3.3231655505172597e-06
11
603.59998696494756
21
152.39999999999984
31
3.3231654927856624e-06
0
LINE
5
201
100
AcDbEntity
8
0
100
AcDbLine
10
603.59998696494756
20
152.39999999999984
30
3.3231654927856624e-06
11
609.59998696247635
21
152.39999999999984
31
3.254114006034925e-06
0
LINE
5
202
100
AcDbEntity
8
0
100
AcDbLine
10
609.59998696247635
20
152.39999999999984
30
3.254114006034925e-06
11
609.59998696247635
21
177.79999999999987
31
3.2541139483033277e-06
0
LINE
5
203
100
AcDbEntity
8
0
100
AcDbLine
10
609.59998696247635
20
177.79999999999987
30
3.2541139483033277e-06
11
603.59998696494756
21
177.79999999999987
31
3.3231654350540651e-06
0
LINE
5
204
100
AcDbEntity
8
0
100
AcDbLine
10
603.59998696494756
20
177.79999999999987
30
3.3231654350540651e-06
11
603.59998696494756
21
203.19999999999987
31
3.3231654350540651e-06
0
LINE
5
205
100
AcDbEntity
8
0
100
AcDbLine
10
603.59998696494756
20
203.19999999999987
30
3.3231654350540651e-06
11
609.59998696247635
21
203.19999999999987
31
3.2541139483033277e-06
0
LINE
5
206
100
AcDbEntity
8
0
100
AcDbLine
10
609.59998696247635
20
203.19999999999987
30
3.2541139483033277e-06
11
609.59998696247635
21
228.59999999999985
31
3.2541138905717304e-06
0
LINE
5
207
100
AcDbEntity
8
0
100
AcDbLine
10
609.59998696247635
20
228.59999999999985
30
3.2541138905717304e-06
11
603.59998696494756
21
228.59999999999985
31
3.3231653773224679e-06
0
LINE
5
208
100
AcDbEntity
8
0
100
AcDbLine
10
603.59998696494756
20
228.59999999999985
30
3.3231653773224679e-06
11
603.59998696494756
21
253.99999999999983
31
3.3231653773224679e-06
0
LINE
5
209
100
AcDbEntity
8
0
100
AcDbLine
10
603.59998696494756
20
253.99999999999983
30
3.3231653773224679e-06
11
609.59998696247635
21
253.99999999999983
31
3.2541138905717304e-06
0
LINE
5
210
100
AcDbEntity
8
0
100
AcDbLine
10
609.59998696247635
20
253.99999999999983
30
3.2541138905717304e-06
11
609.59998696247635
21
279.39999999999986
31
3.2541137751085358e-06
0
LINE
5
211
100
AcDbEntity
8
0
100
AcDbLine
10
609.59998696247635
20
279.39999999999986
30
3.2541137751085358e-06
11
603.59998696494756
21
279.39999999999986
31
3.3231652618592733e-06
0
LINE
5
212
100
AcDbEntity
8
0
100
AcDbLine
10
603.59998696494756
20
279.39999999999986
30
3.3231652618592733e-06
11
603.59998696494756
21
304.79999999999984
31
3.323165204127676e-06
0
LINE
5
213
100
AcDbEntity
8
0
100
AcDbLine
10
603.59998696494756
20
304.79999999999984
30
3.323165204127676e-06
11
609.59998696247635
21
304.79999999999984
31
3.2541137173769386e-06
0
LINE
5
214
100
AcDbEntity
8
0
100
AcDbLine
10
609.59998696247635
20
304.79999999999984
30
3.2541137173769386e-06
11
609.59998696247635
21
330.19999999999982
31
3.2541137173769386e-06
0
LINE
5
215
100
AcDbEntity
8
0
100
AcDbLine
10
609.59998696247635
20
330.19999999999982
30
3.2541137173769386e-06
11
603.59998696494756
21
330.19999999999982
31
3.323165204127676e-06
0
LINE
5
216
100
AcDbEntity
8
0
100
AcDbLine
10
603.59998696494756
20
330.19999999999982
30
3.323165204127676e-06
11
603.59998696494756
21
355.59999999999991
31
3.3231650886644815e-06
0
LINE
5
217
100
AcDbEntity
8
0
100
AcDbLine
10
603.59998696494756
20
355.59999999999991
30
3.3231650886644815e-06
11
609.59998696247635
21
355.59999999999991
31
3.254113601913744e-06
0
LINE
5
218
100
AcDbEntity
8
0
100
AcDbLine
10
609.59998696247635
20
355.59999999999991
30
3.254113601913744e-06
11
609.59998696247635
21
380.99999999999989
31
3.254113601913744e-06
0
LINE
5
219
100
AcDbEntity
8
0
100
AcDbLine
10
609.59998696247635
20
380.99999999999989
30
3.254113601913744e-06
11
603.59998696494756
21
380.99999999999989
31
3.3231650886644815e-06
0
LINE
5
220
100
AcDbEntity
8
0
100
AcDbLine
10
603.59998696494756
20
380.99999999999989
30
3.3231650886644815e-06
11
603.59998696494756
21
406.39999999999986
31
3.3231650309328842e-06
0
LINE
5
221
100
AcDbEntity
8
0
100
AcDbLine
10
603.59998696494756
20
406.39999999999986
30
3.3231650309328842e-06
11
609.59998696247635
21
406.39999999999986
31
3.2541135441821467e-06
0
LINE
5
222
100
AcDbEntity
8
0
100
AcDbLine
10
609.59998696247635
20
406.39999999999986
30
3.2541135441821467e-06
11
609.59998696247635
21
431.79999999999984
31
3.2541134287189522e-06
0
LINE
5
223
100
AcDbEntity
8
0
100
AcDbLine
10
609.59998696247635
20
431.79999999999984
30
3.2541134287189522e-06
11
603.59998696494768
21
431.79999999999984
31
3.3231649154696896e-06
0
LINE
5
224
100
AcDbEntity
8
0
100
AcDbLine
10
603.59998696494768
20
431.79999999999984
30
3.3231649154696896e-06
11
603.59998696494768
21
457.19999999999982
31
3.3231649154696896e-06
0
LINE
5
225
100
AcDbEntity
8
0
100
AcDbLine
10
603.59998696494768
20
457.19999999999982
30
3.3231649154696896e-06
11
609.59998696247635
21
457.19999999999982
31
3.2541134287189522e-06
0
LINE
5
226
100
AcDbEntity
8
0
100
AcDbLine
10
609.59998696247635
20
457.19999999999982
30
3.2541134287189522e-06
11
609.59998696247658
21
557.99999999999989
31
3.2541143524245086e-06
0
LINE
5
227
100
AcDbEntity
8
0
100
AcDbLine
10
609.59998696247658
20
557.99999999999989
30
3.2541143524245086e-06
11
558.79999308691515
21
558
31
3.6003319969779568e-06
0
LINE
5
228
100
AcDbEntity
8
0
100
AcDbLine
10
558.79999308691515
20
558
30
3.6003319969779568e-06
11
558.79999308691515
21
552
31
3.6003319969779568e-06
0
LINE
5
229
100
AcDbEntity
8
0
100
AcDbLine
10
558.79999308691515
20
552
30
3.6003319969779568e-06
11
533.39999309737675
21
552
31
3.8926499590363761e-06
0
LINE
5
230
100
AcDbEntity
8
0
100
AcDbLine
10
101.59998717170829
20
107.59999999999997
30
9.100473644663154e-06
11
101.59998717170834
21
285.39999999999998
31
9.100473644663154e-06
0
ARC
5
231
100
AcDbEntity
8
0
100
AcDbCircle
10
152.39998715078517
20
285.39999999999998
30
8.5158377294280996e-06
40
50.799999999999947
210
2.2926315910617525e-32
220
6.5564351847942384e-17
230
1
100
AcDbArc
50
89.999999999999972
51
180
0
LINE
5
232
100
AcDbEntity
8
0
100
AcDbLine
10
152.39998715078519
20
336.19999999999993
30
8.5158377260974305e-06
11
457.19998702524612
21
336.19999999999982
31
5.0080221392079238e-06
0
ARC
5
233
100
AcDbEntity
8
0
100
AcDbCircle
10
457.19998702524606
20
285.39999999999998
30
1.0269745362396329e-05
40
50.799999979076851
210
1.1508581209997195e-08
220
-8.0485617923589739e-24
230
1
100
AcDbArc
50
0
51
90
0
LINE
5
234
100
AcDbEntity
8
0
100
AcDbLine
10
507.99998700432297
20
285.39999999999986
30
4.4233862572795601e-06
11
507.99998700432292
21
107.59999999999984
31
4.4233862095399701e-06
0
ARC
5
235
100
AcDbEntity
8
0
100
AcDbCircle
10
457.19998702524606
20
107.59999999999985
30
5.0080221825066218e-06
40
50.79999999999999
210
0
220
6.5564351847942322e-17
230
1
100
AcDbArc
50
270
51
360
0
LINE
5
236
100
AcDbEntity
8
0
100
AcDbLine
10
457.19998702524606
20
56.799999999999862
30
5.0080221858372909e-06
11
152.39998715078511
21
56.79999999999994
31
8.5158376816885095e-06
0
ARC
5
237
100
AcDbEntity
8
0
100
AcDbCircle
10
152.39998715078502
20
107.59999999999997
30
1.0269745327979418e-05
40
50.799999979076837
210
1.1508581013304144e-08
220
-4.0242808274005425e-24
230
1
100
AcDbArc
50
180
51
269.99999999999994
0
ENDSEC
0
SECTION
2
OBJECTS
0
DICTIONARY
5
C
100
AcDbDictionary
3
ACAD_GROUP
350
D
3
ACAD_MLINESTYLE
350
17
0
DICTIONARY
5
D
100
AcDbDictionary
0
DICTIONARY
5
1A
330
C
100
AcDbDictionary
0
DICTIONARY
5
17
100
AcDbDictionary
0
ENDSEC
0
EOF
