0
SECTION
2
HEADER
9
$INSUNITS
70
4
9
$ACADVER
1
AC1014
9
$HANDSEED
5
FFFF
0
ENDSEC
0
SECTION
2
TABLES
0
TABLE
2
VPORT
5
8
100
AcDbSymbolTable
0
ENDTAB
0
TABLE
2
LTYPE
5
5
100
AcDbSymbolTable
0
LTYPE
5
14
100
AcDbSymbolTableRecord
100
AcDbLinetypeTableRecord
2
BYBLOCK
70
0
0
LTYPE
5
15
100
AcDbSymbolTableRecord
100
AcDbLinetypeTableRecord
2
BYLAYER
70
0
0
ENDTAB
0
TABLE
2
LAYER
5
2
100
AcDbSymbolTable
70
2
0
LAYER
5
50
100
AcDbSymbolTableRecord
100
AcDbLayerTableRecord
2
0
70
0
6
CONTINUOUS
0
ENDTAB
0
TABLE
2
STYLE
5
3
100
AcDbSymbolTable
70
1
0
STYLE
5
11
100
AcDbSymbolTableRecord
100
AcDbTextStyleTableRecord
2
STANDARD
70
0
0
ENDTAB
0
TABLE
2
VIEW
5
6
100
AcDbSymbolTable
70
0
0
ENDTAB
0
TABLE
2
UCS
5
7
100
AcDbSymbolTable
70
0
0
ENDTAB
0
TABLE
2
APPID
5
9
100
AcDbSymbolTable
70
2
0
APPID
5
12
100
AcDbSymbolTableRecord
100
AcDbRegAppTableRecord
2
ACAD
70
0
0
ENDTAB
0
TABLE
2
DIMSTYLE
5
A
100
AcDbSymbolTable
70
1
0
ENDTAB
0
TABLE
2
BLOCK_RECORD
5
1
100
AcDbSymbolTable
70
1
0
BLOCK_RECORD
5
1F
100
AcDbSymbolTableRecord
100
AcDbBlockTableRecord
2
*MODEL_SPACE
0
BLOCK_RECORD
5
1B
100
AcDbSymbolTableRecord
100
AcDbBlockTableRecord
2
*PAPER_SPACE
0
ENDTAB
0
ENDSEC
0
SECTION
2
BLOCKS
0
BLOCK
5
20
100
AcDbEntity
100
AcDbBlockBegin
2
*MODEL_SPACE
0
ENDBLK
5
21
100
AcDbEntity
100
AcDbBlockEnd
0
BLOCK
5
1C
100
AcDbEntity
100
AcDbBlockBegin
2
*PAPER_SPACE
0
ENDBLK
5
1D
100
AcDbEntity
100
AcDbBlockEnd
0
ENDSEC
0
SECTION
2
ENTITIES
0
LWPOLYLINE
5
100
100
AcDbEntity
8
0
100
AcDbPolyline
90
64
70
1
43
0.0
10
-304.8000000000003
20
558.00001678466811
10
-304.8000000000003
20
8.4598994476437055e-14
10
-228.60000000000014
20
6.3449245857327785e-14
10
-228.60000000000014
20
6.0000000000000639
10
-203.20000000000007
20
6.0000000000000577
10
-203.20000000000007
20
5.6399329650958015e-14
10
-152.40000000000006
20
4.2299497238218502e-14
10
-152.40000000000006
20
6.0000000000000426
10
-127.00000000000003
20
6.0000000000000364
10
-127.00000000000003
20
3.5249581031848752e-14
10
-76.200000000000031
20
2.1149748619109251e-14
10
-76.200000000000031
20
6.0000000000000222
10
-50.799999999999926
20
6.0000000000000151
10
-50.799999999999926
20
1.4099832412739479e-14
10
0
20
0
10
7.0499162063697496e-15
20
25.399999999999999
10
-6.0000000000000009
20
25.399999999999999
10
-5.9999999999999929
20
50.799999999999997
10
1.4099832412739499e-14
20
50.799999999999997
10
2.1149748619109248e-14
20
76.200000000000003
10
-5.9999999999999867
20
76.200000000000003
10
-5.9999999999999796
20
101.59999999999999
10
2.8199664825478998e-14
20
101.59999999999999
10
3.5249581031848745e-14
20
127
10
-5.9999999999999716
20
127
10
-5.9999999999999654
20
152.40000000000001
10
4.2299497238218496e-14
20
152.40000000000001
10
4.9349413444588246e-14
20
177.80000000000001
10
-5.9999999999999591
20
177.80000000000001
10
-5.9999999999999512
20
203.19999999999999
10
5.6399329650957996e-14
20
203.19999999999999
10
-1.1640688413194781e-13
20
228.59999999999999
10
-6.0000000000001243
20
228.59999999999999
10
-6.0000000000001164
20
254
10
-1.0935696792557806e-13
20
254
10
7.7549078270067235e-14
20
279.40000000000003
10
-5.9999999999999298
20
279.40000000000003
10
-5.9999999999999236
20
304.80000000000001
10
8.4598994476436991e-14
20
304.80000000000001
10
9.1648910682806736e-14
20
330.19999999999993
10
-5.9999999999999156
20
330.19999999999993
10
-5.9999999999999085
20
355.60000000000002
10
9.8698826889176492e-14
20
355.60000000000002
10
-7.4107386893729313e-14
20
381
10
-6.0000000000000817
20
381
10
-6.0000000000000746
20
406.39999999999998
10
-6.7057470687359556e-14
20
406.39999999999998
10
-6.0007554480989812e-14
20
431.80000000000001
10
-6.0000000000000675
20
431.80000000000001
10
-6.0000000000000604
20
457.19999999999999
10
-5.2957638274620068e-14
20
457.19999999999999
10
1.5487611659389065e-13
20
558.00001678466799
10
-50.800006103515905
20
558.00001678466799
10
-50.800006103515905
20
551.99999999999648
10
-76.200006103516003
20
551.99999999999648
10
-76.200006103516003
20
558.00001678466799
10
-127.000006103516
20
558.00001678466799
10
-127.000006103516
20
551.99999999999648
10
-152.40000610351603
20
551.99999999999659
10
-152.40000610351603
20
558.00001678466811
10
-203.20000610351605
20
558.00001678466811
10
-203.20000610351605
20
551.99999999999659
10
-228.60000610351614
20
551.99999999999659
10
-228.60000610351614
20
558.00001678466811
0
ENDSEC
0
SECTION
2
OBJECTS
0
DICTIONARY
5
C
100
AcDbDictionary
3
ACAD_GROUP
350
D
3
ACAD_MLINESTYLE
350
17
0
DICTIONARY
5
D
100
AcDbDictionary
0
DICTIONARY
5
1A
330
C
100
AcDbDictionary
0
DICTIONARY
5
17
100
AcDbDictionary
0
ENDSEC
0
EOF
