0
SECTION
2
HEADER
9
$INSUNITS
70
4
9
$ACADVER
1
AC1014
9
$HANDSEED
5
FFFF
0
ENDSEC
0
SECTION
2
TABLES
0
TABLE
2
VPORT
5
8
100
AcDbSymbolTable
0
ENDTAB
0
TABLE
2
LTYPE
5
5
100
AcDbSymbolTable
0
LTYPE
5
14
100
AcDbSymbolTableRecord
100
AcDbLinetypeTableRecord
2
BYBLOCK
70
0
0
LTYPE
5
15
100
AcDbSymbolTableRecord
100
AcDbLinetypeTableRecord
2
BYLAYER
70
0
0
ENDTAB
0
TABLE
2
LAYER
5
2
100
AcDbSymbolTable
70
2
0
LAYER
5
50
100
AcDbSymbolTableRecord
100
AcDbLayerTableRecord
2
0
70
0
6
CONTINUOUS
0
ENDTAB
0
TABLE
2
STYLE
5
3
100
AcDbSymbolTable
70
1
0
STYLE
5
11
100
AcDbSymbolTableRecord
100
AcDbTextStyleTableRecord
2
STANDARD
70
0
0
ENDTAB
0
TABLE
2
VIEW
5
6
100
AcDbSymbolTable
70
0
0
ENDTAB
0
TABLE
2
UCS
5
7
100
AcDbSymbolTable
70
0
0
ENDTAB
0
TABLE
2
APPID
5
9
100
AcDbSymbolTable
70
2
0
APPID
5
12
100
AcDbSymbolTableRecord
100
AcDbRegAppTableRecord
2
ACAD
70
0
0
ENDTAB
0
TABLE
2
DIMSTYLE
5
A
100
AcDbSymbolTable
70
1
0
ENDTAB
0
TABLE
2
BLOCK_RECORD
5
1
100
AcDbSymbolTable
70
1
0
BLOCK_RECORD
5
1F
100
AcDbSymbolTableRecord
100
AcDbBlockTableRecord
2
*MODEL_SPACE
0
BLOCK_RECORD
5
1B
100
AcDbSymbolTableRecord
100
AcDbBlockTableRecord
2
*PAPER_SPACE
0
ENDTAB
0
ENDSEC
0
SECTION
2
BLOCKS
0
BLOCK
5
20
100
AcDbEntity
100
AcDbBlockBegin
2
*MODEL_SPACE
0
ENDBLK
5
21
100
AcDbEntity
100
AcDbBlockEnd
0
BLOCK
5
1C
100
AcDbEntity
100
AcDbBlockBegin
2
*PAPER_SPACE
0
ENDBLK
5
1D
100
AcDbEntity
100
AcDbBlockEnd
0
ENDSEC
0
SECTION
2
ENTITIES
0
LWPOLYLINE
5
100
100
AcDbEntity
8
0
100
AcDbPolyline
90
124
70
1
43
0.0
10
-584.20000586289984
20
551.99999999999636
10
-584.20000586289984
20
558.00001678466788
10
-609.59999974892219
20
558.00001678466788
10
-609.59999974892196
20
457.19999999999982
10
-603.59999975139328
20
457.19999999999982
10
-603.59999975139328
20
431.79999999999984
10
-609.59999974892196
20
431.79999999999984
10
-609.59999974892196
20
406.39999999999986
10
-603.59999975139317
20
406.39999999999986
10
-603.59999975139317
20
380.99999999999989
10
-609.59999974892196
20
380.99999999999989
10
-609.59999974892207
20
355.59999999999991
10
-603.59999975139328
20
355.59999999999991
10
-603.59999975139328
20
330.19999999999982
10
-609.59999974892207
20
330.19999999999982
10
-609.59999974892207
20
304.79999999999984
10
-603.59999975139328
20
304.79999999999984
10
-603.59999975139328
20
279.39999999999986
10
-609.59999974892207
20
279.39999999999986
10
-609.59999974892196
20
253.99999999999983
10
-603.59999975139317
20
253.99999999999983
10
-603.59999975139317
20
228.59999999999985
10
-609.59999974892196
20
228.59999999999985
10
-609.59999974892207
20
203.19999999999987
10
-603.59999975139328
20
203.19999999999987
10
-603.59999975139328
20
177.79999999999987
10
-609.59999974892207
20
177.79999999999987
10
-609.59999974892207
20
152.39999999999984
10
-603.59999975139328
20
152.39999999999984
10
-603.59999975139328
20
126.99999999999983
10
-609.59999974892207
20
126.99999999999983
10
-609.59999974892207
20
101.59999999999984
10
-603.59999975139328
20
101.59999999999984
10
-603.59999975139328
20
76.199999999999847
10
-609.59999974892207
20
76.199999999999847
10
-609.59999974892207
20
50.799999999999841
10
-603.59999975139328
20
50.799999999999841
10
-603.59999975139328
20
25.399999999999846
10
-609.59999974892207
20
25.399999999999842
10
-609.59999974892207
20
-1.5899409757135141e-13
10
-558.79999976984504
20
-1.4574458944040539e-13
10
-558.79999976984504
20
5.9999999999998552
10
-533.39999978030664
20
5.9999999999998623
10
-533.39999978030664
20
-1.3911983537493241e-13
10
-482.59999980122979
20
-1.2587032724398647e-13
10
-482.59999980122979
20
5.9999999999998757
10
-457.19999981169133
20
5.9999999999998819
10
-457.19999981169133
20
-1.192455731785135e-13
10
-406.39999983261453
20
-1.0599606504756755e-13
10
-406.39999983261453
20
5.9999999999998952
10
-380.99999984307607
20
5.9999999999999005
10
-380.99999984307607
20
-9.9371310982094581e-14
10
-228.59999990584566
20
-5.9622786589256749e-14
10
-228.59999990584566
20
5.9999999999999414
10
-203.19999991630723
20
5.9999999999999476
10
-203.19999991630723
20
-5.2998032523783764e-14
10
-152.3999999372304
20
-3.974852439283782e-14
10
-152.3999999372304
20
5.9999999999999609
10
-126.99999994769199
20
5.999999999999968
10
-126.99999994769199
20
-3.3123770327364848e-14
10
-76.199999968615202
20
-1.987426219641891e-14
10
-76.199999968615202
20
5.9999999999999805
10
-50.799999979076716
20
5.9999999999999876
10
-50.799999979076716
20
-1.3249508130945919e-14
10
0
20
0
10
-6.6247535718758524e-15
20
25.399999999999999
10
-5.9999999975287688
20
25.399999999999999
10
-5.999999997528775
20
50.799999999999997
10
-1.3249507143751705e-14
20
50.799999999999997
10
-1.987426071562756e-14
20
76.200000000000003
10
-5.9999999975287821
20
76.200000000000003
10
-5.9999999975287892
20
101.59999999999999
10
-2.649901428750341e-14
20
101.59999999999999
10
-3.3123767859379263e-14
20
127
10
-5.9999999975287954
20
127
10
-5.9999999975288016
20
152.40000000000001
10
-3.9748521431255119e-14
20
152.40000000000001
10
-4.6373275003130969e-14
20
177.80000000000001
10
-5.9999999975288087
20
177.80000000000001
10
-5.9999999975288159
20
203.19999999999999
10
-5.2998029239415602e-14
20
203.19999999999999
10
-2.3947891339089769e-13
20
228.59999999999999
10
-5.9999999975290024
20
228.59999999999999
10
-5.9999999975290086
20
254
10
-2.4610366696277352e-13
20
254
10
-7.2872289955043158e-14
20
279.40000000000003
10
-5.9999999975288354
20
279.40000000000003
10
-5.9999999975288425
20
304.80000000000001
10
-7.9497043526919021e-14
20
304.80000000000001
10
-8.6121797098794859e-14
20
330.19999999999993
10
-5.9999999975288487
20
330.19999999999993
10
-5.9999999975288549
20
355.60000000000002
10
-9.2746550670670721e-14
20
355.60000000000002
10
-2.7922743482215281e-13
20
381
10
-5.9999999975290415
20
381
10
-5.9999999975290477
20
406.39999999999998
10
-2.8585218839402865e-13
20
406.39999999999998
10
-2.9247694196590449e-13
20
431.80000000000001
10
-5.9999999975290539
20
431.80000000000001
10
-5.999999997529061
20
457.19999999999999
10
-2.9910169553778038e-13
20
457.19999999999999
10
-1.4553594389925691e-13
20
558.00001678466799
10
-50.800006082592979
20
558.00001678466799
10
-50.800006082592979
20
551.99999999999648
10
-76.200006072131458
20
551.99999999999648
10
-76.200006072131458
20
558.00001678466799
10
-127.00000605120826
20
558.00001678466799
10
-127.00000605120826
20
551.99999999999648
10
-152.40000604074666
20
551.99999999999636
10
-152.40000604074666
20
558.00001678466788
10
-203.20000601982349
20
558.00001678466788
10
-203.20000601982349
20
551.99999999999636
10
-228.60000600936192
20
551.99999999999636
10
-228.60000600936192
20
558.00001678466788
10
-381.00000594659235
20
558.00001678466788
10
-381.00000594659235
20
551.99999999999636
10
-431.80000592566932
20
551.99999999999636
10
-431.80000592566932
20
558.00001678466788
10
-457.20000591520761
20
558.00001678466788
10
-457.20000591520761
20
551.99999999999636
10
-508.00000589428453
20
551.99999999999636
10
-508.00000589428453
20
558.00001678466788
10
-533.40000588382293
20
558.00001678466788
10
-533.40000588382293
20
551.99999999999636
0
ENDSEC
0
SECTION
2
OBJECTS
0
DICTIONARY
5
C
100
AcDbDictionary
3
ACAD_GROUP
350
D
3
ACAD_MLINESTYLE
350
17
0
DICTIONARY
5
D
100
AcDbDictionary
0
DICTIONARY
5
1A
330
C
100
AcDbDictionary
0
DICTIONARY
5
17
100
AcDbDictionary
0
ENDSEC
0
EOF
