0
SECTION
2
HEADER
9
$INSUNITS
70
4
9
$ACADVER
1
AC1014
9
$HANDSEED
5
FFFF
0
ENDSEC
0
SECTION
2
TABLES
0
TABLE
2
VPORT
5
8
100
AcDbSymbolTable
0
ENDTAB
0
TABLE
2
LTYPE
5
5
100
AcDbSymbolTable
0
LTYPE
5
14
100
AcDbSymbolTableRecord
100
AcDbLinetypeTableRecord
2
BYBLOCK
70
0
0
LTYPE
5
15
100
AcDbSymbolTableRecord
100
AcDbLinetypeTableRecord
2
BYLAYER
70
0
0
ENDTAB
0
TABLE
2
LAYER
5
2
100
AcDbSymbolTable
70
2
0
LAYER
5
50
100
AcDbSymbolTableRecord
100
AcDbLayerTableRecord
2
0
70
0
6
CONTINUOUS
0
ENDTAB
0
TABLE
2
STYLE
5
3
100
AcDbSymbolTable
70
1
0
STYLE
5
11
100
AcDbSymbolTableRecord
100
AcDbTextStyleTableRecord
2
STANDARD
70
0
0
ENDTAB
0
TABLE
2
VIEW
5
6
100
AcDbSymbolTable
70
0
0
ENDTAB
0
TABLE
2
UCS
5
7
100
AcDbSymbolTable
70
0
0
ENDTAB
0
TABLE
2
APPID
5
9
100
AcDbSymbolTable
70
2
0
APPID
5
12
100
AcDbSymbolTableRecord
100
AcDbRegAppTableRecord
2
ACAD
70
0
0
ENDTAB
0
TABLE
2
DIMSTYLE
5
A
100
AcDbSymbolTable
70
1
0
ENDTAB
0
TABLE
2
BLOCK_RECORD
5
1
100
AcDbSymbolTable
70
1
0
BLOCK_RECORD
5
1F
100
AcDbSymbolTableRecord
100
AcDbBlockTableRecord
2
*MODEL_SPACE
0
BLOCK_RECORD
5
1B
100
AcDbSymbolTableRecord
100
AcDbBlockTableRecord
2
*PAPER_SPACE
0
ENDTAB
0
ENDSEC
0
SECTION
2
BLOCKS
0
BLOCK
5
20
100
AcDbEntity
100
AcDbBlockBegin
2
*MODEL_SPACE
0
ENDBLK
5
21
100
AcDbEntity
100
AcDbBlockEnd
0
BLOCK
5
1C
100
AcDbEntity
100
AcDbBlockBegin
2
*PAPER_SPACE
0
ENDBLK
5
1D
100
AcDbEntity
100
AcDbBlockEnd
0
ENDSEC
0
SECTION
2
ENTITIES
0
LWPOLYLINE
5
100
100
AcDbEntity
8
0
100
AcDbPolyline
90
64
70
1
43
0.0
10
-304.79999999999995
20
8.4598994476436916e-14
10
-304.79999999999995
20
558.00001678466811
10
-381.00000610351577
20
558.00001678466811
10
-381.00000610351577
20
551.99999999999659
10
-431.8000061035159
20
551.99999999999659
10
-431.8000061035159
20
558.00001678466811
10
-457.20000610351576
20
558.00001678466811
10
-457.20000610351576
20
551.99999999999659
10
-508.00000610351583
20
551.99999999999659
10
-508.00000610351583
20
558.00001678466811
10
-533.40000610351569
20
558.00001678466811
10
-533.40000610351569
20
551.99999999999659
10
-584.20000610351599
20
551.99999999999659
10
-584.20000610351599
20
558.00001678466811
10
-609.5999999999998
20
558.00001678466811
10
-609.59999999999957
20
457.20000000000016
10
-603.59999999999968
20
457.20000000000016
10
-603.59999999999968
20
431.80000000000013
10
-609.59999999999957
20
431.80000000000013
10
-609.59999999999957
20
406.40000000000015
10
-603.59999999999968
20
406.40000000000015
10
-603.59999999999968
20
381.00000000000017
10
-609.59999999999968
20
381.00000000000017
10
-609.59999999999991
20
355.60000000000014
10
-603.59999999999991
20
355.60000000000014
10
-603.59999999999991
20
330.2000000000001
10
-609.59999999999991
20
330.2000000000001
10
-609.59999999999991
20
304.80000000000018
10
-603.59999999999991
20
304.80000000000018
10
-603.59999999999991
20
279.4000000000002
10
-609.59999999999991
20
279.4000000000002
10
-609.59999999999968
20
254.00000000000017
10
-603.59999999999968
20
254.00000000000017
10
-603.59999999999968
20
228.60000000000016
10
-609.59999999999968
20
228.60000000000016
10
-609.59999999999991
20
203.20000000000019
10
-603.59999999999991
20
203.20000000000019
10
-603.59999999999991
20
177.80000000000018
10
-609.59999999999991
20
177.80000000000018
10
-609.59999999999991
20
152.40000000000018
10
-603.59999999999991
20
152.40000000000015
10
-603.59999999999991
20
127.00000000000016
10
-609.59999999999991
20
127.00000000000017
10
-609.59999999999991
20
101.60000000000018
10
-603.59999999999991
20
101.60000000000016
10
-603.59999999999991
20
76.200000000000173
10
-609.59999999999991
20
76.200000000000173
10
-609.59999999999991
20
50.800000000000168
10
-603.59999999999991
20
50.800000000000168
10
-603.59999999999991
20
25.400000000000169
10
-609.59999999999991
20
25.400000000000169
10
-609.59999999999991
20
1.6919798895287383e-13
10
-558.79999999999984
20
1.5509815654013432e-13
10
-558.79999999999984
20
6.0000000000001563
10
-533.39999999999975
20
6.0000000000001483
10
-533.39999999999975
20
1.4804824033376455e-13
10
-482.5999999999998
20
1.3394840792102509e-13
10
-482.5999999999998
20
6.000000000000135
10
-457.19999999999976
20
6.0000000000001279
10
-457.19999999999976
20
1.2689849171465532e-13
10
-406.39999999999981
20
1.1279865930191585e-13
10
-406.39999999999981
20
6.0000000000001137
10
-380.99999999999977
20
6.0000000000001066
10
-380.99999999999977
20
1.057487430955461e-13
0
ENDSEC
0
SECTION
2
OBJECTS
0
DICTIONARY
5
C
100
AcDbDictionary
3
ACAD_GROUP
350
D
3
ACAD_MLINESTYLE
350
17
0
DICTIONARY
5
D
100
AcDbDictionary
0
DICTIONARY
5
1A
330
C
100
AcDbDictionary
0
DICTIONARY
5
17
100
AcDbDictionary
0
ENDSEC
0
EOF
