0
SECTION
2
HEADER
9
$INSUNITS
70
4
9
$ACADVER
1
AC1014
9
$HANDSEED
5
FFFF
0
ENDSEC
0
SECTION
2
TABLES
0
TABLE
2
VPORT
5
8
100
AcDbSymbolTable
0
ENDTAB
0
TABLE
2
LTYPE
5
5
100
AcDbSymbolTable
0
LTYPE
5
14
100
AcDbSymbolTableRecord
100
AcDbLinetypeTableRecord
2
BYBLOCK
70
0
0
LTYPE
5
15
100
AcDbSymbolTableRecord
100
AcDbLinetypeTableRecord
2
BYLAYER
70
0
0
ENDTAB
0
TABLE
2
LAYER
5
2
100
AcDbSymbolTable
70
2
0
LAYER
5
50
100
AcDbSymbolTableRecord
100
AcDbLayerTableRecord
2
0
70
0
6
CONTINUOUS
0
ENDTAB
0
TABLE
2
STYLE
5
3
100
AcDbSymbolTable
70
1
0
STYLE
5
11
100
AcDbSymbolTableRecord
100
AcDbTextStyleTableRecord
2
STANDARD
70
0
0
ENDTAB
0
TABLE
2
VIEW
5
6
100
AcDbSymbolTable
70
0
0
ENDTAB
0
TABLE
2
UCS
5
7
100
AcDbSymbolTable
70
0
0
ENDTAB
0
TABLE
2
APPID
5
9
100
AcDbSymbolTable
70
2
0
APPID
5
12
100
AcDbSymbolTableRecord
100
AcDbRegAppTableRecord
2
ACAD
70
0
0
ENDTAB
0
TABLE
2
DIMSTYLE
5
A
100
AcDbSymbolTable
70
1
0
ENDTAB
0
TABLE
2
BLOCK_RECORD
5
1
100
AcDbSymbolTable
70
1
0
BLOCK_RECORD
5
1F
100
AcDbSymbolTableRecord
100
AcDbBlockTableRecord
2
*MODEL_SPACE
0
BLOCK_RECORD
5
1B
100
AcDbSymbolTableRecord
100
AcDbBlockTableRecord
2
*PAPER_SPACE
0
ENDTAB
0
ENDSEC
0
SECTION
2
BLOCKS
0
BLOCK
5
20
100
AcDbEntity
100
AcDbBlockBegin
2
*MODEL_SPACE
0
ENDBLK
5
21
100
AcDbEntity
100
AcDbBlockEnd
0
BLOCK
5
1C
100
AcDbEntity
100
AcDbBlockBegin
2
*PAPER_SPACE
0
ENDBLK
5
1D
100
AcDbEntity
100
AcDbBlockEnd
0
ENDSEC
0
SECTION
2
ENTITIES
0
LWPOLYLINE
5
100
100
AcDbEntity
8
0
100
AcDbPolyline
90
132
70
1
43
0.0
10
407.8113889932639
20
142.04616196155357
10
405.75926806926805
20
147.68431766032975
10
358.02288315296238
20
130.30969383716368
10
360.07500407695829
20
124.67153813838749
10
216.86584932804169
20
72.547666668889832
10
214.81372840404575
20
78.18582236766602
10
190.94553594589297
20
69.498510456083125
10
192.99765686988891
20
63.860354757306936
10
145.26127195358339
20
46.485730934141003
10
143.20915102958742
20
52.123886632917191
10
119.34095857143468
20
43.436574721334296
10
121.3930794954306
20
37.798419022558107
10
73.656694579125102
20
20.423795199392174
10
71.604573655129144
20
26.061950898168362
10
47.736381196976332
20
17.374638986585467
10
49.788502120972282
20
11.736483287809278
10
7.690272903442974
20
-3.5860196113607401
10
25.064896726608978
20
-51.322404527666237
10
19.426741027832684
20
-53.374525451662294
10
28.114052939415686
20
-77.242717909815042
10
33.752208638191945
20
-75.190596985818985
10
51.126832461357914
20
-122.92698190212477
10
45.488676762581619
20
-124.97910282612082
10
54.175988674164657
20
-148.84729528427357
10
59.814144372940952
20
-146.79517436027751
10
77.188768196106878
20
-194.53155927658315
10
71.550612497330661
20
-196.58368020057921
10
80.237924408913671
20
-220.45187265873204
10
85.876080107689958
20
-218.39975173473604
10
103.25070393085589
20
-266.13613665104168
10
97.612548232079632
20
-268.18825757503765
10
106.2998601436626
20
-292.05645003319057
10
111.93801584243886
20
-290.0043291091946
10
120.62532775402187
20
-313.87252156734741
10
114.98717205524557
20
-315.92464249134338
10
123.67448396682857
20
-339.79283494949618
10
129.31263966560488
20
-337.74071402550021
10
194.70689311027593
20
-517.40994229316834
10
189.06873741149965
20
-519.46206321716431
10
197.75604932308255
20
-543.33025567531718
10
203.39420502185885
20
-541.2781347513212
10
212.08151693344178
20
-565.14632720947407
10
206.44336123466553
20
-567.19844813346992
10
215.13067314624848
20
-591.0666405916229
10
220.7688288450247
20
-589.01451966762681
10
238.14345266819063
20
-636.75090458393254
10
232.50529696941436
20
-638.80302550792851
10
241.19260888099728
20
-662.67121796608137
10
246.8307645797735
20
-660.61909704208551
10
264.20538840293943
20
-708.35548195839112
10
258.56723270416319
20
-710.40760288238698
10
267.25454461574606
20
-734.27579534053984
10
272.89270031452236
20
-732.22367441654399
10
290.26732413768826
20
-779.9600593328496
10
284.62916843891202
20
-782.01218025684557
10
293.31648035049488
20
-805.88037271499843
10
298.95463604927119
20
-803.82825179100246
10
316.32925987243704
20
-851.56463670730818
10
358.4274890899664
20
-836.24213380813831
10
360.47961001396231
20
-841.88028950691444
10
384.34780247211512
20
-833.1929775953314
10
382.29568154811921
20
-827.55482189655527
10
430.0320664644247
20
-810.18019807338931
10
432.08418738842062
20
-815.81835377216544
10
455.95237984657342
20
-807.13104186058263
10
453.90025892257745
20
-801.49288616180638
10
501.63664383888306
20
-784.11826233864053
10
503.68876476287892
20
-789.75641803741667
10
527.55695722103178
20
-781.06910612583397
10
525.50483629703581
20
-775.43095042705772
10
668.71399104595241
20
-723.30707895756007
10
670.76611196994827
20
-728.9452346563362
10
694.63430442810113
20
-720.25792274475339
10
692.58218350410516
20
-714.61976704597703
10
740.31856842041066
20
-697.24514322281129
10
742.37068934440674
20
-702.88329892158742
10
766.23888180255949
20
-694.19598701000439
10
764.1867608785634
20
-688.55783131122826
10
811.9231457948689
20
-671.18320748806241
10
813.97526671886499
20
-676.82136318683865
10
837.84345917701785
20
-668.13405127525562
10
835.79133825302176
20
-662.49589557647937
10
877.88956747055113
20
-647.17339267730949
10
860.51494364738517
20
-599.43700776100388
10
866.1530993461613
20
-597.38488683700791
10
857.46578743457826
20
-573.51669437885505
10
851.82763173580213
20
-575.56881530285102
10
834.45300791263617
20
-527.8324303865453
10
840.09116361141253
20
-525.78030946254933
10
831.40385169982949
20
-501.91211700439652
10
825.76569600105336
20
-503.96423792839249
10
808.39107217788728
20
-456.22785301208688
10
814.02922787666353
20
-454.17573208809085
10
805.34191596508049
20
-430.30753962993805
10
799.70376026630424
20
-432.35966055393408
10
782.3291364431384
20
-384.62327563762841
10
787.96729214191464
20
-382.5711547136325
10
779.2799802303316
20
-358.70296225547969
10
773.64182453155536
20
-360.75508317947566
10
764.95451261997232
20
-336.88689072132274
10
770.59266831874857
20
-334.83476979732689
10
761.90535640716575
20
-310.96657733917397
10
756.26720070838928
20
-313.01869826316994
10
690.87294726371829
20
-133.34946999550155
10
696.51110296249442
20
-131.29734907150564
10
687.82379105091172
20
-107.42915661335289
10
682.18563535213525
20
-109.4812775373488
10
673.49832344055244
20
-85.613085079195912
10
679.13647913932869
20
-83.560964155199997
10
670.44916722774565
20
-59.692771697047107
10
664.8110115289694
20
-61.744892621043022
10
647.43638770580355
20
-14.008507704737383
10
653.0745434045798
20
-11.956386780741468
10
644.38723149299676
20
11.911805677411422
10
638.74907579422063
20
9.8596847534155074
10
621.37445197105467
20
57.596069669721146
10
627.01260766983091
20
59.648190593717203
10
618.32529575824799
20
83.516383051869951
10
612.68714005947163
20
81.464262127873894
10
595.31251623630578
20
129.20064704417968
10
600.95067193508203
20
131.25276796817573
10
592.2633600234991
20
155.12096042632848
10
586.62520432472286
20
153.06883950233242
10
569.25058050155701
20
200.80522441863806
10
551.02054374218051
20
194.17003343105122
10
548.96842281818465
20
199.80818912982741
10
501.23203790187887
20
182.43356530666134
10
503.28415882587484
20
176.79540960788515
10
479.41596636772215
20
168.10809769630225
10
477.36384544372629
20
173.74625339507844
10
429.62746052742062
20
156.37162957191251
10
431.67958145141654
20
150.73347387313632
0
ENDSEC
0
SECTION
2
OBJECTS
0
DICTIONARY
5
C
100
AcDbDictionary
3
ACAD_GROUP
350
D
3
ACAD_MLINESTYLE
350
17
0
DICTIONARY
5
D
100
AcDbDictionary
0
DICTIONARY
5
1A
330
C
100
AcDbDictionary
0
DICTIONARY
5
17
100
AcDbDictionary
0
ENDSEC
0
EOF
