# WaveFront *.obj file (generated by Autodesk ATF)

mtllib NyxBoxV1_NyxRoyalLitterBot v106_BaseOuter_1_Body1.mtl

g Body1

v 0.000000 615.599997 0.000000
v 0.000000 615.599997 -914.400000
v -6.000000 615.599997 -914.400000
v -6.000000 615.599997 0.000000
v 0.000000 -0.000000 -914.400000
v -6.000000 -0.000000 -914.400000
v -0.000000 -0.000000 0.000000
v -6.000000 -0.000000 0.000000
vt 0.600000 0.000000 0.000000
vt -90.840000 0.000000 0.000000
vt 0.600000 -0.600000 0.000000
vt -90.840000 -0.600000 0.000000
vt 0.000000 -60.360000 0.000000
vt 0.600000 -60.360000 0.000000
vt 0.000000 1.200000 0.000000
vt 0.600000 1.200000 0.000000
vt 0.000000 60.960000 0.000000
vt -0.600000 60.960000 0.000000
vt 0.000000 -0.600000 0.000000
vt -0.600000 -0.600000 0.000000
vt 0.600000 0.000000 0.000000
vt -90.840000 0.000000 0.000000
vt 0.600000 -0.600000 0.000000
vt -90.840000 -0.600000 0.000000
vt -45.720000 -30.480000 0.000000
vt 45.720000 -30.480000 0.000000
vt -45.720000 31.080000 0.000000
vt 45.720000 31.080000 0.000000
vt -45.720000 -30.480000 0.000000
vt 45.720000 -30.480000 0.000000
vt -45.720000 31.080000 0.000000
vt 45.720000 31.080000 0.000000
vn 0.000000 0.100000 -0.000000
vn 0.000000 0.100000 -0.000000
vn 0.000000 0.100000 -0.000000
vn 0.000000 0.100000 -0.000000
vn -0.000000 -0.000000 -0.100000
vn -0.000000 -0.000000 -0.100000
vn -0.000000 -0.000000 -0.100000
vn -0.000000 -0.000000 -0.100000
vn 0.000000 0.000000 0.100000
vn 0.000000 0.000000 0.100000
vn 0.000000 0.000000 0.100000
vn 0.000000 0.000000 0.100000
vn -0.000000 -0.100000 0.000000
vn -0.000000 -0.100000 0.000000
vn -0.000000 -0.100000 0.000000
vn -0.000000 -0.100000 0.000000
vn 0.100000 -0.000000 0.000000
vn 0.100000 -0.000000 0.000000
vn 0.100000 -0.000000 0.000000
vn 0.100000 -0.000000 0.000000
vn -0.100000 0.000000 -0.000000
vn -0.100000 0.000000 -0.000000
vn -0.100000 0.000000 -0.000000
vn -0.100000 0.000000 -0.000000
usemtl Pine
f 1/1/1 2/2/2 4/3/3
f 4/3/3 2/2/2 3/4/4
f 5/5/5 6/6/6 2/7/7
f 2/7/7 6/6/6 3/8/8
f 1/9/9 4/10/10 7/11/11
f 7/11/11 4/10/10 8/12/12
f 5/13/13 7/14/14 6/15/15
f 6/15/15 7/14/14 8/16/16
f 7/17/17 5/18/18 1/19/19
f 1/19/19 5/18/18 2/20/20
f 6/21/21 8/22/22 3/23/23
f 3/23/23 8/22/22 4/24/24
# 8 vertices
# 24 texture params
# 24 normals
# 12 facets

# 1 groups
