# WaveFront *.obj file (generated by Autodesk ATF)

mtllib NyxBoxV1_NyxRoyalLitterBot v106_BaseOuter_1_Feets_1_Component24_1_Body3.mtl

g Body3

v -6.000000 19.399991 -25.400000
v -6.000000 19.399991 -127.000000
v -6.000000 120.999991 -127.000000
v -6.000000 120.999991 -25.400000
v -7.000000 19.399991 -127.000000
v -7.000000 120.999991 -127.000000
v -7.000000 120.999991 -25.400000
v -7.000000 19.399991 -25.400000
v -44.100000 103.219991 -43.180000
v -44.100000 37.179991 -43.180000
v -44.100000 103.219991 -109.220000
v -44.100000 37.179991 -109.220000
vt 43.180000 28.240000 0.000000
vt 33.020000 28.240000 0.000000
vt 43.180000 18.080000 0.000000
vt 33.020000 18.080000 0.000000
vt -0.000000 0.100000 0.000000
vt -10.160000 0.100000 0.000000
vt -0.000000 0.000000 0.000000
vt -10.160000 0.000000 0.000000
vt -0.000000 0.100000 0.000000
vt -10.160000 0.100000 0.000000
vt -0.000000 -0.000000 0.000000
vt -10.160000 -0.000000 0.000000
vt -0.000000 0.100000 0.000000
vt -10.160000 0.100000 0.000000
vt -0.000000 0.000000 0.000000
vt -10.160000 0.000000 0.000000
vt -0.000000 0.100000 0.000000
vt -10.160000 0.100000 0.000000
vt -0.000000 -0.000000 0.000000
vt -10.160000 0.000000 0.000000
vt 0.000000 -6.604000 0.000000
vt 0.000000 -0.000000 0.000000
vt -4.114047 -8.382000 0.000000
vt -4.114047 1.778000 0.000000
vt -6.604000 -0.000000 0.000000
vt -0.000000 -0.000000 0.000000
vt -8.382000 4.114047 0.000000
vt 1.778000 4.114047 0.000000
vt 0.000000 -0.000000 0.000000
vt 4.114047 -1.778000 0.000000
vt 0.000000 6.604000 0.000000
vt 4.114047 8.382000 0.000000
vt -6.604000 -0.000000 0.000000
vt -0.000000 -0.000000 0.000000
vt -8.382000 4.114047 0.000000
vt 1.778000 4.114047 0.000000
vt -34.798000 26.462000 0.000000
vt -41.402000 26.462000 0.000000
vt -34.798000 19.858000 0.000000
vt -41.402000 19.858000 0.000000
vn 0.100000 -0.000000 0.000000
vn 0.100000 -0.000000 0.000000
vn 0.100000 -0.000000 0.000000
vn 0.100000 -0.000000 0.000000
vn -0.000000 -0.000000 -0.100000
vn -0.000000 -0.000000 -0.100000
vn -0.000000 -0.000000 -0.100000
vn -0.000000 -0.000000 -0.100000
vn 0.000000 0.100000 -0.000000
vn 0.000000 0.100000 -0.000000
vn 0.000000 0.100000 -0.000000
vn 0.000000 0.100000 -0.000000
vn 0.000000 0.000000 0.100000
vn 0.000000 0.000000 0.100000
vn 0.000000 0.000000 0.100000
vn 0.000000 0.000000 0.100000
vn -0.000000 -0.100000 0.000000
vn -0.000000 -0.100000 0.000000
vn -0.000000 -0.100000 0.000000
vn -0.000000 -0.100000 0.000000
vn -0.043218 0.000000 0.090179
vn -0.043218 0.000000 0.090179
vn -0.043218 0.000000 0.090179
vn -0.043218 0.000000 0.090179
vn -0.043218 0.090179 -0.000000
vn -0.043218 0.090179 -0.000000
vn -0.043218 0.090179 -0.000000
vn -0.043218 0.090179 -0.000000
vn -0.043218 -0.000000 -0.090179
vn -0.043218 -0.000000 -0.090179
vn -0.043218 -0.000000 -0.090179
vn -0.043218 -0.000000 -0.090179
vn -0.043218 -0.090179 0.000000
vn -0.043218 -0.090179 0.000000
vn -0.043218 -0.090179 0.000000
vn -0.043218 -0.090179 0.000000
vn -0.100000 0.000000 -0.000000
vn -0.100000 0.000000 -0.000000
vn -0.100000 0.000000 -0.000000
vn -0.100000 0.000000 -0.000000
usemtl Steel_-_Satin
f 1/1/1 2/2/2 4/3/3
f 4/3/3 2/2/2 3/4/4
f 5/5/5 6/6/6 2/7/7
f 2/7/7 6/6/6 3/8/8
f 6/9/9 7/10/10 3/11/11
f 3/11/11 7/10/10 4/12/12
f 7/13/13 8/14/14 4/15/15
f 4/15/15 8/14/14 1/16/16
f 8/17/17 5/18/18 1/19/19
f 1/19/19 5/18/18 2/20/20
f 9/21/21 10/22/22 7/23/23
f 7/23/23 10/22/22 8/24/24
f 11/25/25 9/26/26 6/27/27
f 6/27/27 9/26/26 7/28/28
f 11/29/29 6/30/30 12/31/31
f 12/31/31 6/30/30 5/32/32
f 10/33/33 12/34/34 8/35/35
f 8/35/35 12/34/34 5/36/36
f 12/37/37 10/38/38 11/39/39
f 11/39/39 10/38/38 9/40/40
# 12 vertices
# 40 texture params
# 40 normals
# 20 facets

# 1 groups
